G04 #@! TF.GenerationSoftware,KiCad,Pcbnew,(5.1.5)-3*
G04 #@! TF.CreationDate,2020-04-12T12:06:53+02:00*
G04 #@! TF.ProjectId,4Keys,344b6579-732e-46b6-9963-61645f706362,rev?*
G04 #@! TF.SameCoordinates,Original*
G04 #@! TF.FileFunction,Paste,Bot*
G04 #@! TF.FilePolarity,Positive*
%FSLAX46Y46*%
G04 Gerber Fmt 4.6, Leading zero omitted, Abs format (unit mm)*
G04 Created by KiCad (PCBNEW (5.1.5)-3) date 2020-04-12 12:06:53*
%MOMM*%
%LPD*%
G04 APERTURE LIST*
%ADD10C,0.100000*%
%ADD11R,1.200000X1.200000*%
%ADD12R,2.350000X0.800000*%
%ADD13R,0.500000X1.400000*%
%ADD14O,1.500000X4.000000*%
%ADD15R,1.700000X1.000000*%
%ADD16R,0.508000X1.473200*%
%ADD17R,1.473200X0.508000*%
G04 APERTURE END LIST*
D10*
G36*
X151224505Y-53613704D02*
G01*
X151248773Y-53617304D01*
X151272572Y-53623265D01*
X151295671Y-53631530D01*
X151317850Y-53642020D01*
X151338893Y-53654632D01*
X151358599Y-53669247D01*
X151376777Y-53685723D01*
X151393253Y-53703901D01*
X151407868Y-53723607D01*
X151420480Y-53744650D01*
X151430970Y-53766829D01*
X151439235Y-53789928D01*
X151445196Y-53813727D01*
X151448796Y-53837995D01*
X151450000Y-53862499D01*
X151450000Y-54512501D01*
X151448796Y-54537005D01*
X151445196Y-54561273D01*
X151439235Y-54585072D01*
X151430970Y-54608171D01*
X151420480Y-54630350D01*
X151407868Y-54651393D01*
X151393253Y-54671099D01*
X151376777Y-54689277D01*
X151358599Y-54705753D01*
X151338893Y-54720368D01*
X151317850Y-54732980D01*
X151295671Y-54743470D01*
X151272572Y-54751735D01*
X151248773Y-54757696D01*
X151224505Y-54761296D01*
X151200001Y-54762500D01*
X150299999Y-54762500D01*
X150275495Y-54761296D01*
X150251227Y-54757696D01*
X150227428Y-54751735D01*
X150204329Y-54743470D01*
X150182150Y-54732980D01*
X150161107Y-54720368D01*
X150141401Y-54705753D01*
X150123223Y-54689277D01*
X150106747Y-54671099D01*
X150092132Y-54651393D01*
X150079520Y-54630350D01*
X150069030Y-54608171D01*
X150060765Y-54585072D01*
X150054804Y-54561273D01*
X150051204Y-54537005D01*
X150050000Y-54512501D01*
X150050000Y-53862499D01*
X150051204Y-53837995D01*
X150054804Y-53813727D01*
X150060765Y-53789928D01*
X150069030Y-53766829D01*
X150079520Y-53744650D01*
X150092132Y-53723607D01*
X150106747Y-53703901D01*
X150123223Y-53685723D01*
X150141401Y-53669247D01*
X150161107Y-53654632D01*
X150182150Y-53642020D01*
X150204329Y-53631530D01*
X150227428Y-53623265D01*
X150251227Y-53617304D01*
X150275495Y-53613704D01*
X150299999Y-53612500D01*
X151200001Y-53612500D01*
X151224505Y-53613704D01*
G37*
G36*
X151224505Y-51563704D02*
G01*
X151248773Y-51567304D01*
X151272572Y-51573265D01*
X151295671Y-51581530D01*
X151317850Y-51592020D01*
X151338893Y-51604632D01*
X151358599Y-51619247D01*
X151376777Y-51635723D01*
X151393253Y-51653901D01*
X151407868Y-51673607D01*
X151420480Y-51694650D01*
X151430970Y-51716829D01*
X151439235Y-51739928D01*
X151445196Y-51763727D01*
X151448796Y-51787995D01*
X151450000Y-51812499D01*
X151450000Y-52462501D01*
X151448796Y-52487005D01*
X151445196Y-52511273D01*
X151439235Y-52535072D01*
X151430970Y-52558171D01*
X151420480Y-52580350D01*
X151407868Y-52601393D01*
X151393253Y-52621099D01*
X151376777Y-52639277D01*
X151358599Y-52655753D01*
X151338893Y-52670368D01*
X151317850Y-52682980D01*
X151295671Y-52693470D01*
X151272572Y-52701735D01*
X151248773Y-52707696D01*
X151224505Y-52711296D01*
X151200001Y-52712500D01*
X150299999Y-52712500D01*
X150275495Y-52711296D01*
X150251227Y-52707696D01*
X150227428Y-52701735D01*
X150204329Y-52693470D01*
X150182150Y-52682980D01*
X150161107Y-52670368D01*
X150141401Y-52655753D01*
X150123223Y-52639277D01*
X150106747Y-52621099D01*
X150092132Y-52601393D01*
X150079520Y-52580350D01*
X150069030Y-52558171D01*
X150060765Y-52535072D01*
X150054804Y-52511273D01*
X150051204Y-52487005D01*
X150050000Y-52462501D01*
X150050000Y-51812499D01*
X150051204Y-51787995D01*
X150054804Y-51763727D01*
X150060765Y-51739928D01*
X150069030Y-51716829D01*
X150079520Y-51694650D01*
X150092132Y-51673607D01*
X150106747Y-51653901D01*
X150123223Y-51635723D01*
X150141401Y-51619247D01*
X150161107Y-51604632D01*
X150182150Y-51592020D01*
X150204329Y-51581530D01*
X150227428Y-51573265D01*
X150251227Y-51567304D01*
X150275495Y-51563704D01*
X150299999Y-51562500D01*
X151200001Y-51562500D01*
X151224505Y-51563704D01*
G37*
G36*
X163505755Y-51376204D02*
G01*
X163530023Y-51379804D01*
X163553822Y-51385765D01*
X163576921Y-51394030D01*
X163599100Y-51404520D01*
X163620143Y-51417132D01*
X163639849Y-51431747D01*
X163658027Y-51448223D01*
X163674503Y-51466401D01*
X163689118Y-51486107D01*
X163701730Y-51507150D01*
X163712220Y-51529329D01*
X163720485Y-51552428D01*
X163726446Y-51576227D01*
X163730046Y-51600495D01*
X163731250Y-51624999D01*
X163731250Y-52275001D01*
X163730046Y-52299505D01*
X163726446Y-52323773D01*
X163720485Y-52347572D01*
X163712220Y-52370671D01*
X163701730Y-52392850D01*
X163689118Y-52413893D01*
X163674503Y-52433599D01*
X163658027Y-52451777D01*
X163639849Y-52468253D01*
X163620143Y-52482868D01*
X163599100Y-52495480D01*
X163576921Y-52505970D01*
X163553822Y-52514235D01*
X163530023Y-52520196D01*
X163505755Y-52523796D01*
X163481251Y-52525000D01*
X162581249Y-52525000D01*
X162556745Y-52523796D01*
X162532477Y-52520196D01*
X162508678Y-52514235D01*
X162485579Y-52505970D01*
X162463400Y-52495480D01*
X162442357Y-52482868D01*
X162422651Y-52468253D01*
X162404473Y-52451777D01*
X162387997Y-52433599D01*
X162373382Y-52413893D01*
X162360770Y-52392850D01*
X162350280Y-52370671D01*
X162342015Y-52347572D01*
X162336054Y-52323773D01*
X162332454Y-52299505D01*
X162331250Y-52275001D01*
X162331250Y-51624999D01*
X162332454Y-51600495D01*
X162336054Y-51576227D01*
X162342015Y-51552428D01*
X162350280Y-51529329D01*
X162360770Y-51507150D01*
X162373382Y-51486107D01*
X162387997Y-51466401D01*
X162404473Y-51448223D01*
X162422651Y-51431747D01*
X162442357Y-51417132D01*
X162463400Y-51404520D01*
X162485579Y-51394030D01*
X162508678Y-51385765D01*
X162532477Y-51379804D01*
X162556745Y-51376204D01*
X162581249Y-51375000D01*
X163481251Y-51375000D01*
X163505755Y-51376204D01*
G37*
G36*
X163505755Y-53426204D02*
G01*
X163530023Y-53429804D01*
X163553822Y-53435765D01*
X163576921Y-53444030D01*
X163599100Y-53454520D01*
X163620143Y-53467132D01*
X163639849Y-53481747D01*
X163658027Y-53498223D01*
X163674503Y-53516401D01*
X163689118Y-53536107D01*
X163701730Y-53557150D01*
X163712220Y-53579329D01*
X163720485Y-53602428D01*
X163726446Y-53626227D01*
X163730046Y-53650495D01*
X163731250Y-53674999D01*
X163731250Y-54325001D01*
X163730046Y-54349505D01*
X163726446Y-54373773D01*
X163720485Y-54397572D01*
X163712220Y-54420671D01*
X163701730Y-54442850D01*
X163689118Y-54463893D01*
X163674503Y-54483599D01*
X163658027Y-54501777D01*
X163639849Y-54518253D01*
X163620143Y-54532868D01*
X163599100Y-54545480D01*
X163576921Y-54555970D01*
X163553822Y-54564235D01*
X163530023Y-54570196D01*
X163505755Y-54573796D01*
X163481251Y-54575000D01*
X162581249Y-54575000D01*
X162556745Y-54573796D01*
X162532477Y-54570196D01*
X162508678Y-54564235D01*
X162485579Y-54555970D01*
X162463400Y-54545480D01*
X162442357Y-54532868D01*
X162422651Y-54518253D01*
X162404473Y-54501777D01*
X162387997Y-54483599D01*
X162373382Y-54463893D01*
X162360770Y-54442850D01*
X162350280Y-54420671D01*
X162342015Y-54397572D01*
X162336054Y-54373773D01*
X162332454Y-54349505D01*
X162331250Y-54325001D01*
X162331250Y-53674999D01*
X162332454Y-53650495D01*
X162336054Y-53626227D01*
X162342015Y-53602428D01*
X162350280Y-53579329D01*
X162360770Y-53557150D01*
X162373382Y-53536107D01*
X162387997Y-53516401D01*
X162404473Y-53498223D01*
X162422651Y-53481747D01*
X162442357Y-53467132D01*
X162463400Y-53454520D01*
X162485579Y-53444030D01*
X162508678Y-53435765D01*
X162532477Y-53429804D01*
X162556745Y-53426204D01*
X162581249Y-53425000D01*
X163481251Y-53425000D01*
X163505755Y-53426204D01*
G37*
G36*
X170818255Y-67769954D02*
G01*
X170842523Y-67773554D01*
X170866322Y-67779515D01*
X170889421Y-67787780D01*
X170911600Y-67798270D01*
X170932643Y-67810882D01*
X170952349Y-67825497D01*
X170970527Y-67841973D01*
X170987003Y-67860151D01*
X171001618Y-67879857D01*
X171014230Y-67900900D01*
X171024720Y-67923079D01*
X171032985Y-67946178D01*
X171038946Y-67969977D01*
X171042546Y-67994245D01*
X171043750Y-68018749D01*
X171043750Y-68668751D01*
X171042546Y-68693255D01*
X171038946Y-68717523D01*
X171032985Y-68741322D01*
X171024720Y-68764421D01*
X171014230Y-68786600D01*
X171001618Y-68807643D01*
X170987003Y-68827349D01*
X170970527Y-68845527D01*
X170952349Y-68862003D01*
X170932643Y-68876618D01*
X170911600Y-68889230D01*
X170889421Y-68899720D01*
X170866322Y-68907985D01*
X170842523Y-68913946D01*
X170818255Y-68917546D01*
X170793751Y-68918750D01*
X169893749Y-68918750D01*
X169869245Y-68917546D01*
X169844977Y-68913946D01*
X169821178Y-68907985D01*
X169798079Y-68899720D01*
X169775900Y-68889230D01*
X169754857Y-68876618D01*
X169735151Y-68862003D01*
X169716973Y-68845527D01*
X169700497Y-68827349D01*
X169685882Y-68807643D01*
X169673270Y-68786600D01*
X169662780Y-68764421D01*
X169654515Y-68741322D01*
X169648554Y-68717523D01*
X169644954Y-68693255D01*
X169643750Y-68668751D01*
X169643750Y-68018749D01*
X169644954Y-67994245D01*
X169648554Y-67969977D01*
X169654515Y-67946178D01*
X169662780Y-67923079D01*
X169673270Y-67900900D01*
X169685882Y-67879857D01*
X169700497Y-67860151D01*
X169716973Y-67841973D01*
X169735151Y-67825497D01*
X169754857Y-67810882D01*
X169775900Y-67798270D01*
X169798079Y-67787780D01*
X169821178Y-67779515D01*
X169844977Y-67773554D01*
X169869245Y-67769954D01*
X169893749Y-67768750D01*
X170793751Y-67768750D01*
X170818255Y-67769954D01*
G37*
G36*
X170818255Y-69819954D02*
G01*
X170842523Y-69823554D01*
X170866322Y-69829515D01*
X170889421Y-69837780D01*
X170911600Y-69848270D01*
X170932643Y-69860882D01*
X170952349Y-69875497D01*
X170970527Y-69891973D01*
X170987003Y-69910151D01*
X171001618Y-69929857D01*
X171014230Y-69950900D01*
X171024720Y-69973079D01*
X171032985Y-69996178D01*
X171038946Y-70019977D01*
X171042546Y-70044245D01*
X171043750Y-70068749D01*
X171043750Y-70718751D01*
X171042546Y-70743255D01*
X171038946Y-70767523D01*
X171032985Y-70791322D01*
X171024720Y-70814421D01*
X171014230Y-70836600D01*
X171001618Y-70857643D01*
X170987003Y-70877349D01*
X170970527Y-70895527D01*
X170952349Y-70912003D01*
X170932643Y-70926618D01*
X170911600Y-70939230D01*
X170889421Y-70949720D01*
X170866322Y-70957985D01*
X170842523Y-70963946D01*
X170818255Y-70967546D01*
X170793751Y-70968750D01*
X169893749Y-70968750D01*
X169869245Y-70967546D01*
X169844977Y-70963946D01*
X169821178Y-70957985D01*
X169798079Y-70949720D01*
X169775900Y-70939230D01*
X169754857Y-70926618D01*
X169735151Y-70912003D01*
X169716973Y-70895527D01*
X169700497Y-70877349D01*
X169685882Y-70857643D01*
X169673270Y-70836600D01*
X169662780Y-70814421D01*
X169654515Y-70791322D01*
X169648554Y-70767523D01*
X169644954Y-70743255D01*
X169643750Y-70718751D01*
X169643750Y-70068749D01*
X169644954Y-70044245D01*
X169648554Y-70019977D01*
X169654515Y-69996178D01*
X169662780Y-69973079D01*
X169673270Y-69950900D01*
X169685882Y-69929857D01*
X169700497Y-69910151D01*
X169716973Y-69891973D01*
X169735151Y-69875497D01*
X169754857Y-69860882D01*
X169775900Y-69848270D01*
X169798079Y-69837780D01*
X169821178Y-69829515D01*
X169844977Y-69823554D01*
X169869245Y-69819954D01*
X169893749Y-69818750D01*
X170793751Y-69818750D01*
X170818255Y-69819954D01*
G37*
G36*
X170818255Y-60076204D02*
G01*
X170842523Y-60079804D01*
X170866322Y-60085765D01*
X170889421Y-60094030D01*
X170911600Y-60104520D01*
X170932643Y-60117132D01*
X170952349Y-60131747D01*
X170970527Y-60148223D01*
X170987003Y-60166401D01*
X171001618Y-60186107D01*
X171014230Y-60207150D01*
X171024720Y-60229329D01*
X171032985Y-60252428D01*
X171038946Y-60276227D01*
X171042546Y-60300495D01*
X171043750Y-60324999D01*
X171043750Y-60975001D01*
X171042546Y-60999505D01*
X171038946Y-61023773D01*
X171032985Y-61047572D01*
X171024720Y-61070671D01*
X171014230Y-61092850D01*
X171001618Y-61113893D01*
X170987003Y-61133599D01*
X170970527Y-61151777D01*
X170952349Y-61168253D01*
X170932643Y-61182868D01*
X170911600Y-61195480D01*
X170889421Y-61205970D01*
X170866322Y-61214235D01*
X170842523Y-61220196D01*
X170818255Y-61223796D01*
X170793751Y-61225000D01*
X169893749Y-61225000D01*
X169869245Y-61223796D01*
X169844977Y-61220196D01*
X169821178Y-61214235D01*
X169798079Y-61205970D01*
X169775900Y-61195480D01*
X169754857Y-61182868D01*
X169735151Y-61168253D01*
X169716973Y-61151777D01*
X169700497Y-61133599D01*
X169685882Y-61113893D01*
X169673270Y-61092850D01*
X169662780Y-61070671D01*
X169654515Y-61047572D01*
X169648554Y-61023773D01*
X169644954Y-60999505D01*
X169643750Y-60975001D01*
X169643750Y-60324999D01*
X169644954Y-60300495D01*
X169648554Y-60276227D01*
X169654515Y-60252428D01*
X169662780Y-60229329D01*
X169673270Y-60207150D01*
X169685882Y-60186107D01*
X169700497Y-60166401D01*
X169716973Y-60148223D01*
X169735151Y-60131747D01*
X169754857Y-60117132D01*
X169775900Y-60104520D01*
X169798079Y-60094030D01*
X169821178Y-60085765D01*
X169844977Y-60079804D01*
X169869245Y-60076204D01*
X169893749Y-60075000D01*
X170793751Y-60075000D01*
X170818255Y-60076204D01*
G37*
G36*
X170818255Y-58026204D02*
G01*
X170842523Y-58029804D01*
X170866322Y-58035765D01*
X170889421Y-58044030D01*
X170911600Y-58054520D01*
X170932643Y-58067132D01*
X170952349Y-58081747D01*
X170970527Y-58098223D01*
X170987003Y-58116401D01*
X171001618Y-58136107D01*
X171014230Y-58157150D01*
X171024720Y-58179329D01*
X171032985Y-58202428D01*
X171038946Y-58226227D01*
X171042546Y-58250495D01*
X171043750Y-58274999D01*
X171043750Y-58925001D01*
X171042546Y-58949505D01*
X171038946Y-58973773D01*
X171032985Y-58997572D01*
X171024720Y-59020671D01*
X171014230Y-59042850D01*
X171001618Y-59063893D01*
X170987003Y-59083599D01*
X170970527Y-59101777D01*
X170952349Y-59118253D01*
X170932643Y-59132868D01*
X170911600Y-59145480D01*
X170889421Y-59155970D01*
X170866322Y-59164235D01*
X170842523Y-59170196D01*
X170818255Y-59173796D01*
X170793751Y-59175000D01*
X169893749Y-59175000D01*
X169869245Y-59173796D01*
X169844977Y-59170196D01*
X169821178Y-59164235D01*
X169798079Y-59155970D01*
X169775900Y-59145480D01*
X169754857Y-59132868D01*
X169735151Y-59118253D01*
X169716973Y-59101777D01*
X169700497Y-59083599D01*
X169685882Y-59063893D01*
X169673270Y-59042850D01*
X169662780Y-59020671D01*
X169654515Y-58997572D01*
X169648554Y-58973773D01*
X169644954Y-58949505D01*
X169643750Y-58925001D01*
X169643750Y-58274999D01*
X169644954Y-58250495D01*
X169648554Y-58226227D01*
X169654515Y-58202428D01*
X169662780Y-58179329D01*
X169673270Y-58157150D01*
X169685882Y-58136107D01*
X169700497Y-58116401D01*
X169716973Y-58098223D01*
X169735151Y-58081747D01*
X169754857Y-58067132D01*
X169775900Y-58054520D01*
X169798079Y-58044030D01*
X169821178Y-58035765D01*
X169844977Y-58029804D01*
X169869245Y-58026204D01*
X169893749Y-58025000D01*
X170793751Y-58025000D01*
X170818255Y-58026204D01*
G37*
G36*
X144849505Y-59413704D02*
G01*
X144873773Y-59417304D01*
X144897572Y-59423265D01*
X144920671Y-59431530D01*
X144942850Y-59442020D01*
X144963893Y-59454632D01*
X144983599Y-59469247D01*
X145001777Y-59485723D01*
X145018253Y-59503901D01*
X145032868Y-59523607D01*
X145045480Y-59544650D01*
X145055970Y-59566829D01*
X145064235Y-59589928D01*
X145070196Y-59613727D01*
X145073796Y-59637995D01*
X145075000Y-59662499D01*
X145075000Y-60312501D01*
X145073796Y-60337005D01*
X145070196Y-60361273D01*
X145064235Y-60385072D01*
X145055970Y-60408171D01*
X145045480Y-60430350D01*
X145032868Y-60451393D01*
X145018253Y-60471099D01*
X145001777Y-60489277D01*
X144983599Y-60505753D01*
X144963893Y-60520368D01*
X144942850Y-60532980D01*
X144920671Y-60543470D01*
X144897572Y-60551735D01*
X144873773Y-60557696D01*
X144849505Y-60561296D01*
X144825001Y-60562500D01*
X143924999Y-60562500D01*
X143900495Y-60561296D01*
X143876227Y-60557696D01*
X143852428Y-60551735D01*
X143829329Y-60543470D01*
X143807150Y-60532980D01*
X143786107Y-60520368D01*
X143766401Y-60505753D01*
X143748223Y-60489277D01*
X143731747Y-60471099D01*
X143717132Y-60451393D01*
X143704520Y-60430350D01*
X143694030Y-60408171D01*
X143685765Y-60385072D01*
X143679804Y-60361273D01*
X143676204Y-60337005D01*
X143675000Y-60312501D01*
X143675000Y-59662499D01*
X143676204Y-59637995D01*
X143679804Y-59613727D01*
X143685765Y-59589928D01*
X143694030Y-59566829D01*
X143704520Y-59544650D01*
X143717132Y-59523607D01*
X143731747Y-59503901D01*
X143748223Y-59485723D01*
X143766401Y-59469247D01*
X143786107Y-59454632D01*
X143807150Y-59442020D01*
X143829329Y-59431530D01*
X143852428Y-59423265D01*
X143876227Y-59417304D01*
X143900495Y-59413704D01*
X143924999Y-59412500D01*
X144825001Y-59412500D01*
X144849505Y-59413704D01*
G37*
G36*
X144849505Y-57363704D02*
G01*
X144873773Y-57367304D01*
X144897572Y-57373265D01*
X144920671Y-57381530D01*
X144942850Y-57392020D01*
X144963893Y-57404632D01*
X144983599Y-57419247D01*
X145001777Y-57435723D01*
X145018253Y-57453901D01*
X145032868Y-57473607D01*
X145045480Y-57494650D01*
X145055970Y-57516829D01*
X145064235Y-57539928D01*
X145070196Y-57563727D01*
X145073796Y-57587995D01*
X145075000Y-57612499D01*
X145075000Y-58262501D01*
X145073796Y-58287005D01*
X145070196Y-58311273D01*
X145064235Y-58335072D01*
X145055970Y-58358171D01*
X145045480Y-58380350D01*
X145032868Y-58401393D01*
X145018253Y-58421099D01*
X145001777Y-58439277D01*
X144983599Y-58455753D01*
X144963893Y-58470368D01*
X144942850Y-58482980D01*
X144920671Y-58493470D01*
X144897572Y-58501735D01*
X144873773Y-58507696D01*
X144849505Y-58511296D01*
X144825001Y-58512500D01*
X143924999Y-58512500D01*
X143900495Y-58511296D01*
X143876227Y-58507696D01*
X143852428Y-58501735D01*
X143829329Y-58493470D01*
X143807150Y-58482980D01*
X143786107Y-58470368D01*
X143766401Y-58455753D01*
X143748223Y-58439277D01*
X143731747Y-58421099D01*
X143717132Y-58401393D01*
X143704520Y-58380350D01*
X143694030Y-58358171D01*
X143685765Y-58335072D01*
X143679804Y-58311273D01*
X143676204Y-58287005D01*
X143675000Y-58262501D01*
X143675000Y-57612499D01*
X143676204Y-57587995D01*
X143679804Y-57563727D01*
X143685765Y-57539928D01*
X143694030Y-57516829D01*
X143704520Y-57494650D01*
X143717132Y-57473607D01*
X143731747Y-57453901D01*
X143748223Y-57435723D01*
X143766401Y-57419247D01*
X143786107Y-57404632D01*
X143807150Y-57392020D01*
X143829329Y-57381530D01*
X143852428Y-57373265D01*
X143876227Y-57367304D01*
X143900495Y-57363704D01*
X143924999Y-57362500D01*
X144825001Y-57362500D01*
X144849505Y-57363704D01*
G37*
G36*
X144755755Y-51651204D02*
G01*
X144780023Y-51654804D01*
X144803822Y-51660765D01*
X144826921Y-51669030D01*
X144849100Y-51679520D01*
X144870143Y-51692132D01*
X144889849Y-51706747D01*
X144908027Y-51723223D01*
X144924503Y-51741401D01*
X144939118Y-51761107D01*
X144951730Y-51782150D01*
X144962220Y-51804329D01*
X144970485Y-51827428D01*
X144976446Y-51851227D01*
X144980046Y-51875495D01*
X144981250Y-51899999D01*
X144981250Y-52550001D01*
X144980046Y-52574505D01*
X144976446Y-52598773D01*
X144970485Y-52622572D01*
X144962220Y-52645671D01*
X144951730Y-52667850D01*
X144939118Y-52688893D01*
X144924503Y-52708599D01*
X144908027Y-52726777D01*
X144889849Y-52743253D01*
X144870143Y-52757868D01*
X144849100Y-52770480D01*
X144826921Y-52780970D01*
X144803822Y-52789235D01*
X144780023Y-52795196D01*
X144755755Y-52798796D01*
X144731251Y-52800000D01*
X143831249Y-52800000D01*
X143806745Y-52798796D01*
X143782477Y-52795196D01*
X143758678Y-52789235D01*
X143735579Y-52780970D01*
X143713400Y-52770480D01*
X143692357Y-52757868D01*
X143672651Y-52743253D01*
X143654473Y-52726777D01*
X143637997Y-52708599D01*
X143623382Y-52688893D01*
X143610770Y-52667850D01*
X143600280Y-52645671D01*
X143592015Y-52622572D01*
X143586054Y-52598773D01*
X143582454Y-52574505D01*
X143581250Y-52550001D01*
X143581250Y-51899999D01*
X143582454Y-51875495D01*
X143586054Y-51851227D01*
X143592015Y-51827428D01*
X143600280Y-51804329D01*
X143610770Y-51782150D01*
X143623382Y-51761107D01*
X143637997Y-51741401D01*
X143654473Y-51723223D01*
X143672651Y-51706747D01*
X143692357Y-51692132D01*
X143713400Y-51679520D01*
X143735579Y-51669030D01*
X143758678Y-51660765D01*
X143782477Y-51654804D01*
X143806745Y-51651204D01*
X143831249Y-51650000D01*
X144731251Y-51650000D01*
X144755755Y-51651204D01*
G37*
G36*
X144755755Y-53701204D02*
G01*
X144780023Y-53704804D01*
X144803822Y-53710765D01*
X144826921Y-53719030D01*
X144849100Y-53729520D01*
X144870143Y-53742132D01*
X144889849Y-53756747D01*
X144908027Y-53773223D01*
X144924503Y-53791401D01*
X144939118Y-53811107D01*
X144951730Y-53832150D01*
X144962220Y-53854329D01*
X144970485Y-53877428D01*
X144976446Y-53901227D01*
X144980046Y-53925495D01*
X144981250Y-53949999D01*
X144981250Y-54600001D01*
X144980046Y-54624505D01*
X144976446Y-54648773D01*
X144970485Y-54672572D01*
X144962220Y-54695671D01*
X144951730Y-54717850D01*
X144939118Y-54738893D01*
X144924503Y-54758599D01*
X144908027Y-54776777D01*
X144889849Y-54793253D01*
X144870143Y-54807868D01*
X144849100Y-54820480D01*
X144826921Y-54830970D01*
X144803822Y-54839235D01*
X144780023Y-54845196D01*
X144755755Y-54848796D01*
X144731251Y-54850000D01*
X143831249Y-54850000D01*
X143806745Y-54848796D01*
X143782477Y-54845196D01*
X143758678Y-54839235D01*
X143735579Y-54830970D01*
X143713400Y-54820480D01*
X143692357Y-54807868D01*
X143672651Y-54793253D01*
X143654473Y-54776777D01*
X143637997Y-54758599D01*
X143623382Y-54738893D01*
X143610770Y-54717850D01*
X143600280Y-54695671D01*
X143592015Y-54672572D01*
X143586054Y-54648773D01*
X143582454Y-54624505D01*
X143581250Y-54600001D01*
X143581250Y-53949999D01*
X143582454Y-53925495D01*
X143586054Y-53901227D01*
X143592015Y-53877428D01*
X143600280Y-53854329D01*
X143610770Y-53832150D01*
X143623382Y-53811107D01*
X143637997Y-53791401D01*
X143654473Y-53773223D01*
X143672651Y-53756747D01*
X143692357Y-53742132D01*
X143713400Y-53729520D01*
X143735579Y-53719030D01*
X143758678Y-53710765D01*
X143782477Y-53704804D01*
X143806745Y-53701204D01*
X143831249Y-53700000D01*
X144731251Y-53700000D01*
X144755755Y-53701204D01*
G37*
G36*
X144746505Y-68260204D02*
G01*
X144770773Y-68263804D01*
X144794572Y-68269765D01*
X144817671Y-68278030D01*
X144839850Y-68288520D01*
X144860893Y-68301132D01*
X144880599Y-68315747D01*
X144898777Y-68332223D01*
X144915253Y-68350401D01*
X144929868Y-68370107D01*
X144942480Y-68391150D01*
X144952970Y-68413329D01*
X144961235Y-68436428D01*
X144967196Y-68460227D01*
X144970796Y-68484495D01*
X144972000Y-68508999D01*
X144972000Y-69159001D01*
X144970796Y-69183505D01*
X144967196Y-69207773D01*
X144961235Y-69231572D01*
X144952970Y-69254671D01*
X144942480Y-69276850D01*
X144929868Y-69297893D01*
X144915253Y-69317599D01*
X144898777Y-69335777D01*
X144880599Y-69352253D01*
X144860893Y-69366868D01*
X144839850Y-69379480D01*
X144817671Y-69389970D01*
X144794572Y-69398235D01*
X144770773Y-69404196D01*
X144746505Y-69407796D01*
X144722001Y-69409000D01*
X143821999Y-69409000D01*
X143797495Y-69407796D01*
X143773227Y-69404196D01*
X143749428Y-69398235D01*
X143726329Y-69389970D01*
X143704150Y-69379480D01*
X143683107Y-69366868D01*
X143663401Y-69352253D01*
X143645223Y-69335777D01*
X143628747Y-69317599D01*
X143614132Y-69297893D01*
X143601520Y-69276850D01*
X143591030Y-69254671D01*
X143582765Y-69231572D01*
X143576804Y-69207773D01*
X143573204Y-69183505D01*
X143572000Y-69159001D01*
X143572000Y-68508999D01*
X143573204Y-68484495D01*
X143576804Y-68460227D01*
X143582765Y-68436428D01*
X143591030Y-68413329D01*
X143601520Y-68391150D01*
X143614132Y-68370107D01*
X143628747Y-68350401D01*
X143645223Y-68332223D01*
X143663401Y-68315747D01*
X143683107Y-68301132D01*
X143704150Y-68288520D01*
X143726329Y-68278030D01*
X143749428Y-68269765D01*
X143773227Y-68263804D01*
X143797495Y-68260204D01*
X143821999Y-68259000D01*
X144722001Y-68259000D01*
X144746505Y-68260204D01*
G37*
G36*
X144746505Y-66210204D02*
G01*
X144770773Y-66213804D01*
X144794572Y-66219765D01*
X144817671Y-66228030D01*
X144839850Y-66238520D01*
X144860893Y-66251132D01*
X144880599Y-66265747D01*
X144898777Y-66282223D01*
X144915253Y-66300401D01*
X144929868Y-66320107D01*
X144942480Y-66341150D01*
X144952970Y-66363329D01*
X144961235Y-66386428D01*
X144967196Y-66410227D01*
X144970796Y-66434495D01*
X144972000Y-66458999D01*
X144972000Y-67109001D01*
X144970796Y-67133505D01*
X144967196Y-67157773D01*
X144961235Y-67181572D01*
X144952970Y-67204671D01*
X144942480Y-67226850D01*
X144929868Y-67247893D01*
X144915253Y-67267599D01*
X144898777Y-67285777D01*
X144880599Y-67302253D01*
X144860893Y-67316868D01*
X144839850Y-67329480D01*
X144817671Y-67339970D01*
X144794572Y-67348235D01*
X144770773Y-67354196D01*
X144746505Y-67357796D01*
X144722001Y-67359000D01*
X143821999Y-67359000D01*
X143797495Y-67357796D01*
X143773227Y-67354196D01*
X143749428Y-67348235D01*
X143726329Y-67339970D01*
X143704150Y-67329480D01*
X143683107Y-67316868D01*
X143663401Y-67302253D01*
X143645223Y-67285777D01*
X143628747Y-67267599D01*
X143614132Y-67247893D01*
X143601520Y-67226850D01*
X143591030Y-67204671D01*
X143582765Y-67181572D01*
X143576804Y-67157773D01*
X143573204Y-67133505D01*
X143572000Y-67109001D01*
X143572000Y-66458999D01*
X143573204Y-66434495D01*
X143576804Y-66410227D01*
X143582765Y-66386428D01*
X143591030Y-66363329D01*
X143601520Y-66341150D01*
X143614132Y-66320107D01*
X143628747Y-66300401D01*
X143645223Y-66282223D01*
X143663401Y-66265747D01*
X143683107Y-66251132D01*
X143704150Y-66238520D01*
X143726329Y-66228030D01*
X143749428Y-66219765D01*
X143773227Y-66213804D01*
X143797495Y-66210204D01*
X143821999Y-66209000D01*
X144722001Y-66209000D01*
X144746505Y-66210204D01*
G37*
G36*
X144746505Y-61892204D02*
G01*
X144770773Y-61895804D01*
X144794572Y-61901765D01*
X144817671Y-61910030D01*
X144839850Y-61920520D01*
X144860893Y-61933132D01*
X144880599Y-61947747D01*
X144898777Y-61964223D01*
X144915253Y-61982401D01*
X144929868Y-62002107D01*
X144942480Y-62023150D01*
X144952970Y-62045329D01*
X144961235Y-62068428D01*
X144967196Y-62092227D01*
X144970796Y-62116495D01*
X144972000Y-62140999D01*
X144972000Y-62791001D01*
X144970796Y-62815505D01*
X144967196Y-62839773D01*
X144961235Y-62863572D01*
X144952970Y-62886671D01*
X144942480Y-62908850D01*
X144929868Y-62929893D01*
X144915253Y-62949599D01*
X144898777Y-62967777D01*
X144880599Y-62984253D01*
X144860893Y-62998868D01*
X144839850Y-63011480D01*
X144817671Y-63021970D01*
X144794572Y-63030235D01*
X144770773Y-63036196D01*
X144746505Y-63039796D01*
X144722001Y-63041000D01*
X143821999Y-63041000D01*
X143797495Y-63039796D01*
X143773227Y-63036196D01*
X143749428Y-63030235D01*
X143726329Y-63021970D01*
X143704150Y-63011480D01*
X143683107Y-62998868D01*
X143663401Y-62984253D01*
X143645223Y-62967777D01*
X143628747Y-62949599D01*
X143614132Y-62929893D01*
X143601520Y-62908850D01*
X143591030Y-62886671D01*
X143582765Y-62863572D01*
X143576804Y-62839773D01*
X143573204Y-62815505D01*
X143572000Y-62791001D01*
X143572000Y-62140999D01*
X143573204Y-62116495D01*
X143576804Y-62092227D01*
X143582765Y-62068428D01*
X143591030Y-62045329D01*
X143601520Y-62023150D01*
X143614132Y-62002107D01*
X143628747Y-61982401D01*
X143645223Y-61964223D01*
X143663401Y-61947747D01*
X143683107Y-61933132D01*
X143704150Y-61920520D01*
X143726329Y-61910030D01*
X143749428Y-61901765D01*
X143773227Y-61895804D01*
X143797495Y-61892204D01*
X143821999Y-61891000D01*
X144722001Y-61891000D01*
X144746505Y-61892204D01*
G37*
G36*
X144746505Y-63942204D02*
G01*
X144770773Y-63945804D01*
X144794572Y-63951765D01*
X144817671Y-63960030D01*
X144839850Y-63970520D01*
X144860893Y-63983132D01*
X144880599Y-63997747D01*
X144898777Y-64014223D01*
X144915253Y-64032401D01*
X144929868Y-64052107D01*
X144942480Y-64073150D01*
X144952970Y-64095329D01*
X144961235Y-64118428D01*
X144967196Y-64142227D01*
X144970796Y-64166495D01*
X144972000Y-64190999D01*
X144972000Y-64841001D01*
X144970796Y-64865505D01*
X144967196Y-64889773D01*
X144961235Y-64913572D01*
X144952970Y-64936671D01*
X144942480Y-64958850D01*
X144929868Y-64979893D01*
X144915253Y-64999599D01*
X144898777Y-65017777D01*
X144880599Y-65034253D01*
X144860893Y-65048868D01*
X144839850Y-65061480D01*
X144817671Y-65071970D01*
X144794572Y-65080235D01*
X144770773Y-65086196D01*
X144746505Y-65089796D01*
X144722001Y-65091000D01*
X143821999Y-65091000D01*
X143797495Y-65089796D01*
X143773227Y-65086196D01*
X143749428Y-65080235D01*
X143726329Y-65071970D01*
X143704150Y-65061480D01*
X143683107Y-65048868D01*
X143663401Y-65034253D01*
X143645223Y-65017777D01*
X143628747Y-64999599D01*
X143614132Y-64979893D01*
X143601520Y-64958850D01*
X143591030Y-64936671D01*
X143582765Y-64913572D01*
X143576804Y-64889773D01*
X143573204Y-64865505D01*
X143572000Y-64841001D01*
X143572000Y-64190999D01*
X143573204Y-64166495D01*
X143576804Y-64142227D01*
X143582765Y-64118428D01*
X143591030Y-64095329D01*
X143601520Y-64073150D01*
X143614132Y-64052107D01*
X143628747Y-64032401D01*
X143645223Y-64014223D01*
X143663401Y-63997747D01*
X143683107Y-63983132D01*
X143704150Y-63970520D01*
X143726329Y-63960030D01*
X143749428Y-63951765D01*
X143773227Y-63945804D01*
X143797495Y-63942204D01*
X143821999Y-63941000D01*
X144722001Y-63941000D01*
X144746505Y-63942204D01*
G37*
D11*
X112968750Y-59343750D03*
X109818750Y-59343750D03*
X112781250Y-79312500D03*
X109631250Y-79312500D03*
X129787500Y-59343750D03*
X132937500Y-59343750D03*
X129675000Y-79312500D03*
X132825000Y-79312500D03*
D12*
X124081250Y-45706250D03*
X118731250Y-45706250D03*
D13*
X119806250Y-50906250D03*
X120606250Y-50906250D03*
X121406250Y-50906250D03*
X122206250Y-50906250D03*
X123006250Y-50906250D03*
D14*
X117756250Y-48506250D03*
X125056250Y-48506250D03*
D10*
G36*
X144849505Y-76963704D02*
G01*
X144873773Y-76967304D01*
X144897572Y-76973265D01*
X144920671Y-76981530D01*
X144942850Y-76992020D01*
X144963893Y-77004632D01*
X144983599Y-77019247D01*
X145001777Y-77035723D01*
X145018253Y-77053901D01*
X145032868Y-77073607D01*
X145045480Y-77094650D01*
X145055970Y-77116829D01*
X145064235Y-77139928D01*
X145070196Y-77163727D01*
X145073796Y-77187995D01*
X145075000Y-77212499D01*
X145075000Y-77862501D01*
X145073796Y-77887005D01*
X145070196Y-77911273D01*
X145064235Y-77935072D01*
X145055970Y-77958171D01*
X145045480Y-77980350D01*
X145032868Y-78001393D01*
X145018253Y-78021099D01*
X145001777Y-78039277D01*
X144983599Y-78055753D01*
X144963893Y-78070368D01*
X144942850Y-78082980D01*
X144920671Y-78093470D01*
X144897572Y-78101735D01*
X144873773Y-78107696D01*
X144849505Y-78111296D01*
X144825001Y-78112500D01*
X143924999Y-78112500D01*
X143900495Y-78111296D01*
X143876227Y-78107696D01*
X143852428Y-78101735D01*
X143829329Y-78093470D01*
X143807150Y-78082980D01*
X143786107Y-78070368D01*
X143766401Y-78055753D01*
X143748223Y-78039277D01*
X143731747Y-78021099D01*
X143717132Y-78001393D01*
X143704520Y-77980350D01*
X143694030Y-77958171D01*
X143685765Y-77935072D01*
X143679804Y-77911273D01*
X143676204Y-77887005D01*
X143675000Y-77862501D01*
X143675000Y-77212499D01*
X143676204Y-77187995D01*
X143679804Y-77163727D01*
X143685765Y-77139928D01*
X143694030Y-77116829D01*
X143704520Y-77094650D01*
X143717132Y-77073607D01*
X143731747Y-77053901D01*
X143748223Y-77035723D01*
X143766401Y-77019247D01*
X143786107Y-77004632D01*
X143807150Y-76992020D01*
X143829329Y-76981530D01*
X143852428Y-76973265D01*
X143876227Y-76967304D01*
X143900495Y-76963704D01*
X143924999Y-76962500D01*
X144825001Y-76962500D01*
X144849505Y-76963704D01*
G37*
G36*
X144849505Y-79013704D02*
G01*
X144873773Y-79017304D01*
X144897572Y-79023265D01*
X144920671Y-79031530D01*
X144942850Y-79042020D01*
X144963893Y-79054632D01*
X144983599Y-79069247D01*
X145001777Y-79085723D01*
X145018253Y-79103901D01*
X145032868Y-79123607D01*
X145045480Y-79144650D01*
X145055970Y-79166829D01*
X145064235Y-79189928D01*
X145070196Y-79213727D01*
X145073796Y-79237995D01*
X145075000Y-79262499D01*
X145075000Y-79912501D01*
X145073796Y-79937005D01*
X145070196Y-79961273D01*
X145064235Y-79985072D01*
X145055970Y-80008171D01*
X145045480Y-80030350D01*
X145032868Y-80051393D01*
X145018253Y-80071099D01*
X145001777Y-80089277D01*
X144983599Y-80105753D01*
X144963893Y-80120368D01*
X144942850Y-80132980D01*
X144920671Y-80143470D01*
X144897572Y-80151735D01*
X144873773Y-80157696D01*
X144849505Y-80161296D01*
X144825001Y-80162500D01*
X143924999Y-80162500D01*
X143900495Y-80161296D01*
X143876227Y-80157696D01*
X143852428Y-80151735D01*
X143829329Y-80143470D01*
X143807150Y-80132980D01*
X143786107Y-80120368D01*
X143766401Y-80105753D01*
X143748223Y-80089277D01*
X143731747Y-80071099D01*
X143717132Y-80051393D01*
X143704520Y-80030350D01*
X143694030Y-80008171D01*
X143685765Y-79985072D01*
X143679804Y-79961273D01*
X143676204Y-79937005D01*
X143675000Y-79912501D01*
X143675000Y-79262499D01*
X143676204Y-79237995D01*
X143679804Y-79213727D01*
X143685765Y-79189928D01*
X143694030Y-79166829D01*
X143704520Y-79144650D01*
X143717132Y-79123607D01*
X143731747Y-79103901D01*
X143748223Y-79085723D01*
X143766401Y-79069247D01*
X143786107Y-79054632D01*
X143807150Y-79042020D01*
X143829329Y-79031530D01*
X143852428Y-79023265D01*
X143876227Y-79017304D01*
X143900495Y-79013704D01*
X143924999Y-79012500D01*
X144825001Y-79012500D01*
X144849505Y-79013704D01*
G37*
G36*
X170818255Y-62807454D02*
G01*
X170842523Y-62811054D01*
X170866322Y-62817015D01*
X170889421Y-62825280D01*
X170911600Y-62835770D01*
X170932643Y-62848382D01*
X170952349Y-62862997D01*
X170970527Y-62879473D01*
X170987003Y-62897651D01*
X171001618Y-62917357D01*
X171014230Y-62938400D01*
X171024720Y-62960579D01*
X171032985Y-62983678D01*
X171038946Y-63007477D01*
X171042546Y-63031745D01*
X171043750Y-63056249D01*
X171043750Y-63706251D01*
X171042546Y-63730755D01*
X171038946Y-63755023D01*
X171032985Y-63778822D01*
X171024720Y-63801921D01*
X171014230Y-63824100D01*
X171001618Y-63845143D01*
X170987003Y-63864849D01*
X170970527Y-63883027D01*
X170952349Y-63899503D01*
X170932643Y-63914118D01*
X170911600Y-63926730D01*
X170889421Y-63937220D01*
X170866322Y-63945485D01*
X170842523Y-63951446D01*
X170818255Y-63955046D01*
X170793751Y-63956250D01*
X169893749Y-63956250D01*
X169869245Y-63955046D01*
X169844977Y-63951446D01*
X169821178Y-63945485D01*
X169798079Y-63937220D01*
X169775900Y-63926730D01*
X169754857Y-63914118D01*
X169735151Y-63899503D01*
X169716973Y-63883027D01*
X169700497Y-63864849D01*
X169685882Y-63845143D01*
X169673270Y-63824100D01*
X169662780Y-63801921D01*
X169654515Y-63778822D01*
X169648554Y-63755023D01*
X169644954Y-63730755D01*
X169643750Y-63706251D01*
X169643750Y-63056249D01*
X169644954Y-63031745D01*
X169648554Y-63007477D01*
X169654515Y-62983678D01*
X169662780Y-62960579D01*
X169673270Y-62938400D01*
X169685882Y-62917357D01*
X169700497Y-62897651D01*
X169716973Y-62879473D01*
X169735151Y-62862997D01*
X169754857Y-62848382D01*
X169775900Y-62835770D01*
X169798079Y-62825280D01*
X169821178Y-62817015D01*
X169844977Y-62811054D01*
X169869245Y-62807454D01*
X169893749Y-62806250D01*
X170793751Y-62806250D01*
X170818255Y-62807454D01*
G37*
G36*
X170818255Y-64857454D02*
G01*
X170842523Y-64861054D01*
X170866322Y-64867015D01*
X170889421Y-64875280D01*
X170911600Y-64885770D01*
X170932643Y-64898382D01*
X170952349Y-64912997D01*
X170970527Y-64929473D01*
X170987003Y-64947651D01*
X171001618Y-64967357D01*
X171014230Y-64988400D01*
X171024720Y-65010579D01*
X171032985Y-65033678D01*
X171038946Y-65057477D01*
X171042546Y-65081745D01*
X171043750Y-65106249D01*
X171043750Y-65756251D01*
X171042546Y-65780755D01*
X171038946Y-65805023D01*
X171032985Y-65828822D01*
X171024720Y-65851921D01*
X171014230Y-65874100D01*
X171001618Y-65895143D01*
X170987003Y-65914849D01*
X170970527Y-65933027D01*
X170952349Y-65949503D01*
X170932643Y-65964118D01*
X170911600Y-65976730D01*
X170889421Y-65987220D01*
X170866322Y-65995485D01*
X170842523Y-66001446D01*
X170818255Y-66005046D01*
X170793751Y-66006250D01*
X169893749Y-66006250D01*
X169869245Y-66005046D01*
X169844977Y-66001446D01*
X169821178Y-65995485D01*
X169798079Y-65987220D01*
X169775900Y-65976730D01*
X169754857Y-65964118D01*
X169735151Y-65949503D01*
X169716973Y-65933027D01*
X169700497Y-65914849D01*
X169685882Y-65895143D01*
X169673270Y-65874100D01*
X169662780Y-65851921D01*
X169654515Y-65828822D01*
X169648554Y-65805023D01*
X169644954Y-65780755D01*
X169643750Y-65756251D01*
X169643750Y-65106249D01*
X169644954Y-65081745D01*
X169648554Y-65057477D01*
X169654515Y-65033678D01*
X169662780Y-65010579D01*
X169673270Y-64988400D01*
X169685882Y-64967357D01*
X169700497Y-64947651D01*
X169716973Y-64929473D01*
X169735151Y-64912997D01*
X169754857Y-64898382D01*
X169775900Y-64885770D01*
X169798079Y-64875280D01*
X169821178Y-64867015D01*
X169844977Y-64861054D01*
X169869245Y-64857454D01*
X169893749Y-64856250D01*
X170793751Y-64856250D01*
X170818255Y-64857454D01*
G37*
G36*
X147174505Y-46551204D02*
G01*
X147198773Y-46554804D01*
X147222572Y-46560765D01*
X147245671Y-46569030D01*
X147267850Y-46579520D01*
X147288893Y-46592132D01*
X147308599Y-46606747D01*
X147326777Y-46623223D01*
X147343253Y-46641401D01*
X147357868Y-46661107D01*
X147370480Y-46682150D01*
X147380970Y-46704329D01*
X147389235Y-46727428D01*
X147395196Y-46751227D01*
X147398796Y-46775495D01*
X147400000Y-46799999D01*
X147400000Y-47700001D01*
X147398796Y-47724505D01*
X147395196Y-47748773D01*
X147389235Y-47772572D01*
X147380970Y-47795671D01*
X147370480Y-47817850D01*
X147357868Y-47838893D01*
X147343253Y-47858599D01*
X147326777Y-47876777D01*
X147308599Y-47893253D01*
X147288893Y-47907868D01*
X147267850Y-47920480D01*
X147245671Y-47930970D01*
X147222572Y-47939235D01*
X147198773Y-47945196D01*
X147174505Y-47948796D01*
X147150001Y-47950000D01*
X146499999Y-47950000D01*
X146475495Y-47948796D01*
X146451227Y-47945196D01*
X146427428Y-47939235D01*
X146404329Y-47930970D01*
X146382150Y-47920480D01*
X146361107Y-47907868D01*
X146341401Y-47893253D01*
X146323223Y-47876777D01*
X146306747Y-47858599D01*
X146292132Y-47838893D01*
X146279520Y-47817850D01*
X146269030Y-47795671D01*
X146260765Y-47772572D01*
X146254804Y-47748773D01*
X146251204Y-47724505D01*
X146250000Y-47700001D01*
X146250000Y-46799999D01*
X146251204Y-46775495D01*
X146254804Y-46751227D01*
X146260765Y-46727428D01*
X146269030Y-46704329D01*
X146279520Y-46682150D01*
X146292132Y-46661107D01*
X146306747Y-46641401D01*
X146323223Y-46623223D01*
X146341401Y-46606747D01*
X146361107Y-46592132D01*
X146382150Y-46579520D01*
X146404329Y-46569030D01*
X146427428Y-46560765D01*
X146451227Y-46554804D01*
X146475495Y-46551204D01*
X146499999Y-46550000D01*
X147150001Y-46550000D01*
X147174505Y-46551204D01*
G37*
G36*
X149224505Y-46551204D02*
G01*
X149248773Y-46554804D01*
X149272572Y-46560765D01*
X149295671Y-46569030D01*
X149317850Y-46579520D01*
X149338893Y-46592132D01*
X149358599Y-46606747D01*
X149376777Y-46623223D01*
X149393253Y-46641401D01*
X149407868Y-46661107D01*
X149420480Y-46682150D01*
X149430970Y-46704329D01*
X149439235Y-46727428D01*
X149445196Y-46751227D01*
X149448796Y-46775495D01*
X149450000Y-46799999D01*
X149450000Y-47700001D01*
X149448796Y-47724505D01*
X149445196Y-47748773D01*
X149439235Y-47772572D01*
X149430970Y-47795671D01*
X149420480Y-47817850D01*
X149407868Y-47838893D01*
X149393253Y-47858599D01*
X149376777Y-47876777D01*
X149358599Y-47893253D01*
X149338893Y-47907868D01*
X149317850Y-47920480D01*
X149295671Y-47930970D01*
X149272572Y-47939235D01*
X149248773Y-47945196D01*
X149224505Y-47948796D01*
X149200001Y-47950000D01*
X148549999Y-47950000D01*
X148525495Y-47948796D01*
X148501227Y-47945196D01*
X148477428Y-47939235D01*
X148454329Y-47930970D01*
X148432150Y-47920480D01*
X148411107Y-47907868D01*
X148391401Y-47893253D01*
X148373223Y-47876777D01*
X148356747Y-47858599D01*
X148342132Y-47838893D01*
X148329520Y-47817850D01*
X148319030Y-47795671D01*
X148310765Y-47772572D01*
X148304804Y-47748773D01*
X148301204Y-47724505D01*
X148300000Y-47700001D01*
X148300000Y-46799999D01*
X148301204Y-46775495D01*
X148304804Y-46751227D01*
X148310765Y-46727428D01*
X148319030Y-46704329D01*
X148329520Y-46682150D01*
X148342132Y-46661107D01*
X148356747Y-46641401D01*
X148373223Y-46623223D01*
X148391401Y-46606747D01*
X148411107Y-46592132D01*
X148432150Y-46579520D01*
X148454329Y-46569030D01*
X148477428Y-46560765D01*
X148501227Y-46554804D01*
X148525495Y-46551204D01*
X148549999Y-46550000D01*
X149200001Y-46550000D01*
X149224505Y-46551204D01*
G37*
G36*
X157380755Y-46551204D02*
G01*
X157405023Y-46554804D01*
X157428822Y-46560765D01*
X157451921Y-46569030D01*
X157474100Y-46579520D01*
X157495143Y-46592132D01*
X157514849Y-46606747D01*
X157533027Y-46623223D01*
X157549503Y-46641401D01*
X157564118Y-46661107D01*
X157576730Y-46682150D01*
X157587220Y-46704329D01*
X157595485Y-46727428D01*
X157601446Y-46751227D01*
X157605046Y-46775495D01*
X157606250Y-46799999D01*
X157606250Y-47700001D01*
X157605046Y-47724505D01*
X157601446Y-47748773D01*
X157595485Y-47772572D01*
X157587220Y-47795671D01*
X157576730Y-47817850D01*
X157564118Y-47838893D01*
X157549503Y-47858599D01*
X157533027Y-47876777D01*
X157514849Y-47893253D01*
X157495143Y-47907868D01*
X157474100Y-47920480D01*
X157451921Y-47930970D01*
X157428822Y-47939235D01*
X157405023Y-47945196D01*
X157380755Y-47948796D01*
X157356251Y-47950000D01*
X156706249Y-47950000D01*
X156681745Y-47948796D01*
X156657477Y-47945196D01*
X156633678Y-47939235D01*
X156610579Y-47930970D01*
X156588400Y-47920480D01*
X156567357Y-47907868D01*
X156547651Y-47893253D01*
X156529473Y-47876777D01*
X156512997Y-47858599D01*
X156498382Y-47838893D01*
X156485770Y-47817850D01*
X156475280Y-47795671D01*
X156467015Y-47772572D01*
X156461054Y-47748773D01*
X156457454Y-47724505D01*
X156456250Y-47700001D01*
X156456250Y-46799999D01*
X156457454Y-46775495D01*
X156461054Y-46751227D01*
X156467015Y-46727428D01*
X156475280Y-46704329D01*
X156485770Y-46682150D01*
X156498382Y-46661107D01*
X156512997Y-46641401D01*
X156529473Y-46623223D01*
X156547651Y-46606747D01*
X156567357Y-46592132D01*
X156588400Y-46579520D01*
X156610579Y-46569030D01*
X156633678Y-46560765D01*
X156657477Y-46554804D01*
X156681745Y-46551204D01*
X156706249Y-46550000D01*
X157356251Y-46550000D01*
X157380755Y-46551204D01*
G37*
G36*
X155330755Y-46551204D02*
G01*
X155355023Y-46554804D01*
X155378822Y-46560765D01*
X155401921Y-46569030D01*
X155424100Y-46579520D01*
X155445143Y-46592132D01*
X155464849Y-46606747D01*
X155483027Y-46623223D01*
X155499503Y-46641401D01*
X155514118Y-46661107D01*
X155526730Y-46682150D01*
X155537220Y-46704329D01*
X155545485Y-46727428D01*
X155551446Y-46751227D01*
X155555046Y-46775495D01*
X155556250Y-46799999D01*
X155556250Y-47700001D01*
X155555046Y-47724505D01*
X155551446Y-47748773D01*
X155545485Y-47772572D01*
X155537220Y-47795671D01*
X155526730Y-47817850D01*
X155514118Y-47838893D01*
X155499503Y-47858599D01*
X155483027Y-47876777D01*
X155464849Y-47893253D01*
X155445143Y-47907868D01*
X155424100Y-47920480D01*
X155401921Y-47930970D01*
X155378822Y-47939235D01*
X155355023Y-47945196D01*
X155330755Y-47948796D01*
X155306251Y-47950000D01*
X154656249Y-47950000D01*
X154631745Y-47948796D01*
X154607477Y-47945196D01*
X154583678Y-47939235D01*
X154560579Y-47930970D01*
X154538400Y-47920480D01*
X154517357Y-47907868D01*
X154497651Y-47893253D01*
X154479473Y-47876777D01*
X154462997Y-47858599D01*
X154448382Y-47838893D01*
X154435770Y-47817850D01*
X154425280Y-47795671D01*
X154417015Y-47772572D01*
X154411054Y-47748773D01*
X154407454Y-47724505D01*
X154406250Y-47700001D01*
X154406250Y-46799999D01*
X154407454Y-46775495D01*
X154411054Y-46751227D01*
X154417015Y-46727428D01*
X154425280Y-46704329D01*
X154435770Y-46682150D01*
X154448382Y-46661107D01*
X154462997Y-46641401D01*
X154479473Y-46623223D01*
X154497651Y-46606747D01*
X154517357Y-46592132D01*
X154538400Y-46579520D01*
X154560579Y-46569030D01*
X154583678Y-46560765D01*
X154607477Y-46554804D01*
X154631745Y-46551204D01*
X154656249Y-46550000D01*
X155306251Y-46550000D01*
X155330755Y-46551204D01*
G37*
D15*
X154162500Y-79712500D03*
X160462500Y-79712500D03*
X154162500Y-75912500D03*
X160462500Y-75912500D03*
D16*
X152855950Y-70240400D03*
X153643350Y-70240400D03*
X154456150Y-70240400D03*
X155243550Y-70240400D03*
X156056350Y-70240400D03*
X156843750Y-70240400D03*
X157631150Y-70240400D03*
X158443950Y-70240400D03*
X159231350Y-70240400D03*
X160044150Y-70240400D03*
X160831550Y-70240400D03*
D17*
X162584150Y-68487800D03*
X162584150Y-67700400D03*
X162584150Y-66887600D03*
X162584150Y-66100200D03*
X162584150Y-65287400D03*
X162584150Y-64500000D03*
X162584150Y-63712600D03*
X162584150Y-62899800D03*
X162584150Y-62112400D03*
X162584150Y-61299600D03*
X162584150Y-60512200D03*
D16*
X160831550Y-58759600D03*
X160044150Y-58759600D03*
X159231350Y-58759600D03*
X158443950Y-58759600D03*
X157631150Y-58759600D03*
X156843750Y-58759600D03*
X156056350Y-58759600D03*
X155243550Y-58759600D03*
X154456150Y-58759600D03*
X153643350Y-58759600D03*
X152855950Y-58759600D03*
D17*
X151103350Y-60512200D03*
X151103350Y-61299600D03*
X151103350Y-62112400D03*
X151103350Y-62899800D03*
X151103350Y-63712600D03*
X151103350Y-64500000D03*
X151103350Y-65287400D03*
X151103350Y-66100200D03*
X151103350Y-66887600D03*
X151103350Y-67700400D03*
X151103350Y-68487800D03*
D10*
G36*
X155586033Y-54312253D02*
G01*
X154737505Y-53463725D01*
X155727455Y-52473775D01*
X156575983Y-53322303D01*
X155586033Y-54312253D01*
G37*
G36*
X157141668Y-52756618D02*
G01*
X156293140Y-51908090D01*
X157283090Y-50918140D01*
X158131618Y-51766668D01*
X157141668Y-52756618D01*
G37*
G36*
X156717404Y-55443624D02*
G01*
X155868876Y-54595096D01*
X156858826Y-53605146D01*
X157707354Y-54453674D01*
X156717404Y-55443624D01*
G37*
G36*
X158273039Y-53887989D02*
G01*
X157424511Y-53039461D01*
X158414461Y-52049511D01*
X159262989Y-52898039D01*
X158273039Y-53887989D01*
G37*
M02*
