G04 #@! TF.GenerationSoftware,KiCad,Pcbnew,(5.1.5)-3*
G04 #@! TF.CreationDate,2020-04-12T12:06:53+02:00*
G04 #@! TF.ProjectId,4Keys,344b6579-732e-46b6-9963-61645f706362,rev?*
G04 #@! TF.SameCoordinates,Original*
G04 #@! TF.FileFunction,Soldermask,Bot*
G04 #@! TF.FilePolarity,Negative*
%FSLAX46Y46*%
G04 Gerber Fmt 4.6, Leading zero omitted, Abs format (unit mm)*
G04 Created by KiCad (PCBNEW (5.1.5)-3) date 2020-04-12 12:06:53*
%MOMM*%
%LPD*%
G04 APERTURE LIST*
%ADD10C,0.100000*%
G04 APERTURE END LIST*
D10*
G36*
X171321487Y-82060996D02*
G01*
X171558253Y-82159068D01*
X171558255Y-82159069D01*
X171771339Y-82301447D01*
X171952553Y-82482661D01*
X172094932Y-82695747D01*
X172193004Y-82932513D01*
X172243000Y-83183861D01*
X172243000Y-83440139D01*
X172193004Y-83691487D01*
X172094932Y-83928253D01*
X172094931Y-83928255D01*
X171952553Y-84141339D01*
X171771339Y-84322553D01*
X171558255Y-84464931D01*
X171558254Y-84464932D01*
X171558253Y-84464932D01*
X171321487Y-84563004D01*
X171070139Y-84613000D01*
X170813861Y-84613000D01*
X170562513Y-84563004D01*
X170325747Y-84464932D01*
X170325746Y-84464932D01*
X170325745Y-84464931D01*
X170112661Y-84322553D01*
X169931447Y-84141339D01*
X169789069Y-83928255D01*
X169789068Y-83928253D01*
X169690996Y-83691487D01*
X169641000Y-83440139D01*
X169641000Y-83183861D01*
X169690996Y-82932513D01*
X169789068Y-82695747D01*
X169931447Y-82482661D01*
X170112661Y-82301447D01*
X170325745Y-82159069D01*
X170325747Y-82159068D01*
X170562513Y-82060996D01*
X170813861Y-82011000D01*
X171070139Y-82011000D01*
X171321487Y-82060996D01*
G37*
G36*
X161363500Y-80263500D02*
G01*
X159561500Y-80263500D01*
X159561500Y-79161500D01*
X161363500Y-79161500D01*
X161363500Y-80263500D01*
G37*
G36*
X155063500Y-80263500D02*
G01*
X153261500Y-80263500D01*
X153261500Y-79161500D01*
X155063500Y-79161500D01*
X155063500Y-80263500D01*
G37*
G36*
X144963674Y-78965965D02*
G01*
X145001367Y-78977399D01*
X145036103Y-78995966D01*
X145066548Y-79020952D01*
X145091534Y-79051397D01*
X145110101Y-79086133D01*
X145121535Y-79123826D01*
X145126000Y-79169161D01*
X145126000Y-80005839D01*
X145121535Y-80051174D01*
X145110101Y-80088867D01*
X145091534Y-80123603D01*
X145066548Y-80154048D01*
X145036103Y-80179034D01*
X145001367Y-80197601D01*
X144963674Y-80209035D01*
X144918339Y-80213500D01*
X143831661Y-80213500D01*
X143786326Y-80209035D01*
X143748633Y-80197601D01*
X143713897Y-80179034D01*
X143683452Y-80154048D01*
X143658466Y-80123603D01*
X143639899Y-80088867D01*
X143628465Y-80051174D01*
X143624000Y-80005839D01*
X143624000Y-79169161D01*
X143628465Y-79123826D01*
X143639899Y-79086133D01*
X143658466Y-79051397D01*
X143683452Y-79020952D01*
X143713897Y-78995966D01*
X143748633Y-78977399D01*
X143786326Y-78965965D01*
X143831661Y-78961500D01*
X144918339Y-78961500D01*
X144963674Y-78965965D01*
G37*
G36*
X128201000Y-80163500D02*
G01*
X126499000Y-80163500D01*
X126499000Y-78461500D01*
X128201000Y-78461500D01*
X128201000Y-80163500D01*
G37*
G36*
X115354478Y-78494203D02*
G01*
X115509350Y-78558353D01*
X115648731Y-78651485D01*
X115767265Y-78770019D01*
X115860397Y-78909400D01*
X115924547Y-79064272D01*
X115957250Y-79228684D01*
X115957250Y-79396316D01*
X115924547Y-79560728D01*
X115860397Y-79715600D01*
X115767265Y-79854981D01*
X115648731Y-79973515D01*
X115509350Y-80066647D01*
X115354478Y-80130797D01*
X115190066Y-80163500D01*
X115022434Y-80163500D01*
X114858022Y-80130797D01*
X114703150Y-80066647D01*
X114563769Y-79973515D01*
X114445235Y-79854981D01*
X114352103Y-79715600D01*
X114287953Y-79560728D01*
X114255250Y-79396316D01*
X114255250Y-79228684D01*
X114287953Y-79064272D01*
X114352103Y-78909400D01*
X114445235Y-78770019D01*
X114563769Y-78651485D01*
X114703150Y-78558353D01*
X114858022Y-78494203D01*
X115022434Y-78461500D01*
X115190066Y-78461500D01*
X115354478Y-78494203D01*
G37*
G36*
X108157250Y-80163500D02*
G01*
X106455250Y-80163500D01*
X106455250Y-78461500D01*
X108157250Y-78461500D01*
X108157250Y-80163500D01*
G37*
G36*
X135398228Y-78494203D02*
G01*
X135553100Y-78558353D01*
X135692481Y-78651485D01*
X135811015Y-78770019D01*
X135904147Y-78909400D01*
X135968297Y-79064272D01*
X136001000Y-79228684D01*
X136001000Y-79396316D01*
X135968297Y-79560728D01*
X135904147Y-79715600D01*
X135811015Y-79854981D01*
X135692481Y-79973515D01*
X135553100Y-80066647D01*
X135398228Y-80130797D01*
X135233816Y-80163500D01*
X135066184Y-80163500D01*
X134901772Y-80130797D01*
X134746900Y-80066647D01*
X134607519Y-79973515D01*
X134488985Y-79854981D01*
X134395853Y-79715600D01*
X134331703Y-79560728D01*
X134299000Y-79396316D01*
X134299000Y-79228684D01*
X134331703Y-79064272D01*
X134395853Y-78909400D01*
X134488985Y-78770019D01*
X134607519Y-78651485D01*
X134746900Y-78558353D01*
X134901772Y-78494203D01*
X135066184Y-78461500D01*
X135233816Y-78461500D01*
X135398228Y-78494203D01*
G37*
G36*
X133476000Y-79963500D02*
G01*
X132174000Y-79963500D01*
X132174000Y-78661500D01*
X133476000Y-78661500D01*
X133476000Y-79963500D01*
G37*
G36*
X130326000Y-79963500D02*
G01*
X129024000Y-79963500D01*
X129024000Y-78661500D01*
X130326000Y-78661500D01*
X130326000Y-79963500D01*
G37*
G36*
X110282250Y-79963500D02*
G01*
X108980250Y-79963500D01*
X108980250Y-78661500D01*
X110282250Y-78661500D01*
X110282250Y-79963500D01*
G37*
G36*
X113432250Y-79963500D02*
G01*
X112130250Y-79963500D01*
X112130250Y-78661500D01*
X113432250Y-78661500D01*
X113432250Y-79963500D01*
G37*
G36*
X144963674Y-76915965D02*
G01*
X145001367Y-76927399D01*
X145036103Y-76945966D01*
X145066548Y-76970952D01*
X145091534Y-77001397D01*
X145110101Y-77036133D01*
X145121535Y-77073826D01*
X145126000Y-77119161D01*
X145126000Y-77955839D01*
X145121535Y-78001174D01*
X145110101Y-78038867D01*
X145091534Y-78073603D01*
X145066548Y-78104048D01*
X145036103Y-78129034D01*
X145001367Y-78147601D01*
X144963674Y-78159035D01*
X144918339Y-78163500D01*
X143831661Y-78163500D01*
X143786326Y-78159035D01*
X143748633Y-78147601D01*
X143713897Y-78129034D01*
X143683452Y-78104048D01*
X143658466Y-78073603D01*
X143639899Y-78038867D01*
X143628465Y-78001174D01*
X143624000Y-77955839D01*
X143624000Y-77119161D01*
X143628465Y-77073826D01*
X143639899Y-77036133D01*
X143658466Y-77001397D01*
X143683452Y-76970952D01*
X143713897Y-76945966D01*
X143748633Y-76927399D01*
X143786326Y-76915965D01*
X143831661Y-76911500D01*
X144918339Y-76911500D01*
X144963674Y-76915965D01*
G37*
G36*
X155063500Y-76463500D02*
G01*
X153261500Y-76463500D01*
X153261500Y-75361500D01*
X155063500Y-75361500D01*
X155063500Y-76463500D01*
G37*
G36*
X161363500Y-76463500D02*
G01*
X159561500Y-76463500D01*
X159561500Y-75361500D01*
X161363500Y-75361500D01*
X161363500Y-76463500D01*
G37*
G36*
X108960044Y-68768486D02*
G01*
X109045221Y-68775003D01*
X109085003Y-68786129D01*
X109292025Y-68844027D01*
X109520620Y-68959875D01*
X109520622Y-68959876D01*
X109520623Y-68959877D01*
X109533203Y-68969750D01*
X109722222Y-69118093D01*
X109889084Y-69312603D01*
X110014793Y-69535928D01*
X110090675Y-69767750D01*
X110094518Y-69779489D01*
X110112674Y-69930076D01*
X110125194Y-70033917D01*
X110105645Y-70289445D01*
X110082491Y-70372233D01*
X110036620Y-70536250D01*
X109998309Y-70611846D01*
X109949800Y-70707566D01*
X108672204Y-72712988D01*
X108672202Y-72712990D01*
X108553630Y-72864076D01*
X108359123Y-73030936D01*
X108222505Y-73107837D01*
X108135795Y-73156646D01*
X107898584Y-73234292D01*
X107892234Y-73236371D01*
X107637807Y-73267047D01*
X107637806Y-73267047D01*
X107382279Y-73247498D01*
X107135475Y-73178473D01*
X107135474Y-73178473D01*
X107135472Y-73178472D01*
X106906885Y-73062628D01*
X106906883Y-73062627D01*
X106906880Y-73062625D01*
X106705278Y-72904407D01*
X106705274Y-72904404D01*
X106538417Y-72709900D01*
X106412708Y-72486573D01*
X106412707Y-72486572D01*
X106332983Y-72243014D01*
X106332982Y-72243011D01*
X106302306Y-71988584D01*
X106302306Y-71988583D01*
X106321855Y-71733056D01*
X106390880Y-71486252D01*
X106390880Y-71486251D01*
X106471520Y-71327130D01*
X106477700Y-71314935D01*
X107755295Y-69309512D01*
X107873869Y-69158425D01*
X108017802Y-69034951D01*
X108068380Y-68991562D01*
X108291698Y-68865856D01*
X108355056Y-68845117D01*
X108535261Y-68786130D01*
X108535262Y-68786130D01*
X108535265Y-68786129D01*
X108789691Y-68755453D01*
X108789693Y-68755453D01*
X108960044Y-68768486D01*
G37*
G36*
X128835044Y-68768486D02*
G01*
X128920221Y-68775003D01*
X128960003Y-68786129D01*
X129167025Y-68844027D01*
X129395620Y-68959875D01*
X129395622Y-68959876D01*
X129395623Y-68959877D01*
X129408203Y-68969750D01*
X129597222Y-69118093D01*
X129764084Y-69312603D01*
X129889793Y-69535928D01*
X129965675Y-69767750D01*
X129969518Y-69779489D01*
X129987674Y-69930076D01*
X130000194Y-70033917D01*
X129980645Y-70289445D01*
X129957491Y-70372233D01*
X129911620Y-70536250D01*
X129873309Y-70611846D01*
X129824800Y-70707566D01*
X128547204Y-72712988D01*
X128547202Y-72712990D01*
X128428630Y-72864076D01*
X128234123Y-73030936D01*
X128097505Y-73107837D01*
X128010795Y-73156646D01*
X127773584Y-73234292D01*
X127767234Y-73236371D01*
X127512807Y-73267047D01*
X127512806Y-73267047D01*
X127257279Y-73247498D01*
X127010475Y-73178473D01*
X127010474Y-73178473D01*
X127010472Y-73178472D01*
X126781885Y-73062628D01*
X126781883Y-73062627D01*
X126781880Y-73062625D01*
X126580278Y-72904407D01*
X126580274Y-72904404D01*
X126413417Y-72709900D01*
X126287708Y-72486573D01*
X126287707Y-72486572D01*
X126207983Y-72243014D01*
X126207982Y-72243011D01*
X126177306Y-71988584D01*
X126177306Y-71988583D01*
X126196855Y-71733056D01*
X126265880Y-71486252D01*
X126265880Y-71486251D01*
X126346520Y-71327130D01*
X126352700Y-71314935D01*
X127630295Y-69309512D01*
X127748869Y-69158425D01*
X127892802Y-69034951D01*
X127943380Y-68991562D01*
X128166698Y-68865856D01*
X128230056Y-68845117D01*
X128410261Y-68786130D01*
X128410262Y-68786130D01*
X128410265Y-68786129D01*
X128664691Y-68755453D01*
X128664693Y-68755453D01*
X128835044Y-68768486D01*
G37*
G36*
X114350129Y-68190063D02*
G01*
X114589741Y-68280963D01*
X114741711Y-68376017D01*
X114807015Y-68416863D01*
X114993602Y-68592538D01*
X115104959Y-68748800D01*
X115142330Y-68801240D01*
X115247485Y-69034947D01*
X115247486Y-69034951D01*
X115305026Y-69284678D01*
X115310808Y-69476644D01*
X115310807Y-69476652D01*
X115262666Y-70182821D01*
X115230885Y-70372233D01*
X115139985Y-70611845D01*
X115055088Y-70747577D01*
X115004085Y-70829119D01*
X114828410Y-71015706D01*
X114672148Y-71127063D01*
X114619708Y-71164434D01*
X114386001Y-71269589D01*
X114385997Y-71269590D01*
X114136271Y-71327130D01*
X113880116Y-71334844D01*
X113880112Y-71334844D01*
X113627371Y-71292437D01*
X113387759Y-71201537D01*
X113170485Y-71065637D01*
X112983898Y-70889962D01*
X112853916Y-70707565D01*
X112835170Y-70681260D01*
X112730015Y-70447553D01*
X112672474Y-70197821D01*
X112672022Y-70182821D01*
X112666692Y-70005858D01*
X112714834Y-69299678D01*
X112724692Y-69240925D01*
X112746615Y-69110267D01*
X112837515Y-68870655D01*
X112973415Y-68653381D01*
X113030700Y-68592538D01*
X113149090Y-68466794D01*
X113305352Y-68355437D01*
X113357792Y-68318066D01*
X113591499Y-68212911D01*
X113591503Y-68212910D01*
X113841229Y-68155370D01*
X114097384Y-68147656D01*
X114097388Y-68147656D01*
X114350129Y-68190063D01*
G37*
G36*
X134225129Y-68190063D02*
G01*
X134464741Y-68280963D01*
X134616711Y-68376017D01*
X134682015Y-68416863D01*
X134868602Y-68592538D01*
X134979959Y-68748800D01*
X135017330Y-68801240D01*
X135122485Y-69034947D01*
X135122486Y-69034951D01*
X135180026Y-69284678D01*
X135185808Y-69476644D01*
X135185807Y-69476652D01*
X135137666Y-70182821D01*
X135105885Y-70372233D01*
X135014985Y-70611845D01*
X134930088Y-70747577D01*
X134879085Y-70829119D01*
X134703410Y-71015706D01*
X134547148Y-71127063D01*
X134494708Y-71164434D01*
X134261001Y-71269589D01*
X134260997Y-71269590D01*
X134011271Y-71327130D01*
X133755116Y-71334844D01*
X133755112Y-71334844D01*
X133502371Y-71292437D01*
X133262759Y-71201537D01*
X133045485Y-71065637D01*
X132858898Y-70889962D01*
X132728916Y-70707565D01*
X132710170Y-70681260D01*
X132605015Y-70447553D01*
X132547474Y-70197821D01*
X132547022Y-70182821D01*
X132541692Y-70005858D01*
X132589834Y-69299678D01*
X132599692Y-69240925D01*
X132621615Y-69110267D01*
X132712515Y-68870655D01*
X132848415Y-68653381D01*
X132905700Y-68592538D01*
X133024090Y-68466794D01*
X133180352Y-68355437D01*
X133232792Y-68318066D01*
X133466499Y-68212911D01*
X133466503Y-68212910D01*
X133716229Y-68155370D01*
X133972384Y-68147656D01*
X133972388Y-68147656D01*
X134225129Y-68190063D01*
G37*
G36*
X161136550Y-71028000D02*
G01*
X152550950Y-71028000D01*
X152550950Y-69452800D01*
X161136550Y-69452800D01*
X161136550Y-71028000D01*
G37*
G36*
X170932424Y-69772215D02*
G01*
X170970117Y-69783649D01*
X171004853Y-69802216D01*
X171035298Y-69827202D01*
X171060284Y-69857647D01*
X171078851Y-69892383D01*
X171090285Y-69930076D01*
X171094750Y-69975411D01*
X171094750Y-70812089D01*
X171090285Y-70857424D01*
X171078851Y-70895117D01*
X171060284Y-70929853D01*
X171035298Y-70960298D01*
X171004853Y-70985284D01*
X170970117Y-71003851D01*
X170932424Y-71015285D01*
X170887089Y-71019750D01*
X169800411Y-71019750D01*
X169755076Y-71015285D01*
X169717383Y-71003851D01*
X169682647Y-70985284D01*
X169652202Y-70960298D01*
X169627216Y-70929853D01*
X169608649Y-70895117D01*
X169597215Y-70857424D01*
X169592750Y-70812089D01*
X169592750Y-69975411D01*
X169597215Y-69930076D01*
X169608649Y-69892383D01*
X169627216Y-69857647D01*
X169652202Y-69827202D01*
X169682647Y-69802216D01*
X169717383Y-69783649D01*
X169755076Y-69772215D01*
X169800411Y-69767750D01*
X170887089Y-69767750D01*
X170932424Y-69772215D01*
G37*
G36*
X144860674Y-68212465D02*
G01*
X144898367Y-68223899D01*
X144933103Y-68242466D01*
X144963548Y-68267452D01*
X144988534Y-68297897D01*
X145007101Y-68332633D01*
X145018535Y-68370326D01*
X145023000Y-68415661D01*
X145023000Y-69252339D01*
X145018535Y-69297674D01*
X145007101Y-69335367D01*
X144988534Y-69370103D01*
X144963548Y-69400548D01*
X144933103Y-69425534D01*
X144898367Y-69444101D01*
X144860674Y-69455535D01*
X144815339Y-69460000D01*
X143728661Y-69460000D01*
X143683326Y-69455535D01*
X143645633Y-69444101D01*
X143610897Y-69425534D01*
X143580452Y-69400548D01*
X143555466Y-69370103D01*
X143536899Y-69335367D01*
X143525465Y-69297674D01*
X143521000Y-69252339D01*
X143521000Y-68415661D01*
X143525465Y-68370326D01*
X143536899Y-68332633D01*
X143555466Y-68297897D01*
X143580452Y-68267452D01*
X143610897Y-68242466D01*
X143645633Y-68223899D01*
X143683326Y-68212465D01*
X143728661Y-68208000D01*
X144815339Y-68208000D01*
X144860674Y-68212465D01*
G37*
G36*
X170932424Y-67722215D02*
G01*
X170970117Y-67733649D01*
X171004853Y-67752216D01*
X171035298Y-67777202D01*
X171060284Y-67807647D01*
X171078851Y-67842383D01*
X171090285Y-67880076D01*
X171094750Y-67925411D01*
X171094750Y-68762089D01*
X171090285Y-68807424D01*
X171078851Y-68845117D01*
X171060284Y-68879853D01*
X171035298Y-68910298D01*
X171004853Y-68935284D01*
X170970117Y-68953851D01*
X170932424Y-68965285D01*
X170887089Y-68969750D01*
X169800411Y-68969750D01*
X169755076Y-68965285D01*
X169717383Y-68953851D01*
X169682647Y-68935284D01*
X169652202Y-68910298D01*
X169627216Y-68879853D01*
X169608649Y-68845117D01*
X169597215Y-68807424D01*
X169592750Y-68762089D01*
X169592750Y-67925411D01*
X169597215Y-67880076D01*
X169608649Y-67842383D01*
X169627216Y-67807647D01*
X169652202Y-67777202D01*
X169682647Y-67752216D01*
X169717383Y-67733649D01*
X169755076Y-67722215D01*
X169800411Y-67717750D01*
X170887089Y-67717750D01*
X170932424Y-67722215D01*
G37*
G36*
X151890950Y-68792800D02*
G01*
X150315750Y-68792800D01*
X150315750Y-60207200D01*
X151890950Y-60207200D01*
X151890950Y-68792800D01*
G37*
G36*
X163371750Y-68792800D02*
G01*
X161796550Y-68792800D01*
X161796550Y-60207200D01*
X163371750Y-60207200D01*
X163371750Y-68792800D01*
G37*
G36*
X144860674Y-66162465D02*
G01*
X144898367Y-66173899D01*
X144933103Y-66192466D01*
X144963548Y-66217452D01*
X144988534Y-66247897D01*
X145007101Y-66282633D01*
X145018535Y-66320326D01*
X145023000Y-66365661D01*
X145023000Y-67202339D01*
X145018535Y-67247674D01*
X145007101Y-67285367D01*
X144988534Y-67320103D01*
X144963548Y-67350548D01*
X144933103Y-67375534D01*
X144898367Y-67394101D01*
X144860674Y-67405535D01*
X144815339Y-67410000D01*
X143728661Y-67410000D01*
X143683326Y-67405535D01*
X143645633Y-67394101D01*
X143610897Y-67375534D01*
X143580452Y-67350548D01*
X143555466Y-67320103D01*
X143536899Y-67285367D01*
X143525465Y-67247674D01*
X143521000Y-67202339D01*
X143521000Y-66365661D01*
X143525465Y-66320326D01*
X143536899Y-66282633D01*
X143555466Y-66247897D01*
X143580452Y-66217452D01*
X143610897Y-66192466D01*
X143645633Y-66173899D01*
X143683326Y-66162465D01*
X143728661Y-66158000D01*
X144815339Y-66158000D01*
X144860674Y-66162465D01*
G37*
G36*
X170932424Y-64809715D02*
G01*
X170970117Y-64821149D01*
X171004853Y-64839716D01*
X171035298Y-64864702D01*
X171060284Y-64895147D01*
X171078851Y-64929883D01*
X171090285Y-64967576D01*
X171094750Y-65012911D01*
X171094750Y-65849589D01*
X171090285Y-65894924D01*
X171078851Y-65932617D01*
X171060284Y-65967353D01*
X171035298Y-65997798D01*
X171004853Y-66022784D01*
X170970117Y-66041351D01*
X170932424Y-66052785D01*
X170887089Y-66057250D01*
X169800411Y-66057250D01*
X169755076Y-66052785D01*
X169717383Y-66041351D01*
X169682647Y-66022784D01*
X169652202Y-65997798D01*
X169627216Y-65967353D01*
X169608649Y-65932617D01*
X169597215Y-65894924D01*
X169592750Y-65849589D01*
X169592750Y-65012911D01*
X169597215Y-64967576D01*
X169608649Y-64929883D01*
X169627216Y-64895147D01*
X169652202Y-64864702D01*
X169682647Y-64839716D01*
X169717383Y-64821149D01*
X169755076Y-64809715D01*
X169800411Y-64805250D01*
X170887089Y-64805250D01*
X170932424Y-64809715D01*
G37*
G36*
X144860674Y-63894465D02*
G01*
X144898367Y-63905899D01*
X144933103Y-63924466D01*
X144963548Y-63949452D01*
X144988534Y-63979897D01*
X145007101Y-64014633D01*
X145018535Y-64052326D01*
X145023000Y-64097661D01*
X145023000Y-64934339D01*
X145018535Y-64979674D01*
X145007101Y-65017367D01*
X144988534Y-65052103D01*
X144963548Y-65082548D01*
X144933103Y-65107534D01*
X144898367Y-65126101D01*
X144860674Y-65137535D01*
X144815339Y-65142000D01*
X143728661Y-65142000D01*
X143683326Y-65137535D01*
X143645633Y-65126101D01*
X143610897Y-65107534D01*
X143580452Y-65082548D01*
X143555466Y-65052103D01*
X143536899Y-65017367D01*
X143525465Y-64979674D01*
X143521000Y-64934339D01*
X143521000Y-64097661D01*
X143525465Y-64052326D01*
X143536899Y-64014633D01*
X143555466Y-63979897D01*
X143580452Y-63949452D01*
X143610897Y-63924466D01*
X143645633Y-63905899D01*
X143683326Y-63894465D01*
X143728661Y-63890000D01*
X144815339Y-63890000D01*
X144860674Y-63894465D01*
G37*
G36*
X170932424Y-62759715D02*
G01*
X170970117Y-62771149D01*
X171004853Y-62789716D01*
X171035298Y-62814702D01*
X171060284Y-62845147D01*
X171078851Y-62879883D01*
X171090285Y-62917576D01*
X171094750Y-62962911D01*
X171094750Y-63799589D01*
X171090285Y-63844924D01*
X171078851Y-63882617D01*
X171060284Y-63917353D01*
X171035298Y-63947798D01*
X171004853Y-63972784D01*
X170970117Y-63991351D01*
X170932424Y-64002785D01*
X170887089Y-64007250D01*
X169800411Y-64007250D01*
X169755076Y-64002785D01*
X169717383Y-63991351D01*
X169682647Y-63972784D01*
X169652202Y-63947798D01*
X169627216Y-63917353D01*
X169608649Y-63882617D01*
X169597215Y-63844924D01*
X169592750Y-63799589D01*
X169592750Y-62962911D01*
X169597215Y-62917576D01*
X169608649Y-62879883D01*
X169627216Y-62845147D01*
X169652202Y-62814702D01*
X169682647Y-62789716D01*
X169717383Y-62771149D01*
X169755076Y-62759715D01*
X169800411Y-62755250D01*
X170887089Y-62755250D01*
X170932424Y-62759715D01*
G37*
G36*
X144860674Y-61844465D02*
G01*
X144898367Y-61855899D01*
X144933103Y-61874466D01*
X144963548Y-61899452D01*
X144988534Y-61929897D01*
X145007101Y-61964633D01*
X145018535Y-62002326D01*
X145023000Y-62047661D01*
X145023000Y-62884339D01*
X145018535Y-62929674D01*
X145007101Y-62967367D01*
X144988534Y-63002103D01*
X144963548Y-63032548D01*
X144933103Y-63057534D01*
X144898367Y-63076101D01*
X144860674Y-63087535D01*
X144815339Y-63092000D01*
X143728661Y-63092000D01*
X143683326Y-63087535D01*
X143645633Y-63076101D01*
X143610897Y-63057534D01*
X143580452Y-63032548D01*
X143555466Y-63002103D01*
X143536899Y-62967367D01*
X143525465Y-62929674D01*
X143521000Y-62884339D01*
X143521000Y-62047661D01*
X143525465Y-62002326D01*
X143536899Y-61964633D01*
X143555466Y-61929897D01*
X143580452Y-61899452D01*
X143610897Y-61874466D01*
X143645633Y-61855899D01*
X143683326Y-61844465D01*
X143728661Y-61840000D01*
X144815339Y-61840000D01*
X144860674Y-61844465D01*
G37*
G36*
X170932424Y-60028465D02*
G01*
X170970117Y-60039899D01*
X171004853Y-60058466D01*
X171035298Y-60083452D01*
X171060284Y-60113897D01*
X171078851Y-60148633D01*
X171090285Y-60186326D01*
X171094750Y-60231661D01*
X171094750Y-61068339D01*
X171090285Y-61113674D01*
X171078851Y-61151367D01*
X171060284Y-61186103D01*
X171035298Y-61216548D01*
X171004853Y-61241534D01*
X170970117Y-61260101D01*
X170932424Y-61271535D01*
X170887089Y-61276000D01*
X169800411Y-61276000D01*
X169755076Y-61271535D01*
X169717383Y-61260101D01*
X169682647Y-61241534D01*
X169652202Y-61216548D01*
X169627216Y-61186103D01*
X169608649Y-61151367D01*
X169597215Y-61113674D01*
X169592750Y-61068339D01*
X169592750Y-60231661D01*
X169597215Y-60186326D01*
X169608649Y-60148633D01*
X169627216Y-60113897D01*
X169652202Y-60083452D01*
X169682647Y-60058466D01*
X169717383Y-60039899D01*
X169755076Y-60028465D01*
X169800411Y-60024000D01*
X170887089Y-60024000D01*
X170932424Y-60028465D01*
G37*
G36*
X144963674Y-59365965D02*
G01*
X145001367Y-59377399D01*
X145036103Y-59395966D01*
X145066548Y-59420952D01*
X145091534Y-59451397D01*
X145110101Y-59486133D01*
X145121535Y-59523826D01*
X145126000Y-59569161D01*
X145126000Y-60405839D01*
X145121535Y-60451174D01*
X145110101Y-60488867D01*
X145091534Y-60523603D01*
X145066548Y-60554048D01*
X145036103Y-60579034D01*
X145001367Y-60597601D01*
X144963674Y-60609035D01*
X144918339Y-60613500D01*
X143831661Y-60613500D01*
X143786326Y-60609035D01*
X143748633Y-60597601D01*
X143713897Y-60579034D01*
X143683452Y-60554048D01*
X143658466Y-60523603D01*
X143639899Y-60488867D01*
X143628465Y-60451174D01*
X143624000Y-60405839D01*
X143624000Y-59569161D01*
X143628465Y-59523826D01*
X143639899Y-59486133D01*
X143658466Y-59451397D01*
X143683452Y-59420952D01*
X143713897Y-59395966D01*
X143748633Y-59377399D01*
X143786326Y-59365965D01*
X143831661Y-59361500D01*
X144918339Y-59361500D01*
X144963674Y-59365965D01*
G37*
G36*
X108344750Y-60194750D02*
G01*
X106642750Y-60194750D01*
X106642750Y-58492750D01*
X108344750Y-58492750D01*
X108344750Y-60194750D01*
G37*
G36*
X128313500Y-60194750D02*
G01*
X126611500Y-60194750D01*
X126611500Y-58492750D01*
X128313500Y-58492750D01*
X128313500Y-60194750D01*
G37*
G36*
X135510728Y-58525453D02*
G01*
X135665600Y-58589603D01*
X135804981Y-58682735D01*
X135923515Y-58801269D01*
X136016647Y-58940650D01*
X136080797Y-59095522D01*
X136113500Y-59259934D01*
X136113500Y-59427566D01*
X136080797Y-59591978D01*
X136016647Y-59746850D01*
X135923515Y-59886231D01*
X135804981Y-60004765D01*
X135665600Y-60097897D01*
X135510728Y-60162047D01*
X135346316Y-60194750D01*
X135178684Y-60194750D01*
X135014272Y-60162047D01*
X134859400Y-60097897D01*
X134720019Y-60004765D01*
X134601485Y-59886231D01*
X134508353Y-59746850D01*
X134444203Y-59591978D01*
X134411500Y-59427566D01*
X134411500Y-59259934D01*
X134444203Y-59095522D01*
X134508353Y-58940650D01*
X134601485Y-58801269D01*
X134720019Y-58682735D01*
X134859400Y-58589603D01*
X135014272Y-58525453D01*
X135178684Y-58492750D01*
X135346316Y-58492750D01*
X135510728Y-58525453D01*
G37*
G36*
X115541978Y-58525453D02*
G01*
X115696850Y-58589603D01*
X115836231Y-58682735D01*
X115954765Y-58801269D01*
X116047897Y-58940650D01*
X116112047Y-59095522D01*
X116144750Y-59259934D01*
X116144750Y-59427566D01*
X116112047Y-59591978D01*
X116047897Y-59746850D01*
X115954765Y-59886231D01*
X115836231Y-60004765D01*
X115696850Y-60097897D01*
X115541978Y-60162047D01*
X115377566Y-60194750D01*
X115209934Y-60194750D01*
X115045522Y-60162047D01*
X114890650Y-60097897D01*
X114751269Y-60004765D01*
X114632735Y-59886231D01*
X114539603Y-59746850D01*
X114475453Y-59591978D01*
X114442750Y-59427566D01*
X114442750Y-59259934D01*
X114475453Y-59095522D01*
X114539603Y-58940650D01*
X114632735Y-58801269D01*
X114751269Y-58682735D01*
X114890650Y-58589603D01*
X115045522Y-58525453D01*
X115209934Y-58492750D01*
X115377566Y-58492750D01*
X115541978Y-58525453D01*
G37*
G36*
X110469750Y-59994750D02*
G01*
X109167750Y-59994750D01*
X109167750Y-58692750D01*
X110469750Y-58692750D01*
X110469750Y-59994750D01*
G37*
G36*
X113619750Y-59994750D02*
G01*
X112317750Y-59994750D01*
X112317750Y-58692750D01*
X113619750Y-58692750D01*
X113619750Y-59994750D01*
G37*
G36*
X130438500Y-59994750D02*
G01*
X129136500Y-59994750D01*
X129136500Y-58692750D01*
X130438500Y-58692750D01*
X130438500Y-59994750D01*
G37*
G36*
X133588500Y-59994750D02*
G01*
X132286500Y-59994750D01*
X132286500Y-58692750D01*
X133588500Y-58692750D01*
X133588500Y-59994750D01*
G37*
G36*
X161136550Y-59547200D02*
G01*
X152550950Y-59547200D01*
X152550950Y-57972000D01*
X161136550Y-57972000D01*
X161136550Y-59547200D01*
G37*
G36*
X170932424Y-57978465D02*
G01*
X170970117Y-57989899D01*
X171004853Y-58008466D01*
X171035298Y-58033452D01*
X171060284Y-58063897D01*
X171078851Y-58098633D01*
X171090285Y-58136326D01*
X171094750Y-58181661D01*
X171094750Y-59018339D01*
X171090285Y-59063674D01*
X171078851Y-59101367D01*
X171060284Y-59136103D01*
X171035298Y-59166548D01*
X171004853Y-59191534D01*
X170970117Y-59210101D01*
X170932424Y-59221535D01*
X170887089Y-59226000D01*
X169800411Y-59226000D01*
X169755076Y-59221535D01*
X169717383Y-59210101D01*
X169682647Y-59191534D01*
X169652202Y-59166548D01*
X169627216Y-59136103D01*
X169608649Y-59101367D01*
X169597215Y-59063674D01*
X169592750Y-59018339D01*
X169592750Y-58181661D01*
X169597215Y-58136326D01*
X169608649Y-58098633D01*
X169627216Y-58063897D01*
X169652202Y-58033452D01*
X169682647Y-58008466D01*
X169717383Y-57989899D01*
X169755076Y-57978465D01*
X169800411Y-57974000D01*
X170887089Y-57974000D01*
X170932424Y-57978465D01*
G37*
G36*
X144963674Y-57315965D02*
G01*
X145001367Y-57327399D01*
X145036103Y-57345966D01*
X145066548Y-57370952D01*
X145091534Y-57401397D01*
X145110101Y-57436133D01*
X145121535Y-57473826D01*
X145126000Y-57519161D01*
X145126000Y-58355839D01*
X145121535Y-58401174D01*
X145110101Y-58438867D01*
X145091534Y-58473603D01*
X145066548Y-58504048D01*
X145036103Y-58529034D01*
X145001367Y-58547601D01*
X144963674Y-58559035D01*
X144918339Y-58563500D01*
X143831661Y-58563500D01*
X143786326Y-58559035D01*
X143748633Y-58547601D01*
X143713897Y-58529034D01*
X143683452Y-58504048D01*
X143658466Y-58473603D01*
X143639899Y-58438867D01*
X143628465Y-58401174D01*
X143624000Y-58355839D01*
X143624000Y-57519161D01*
X143628465Y-57473826D01*
X143639899Y-57436133D01*
X143658466Y-57401397D01*
X143683452Y-57370952D01*
X143713897Y-57345966D01*
X143748633Y-57327399D01*
X143786326Y-57315965D01*
X143831661Y-57311500D01*
X144918339Y-57311500D01*
X144963674Y-57315965D01*
G37*
G36*
X157779479Y-54453674D02*
G01*
X156717404Y-55515749D01*
X155796751Y-54595096D01*
X156858826Y-53533021D01*
X157779479Y-54453674D01*
G37*
G36*
X144869924Y-53653465D02*
G01*
X144907617Y-53664899D01*
X144942353Y-53683466D01*
X144972798Y-53708452D01*
X144997784Y-53738897D01*
X145016351Y-53773633D01*
X145027785Y-53811326D01*
X145032250Y-53856661D01*
X145032250Y-54693339D01*
X145027785Y-54738674D01*
X145016351Y-54776367D01*
X144997784Y-54811103D01*
X144972798Y-54841548D01*
X144942353Y-54866534D01*
X144907617Y-54885101D01*
X144869924Y-54896535D01*
X144824589Y-54901000D01*
X143737911Y-54901000D01*
X143692576Y-54896535D01*
X143654883Y-54885101D01*
X143620147Y-54866534D01*
X143589702Y-54841548D01*
X143564716Y-54811103D01*
X143546149Y-54776367D01*
X143534715Y-54738674D01*
X143530250Y-54693339D01*
X143530250Y-53856661D01*
X143534715Y-53811326D01*
X143546149Y-53773633D01*
X143564716Y-53738897D01*
X143589702Y-53708452D01*
X143620147Y-53683466D01*
X143654883Y-53664899D01*
X143692576Y-53653465D01*
X143737911Y-53649000D01*
X144824589Y-53649000D01*
X144869924Y-53653465D01*
G37*
G36*
X151338674Y-53565965D02*
G01*
X151376367Y-53577399D01*
X151411103Y-53595966D01*
X151441548Y-53620952D01*
X151466534Y-53651397D01*
X151485101Y-53686133D01*
X151496535Y-53723826D01*
X151501000Y-53769161D01*
X151501000Y-54605839D01*
X151496535Y-54651174D01*
X151485101Y-54688867D01*
X151466534Y-54723603D01*
X151441548Y-54754048D01*
X151411103Y-54779034D01*
X151376367Y-54797601D01*
X151338674Y-54809035D01*
X151293339Y-54813500D01*
X150206661Y-54813500D01*
X150161326Y-54809035D01*
X150123633Y-54797601D01*
X150088897Y-54779034D01*
X150058452Y-54754048D01*
X150033466Y-54723603D01*
X150014899Y-54688867D01*
X150003465Y-54651174D01*
X149999000Y-54605839D01*
X149999000Y-53769161D01*
X150003465Y-53723826D01*
X150014899Y-53686133D01*
X150033466Y-53651397D01*
X150058452Y-53620952D01*
X150088897Y-53595966D01*
X150123633Y-53577399D01*
X150161326Y-53565965D01*
X150206661Y-53561500D01*
X151293339Y-53561500D01*
X151338674Y-53565965D01*
G37*
G36*
X163619924Y-53378465D02*
G01*
X163657617Y-53389899D01*
X163692353Y-53408466D01*
X163722798Y-53433452D01*
X163747784Y-53463897D01*
X163766351Y-53498633D01*
X163777785Y-53536326D01*
X163782250Y-53581661D01*
X163782250Y-54418339D01*
X163777785Y-54463674D01*
X163766351Y-54501367D01*
X163747784Y-54536103D01*
X163722798Y-54566548D01*
X163692353Y-54591534D01*
X163657617Y-54610101D01*
X163619924Y-54621535D01*
X163574589Y-54626000D01*
X162487911Y-54626000D01*
X162442576Y-54621535D01*
X162404883Y-54610101D01*
X162370147Y-54591534D01*
X162339702Y-54566548D01*
X162314716Y-54536103D01*
X162296149Y-54501367D01*
X162284715Y-54463674D01*
X162280250Y-54418339D01*
X162280250Y-53581661D01*
X162284715Y-53536326D01*
X162296149Y-53498633D01*
X162314716Y-53463897D01*
X162339702Y-53433452D01*
X162370147Y-53408466D01*
X162404883Y-53389899D01*
X162442576Y-53378465D01*
X162487911Y-53374000D01*
X163574589Y-53374000D01*
X163619924Y-53378465D01*
G37*
G36*
X156648108Y-53322303D02*
G01*
X155586033Y-54384378D01*
X154665380Y-53463725D01*
X155727455Y-52401650D01*
X156648108Y-53322303D01*
G37*
G36*
X159335114Y-52898039D02*
G01*
X158273039Y-53960114D01*
X157352386Y-53039461D01*
X158414461Y-51977386D01*
X159335114Y-52898039D01*
G37*
G36*
X108942544Y-48799736D02*
G01*
X109027721Y-48806253D01*
X109067503Y-48817379D01*
X109274525Y-48875277D01*
X109503120Y-48991125D01*
X109503122Y-48991126D01*
X109503123Y-48991127D01*
X109543496Y-49022812D01*
X109704722Y-49149343D01*
X109871584Y-49343853D01*
X109997293Y-49567178D01*
X110072061Y-49795595D01*
X110077018Y-49810739D01*
X110089380Y-49913271D01*
X110107694Y-50065167D01*
X110088145Y-50320695D01*
X110034205Y-50513560D01*
X110019120Y-50567500D01*
X109980809Y-50643096D01*
X109932300Y-50738816D01*
X108654704Y-52744238D01*
X108617575Y-52791548D01*
X108536130Y-52895326D01*
X108341623Y-53062186D01*
X108205005Y-53139087D01*
X108118295Y-53187896D01*
X107881084Y-53265542D01*
X107874734Y-53267621D01*
X107620307Y-53298297D01*
X107620306Y-53298297D01*
X107364779Y-53278748D01*
X107117975Y-53209723D01*
X107117974Y-53209723D01*
X107117972Y-53209722D01*
X106889385Y-53093878D01*
X106889383Y-53093877D01*
X106889380Y-53093875D01*
X106687778Y-52935657D01*
X106687774Y-52935654D01*
X106520917Y-52741150D01*
X106410182Y-52544425D01*
X106395207Y-52517822D01*
X106315483Y-52274264D01*
X106315482Y-52274261D01*
X106284806Y-52019834D01*
X106284806Y-52019833D01*
X106304355Y-51764306D01*
X106373380Y-51517502D01*
X106373380Y-51517501D01*
X106425885Y-51413897D01*
X106460200Y-51346185D01*
X107737795Y-49340762D01*
X107856369Y-49189675D01*
X108000302Y-49066201D01*
X108050880Y-49022812D01*
X108274198Y-48897106D01*
X108274204Y-48897104D01*
X108517761Y-48817380D01*
X108517762Y-48817380D01*
X108517765Y-48817379D01*
X108772191Y-48786703D01*
X108772193Y-48786703D01*
X108942544Y-48799736D01*
G37*
G36*
X128835044Y-48799736D02*
G01*
X128920221Y-48806253D01*
X128960003Y-48817379D01*
X129167025Y-48875277D01*
X129395620Y-48991125D01*
X129395622Y-48991126D01*
X129395623Y-48991127D01*
X129435996Y-49022812D01*
X129597222Y-49149343D01*
X129764084Y-49343853D01*
X129889793Y-49567178D01*
X129964561Y-49795595D01*
X129969518Y-49810739D01*
X129981880Y-49913271D01*
X130000194Y-50065167D01*
X129980645Y-50320695D01*
X129926705Y-50513560D01*
X129911620Y-50567500D01*
X129873309Y-50643096D01*
X129824800Y-50738816D01*
X128547204Y-52744238D01*
X128510075Y-52791548D01*
X128428630Y-52895326D01*
X128234123Y-53062186D01*
X128097505Y-53139087D01*
X128010795Y-53187896D01*
X127773584Y-53265542D01*
X127767234Y-53267621D01*
X127512807Y-53298297D01*
X127512806Y-53298297D01*
X127257279Y-53278748D01*
X127010475Y-53209723D01*
X127010474Y-53209723D01*
X127010472Y-53209722D01*
X126781885Y-53093878D01*
X126781883Y-53093877D01*
X126781880Y-53093875D01*
X126580278Y-52935657D01*
X126580274Y-52935654D01*
X126413417Y-52741150D01*
X126302682Y-52544425D01*
X126287707Y-52517822D01*
X126207983Y-52274264D01*
X126207982Y-52274261D01*
X126177306Y-52019834D01*
X126177306Y-52019833D01*
X126196855Y-51764306D01*
X126265880Y-51517502D01*
X126265880Y-51517501D01*
X126318385Y-51413897D01*
X126352700Y-51346185D01*
X127630295Y-49340762D01*
X127748869Y-49189675D01*
X127892802Y-49066201D01*
X127943380Y-49022812D01*
X128166698Y-48897106D01*
X128166704Y-48897104D01*
X128410261Y-48817380D01*
X128410262Y-48817380D01*
X128410265Y-48817379D01*
X128664691Y-48786703D01*
X128664693Y-48786703D01*
X128835044Y-48799736D01*
G37*
G36*
X144869924Y-51603465D02*
G01*
X144907617Y-51614899D01*
X144942353Y-51633466D01*
X144972798Y-51658452D01*
X144997784Y-51688897D01*
X145016351Y-51723633D01*
X145027785Y-51761326D01*
X145032250Y-51806661D01*
X145032250Y-52643339D01*
X145027785Y-52688674D01*
X145016351Y-52726367D01*
X144997784Y-52761103D01*
X144972798Y-52791548D01*
X144942353Y-52816534D01*
X144907617Y-52835101D01*
X144869924Y-52846535D01*
X144824589Y-52851000D01*
X143737911Y-52851000D01*
X143692576Y-52846535D01*
X143654883Y-52835101D01*
X143620147Y-52816534D01*
X143589702Y-52791548D01*
X143564716Y-52761103D01*
X143546149Y-52726367D01*
X143534715Y-52688674D01*
X143530250Y-52643339D01*
X143530250Y-51806661D01*
X143534715Y-51761326D01*
X143546149Y-51723633D01*
X143564716Y-51688897D01*
X143589702Y-51658452D01*
X143620147Y-51633466D01*
X143654883Y-51614899D01*
X143692576Y-51603465D01*
X143737911Y-51599000D01*
X144824589Y-51599000D01*
X144869924Y-51603465D01*
G37*
G36*
X158203743Y-51766668D02*
G01*
X157141668Y-52828743D01*
X156221015Y-51908090D01*
X157283090Y-50846015D01*
X158203743Y-51766668D01*
G37*
G36*
X151338674Y-51515965D02*
G01*
X151376367Y-51527399D01*
X151411103Y-51545966D01*
X151441548Y-51570952D01*
X151466534Y-51601397D01*
X151485101Y-51636133D01*
X151496535Y-51673826D01*
X151501000Y-51719161D01*
X151501000Y-52555839D01*
X151496535Y-52601174D01*
X151485101Y-52638867D01*
X151466534Y-52673603D01*
X151441548Y-52704048D01*
X151411103Y-52729034D01*
X151376367Y-52747601D01*
X151338674Y-52759035D01*
X151293339Y-52763500D01*
X150206661Y-52763500D01*
X150161326Y-52759035D01*
X150123633Y-52747601D01*
X150088897Y-52729034D01*
X150058452Y-52704048D01*
X150033466Y-52673603D01*
X150014899Y-52638867D01*
X150003465Y-52601174D01*
X149999000Y-52555839D01*
X149999000Y-51719161D01*
X150003465Y-51673826D01*
X150014899Y-51636133D01*
X150033466Y-51601397D01*
X150058452Y-51570952D01*
X150088897Y-51545966D01*
X150123633Y-51527399D01*
X150161326Y-51515965D01*
X150206661Y-51511500D01*
X151293339Y-51511500D01*
X151338674Y-51515965D01*
G37*
G36*
X163619924Y-51328465D02*
G01*
X163657617Y-51339899D01*
X163692353Y-51358466D01*
X163722798Y-51383452D01*
X163747784Y-51413897D01*
X163766351Y-51448633D01*
X163777785Y-51486326D01*
X163782250Y-51531661D01*
X163782250Y-52368339D01*
X163777785Y-52413674D01*
X163766351Y-52451367D01*
X163747784Y-52486103D01*
X163722798Y-52516548D01*
X163692353Y-52541534D01*
X163657617Y-52560101D01*
X163619924Y-52571535D01*
X163574589Y-52576000D01*
X162487911Y-52576000D01*
X162442576Y-52571535D01*
X162404883Y-52560101D01*
X162370147Y-52541534D01*
X162339702Y-52516548D01*
X162314716Y-52486103D01*
X162296149Y-52451367D01*
X162284715Y-52413674D01*
X162280250Y-52368339D01*
X162280250Y-51531661D01*
X162284715Y-51486326D01*
X162296149Y-51448633D01*
X162314716Y-51413897D01*
X162339702Y-51383452D01*
X162370147Y-51358466D01*
X162404883Y-51339899D01*
X162442576Y-51328465D01*
X162487911Y-51324000D01*
X163574589Y-51324000D01*
X163619924Y-51328465D01*
G37*
G36*
X123307250Y-51657250D02*
G01*
X119505250Y-51657250D01*
X119505250Y-50155250D01*
X123307250Y-50155250D01*
X123307250Y-51657250D01*
G37*
G36*
X114332629Y-48221313D02*
G01*
X114572241Y-48312213D01*
X114689390Y-48385487D01*
X114789515Y-48448113D01*
X114976102Y-48623788D01*
X115087459Y-48780050D01*
X115124830Y-48832490D01*
X115229985Y-49066197D01*
X115229986Y-49066201D01*
X115287526Y-49315928D01*
X115293308Y-49507894D01*
X115293307Y-49507902D01*
X115245166Y-50214071D01*
X115213385Y-50403483D01*
X115122485Y-50643095D01*
X114995563Y-50846015D01*
X114986585Y-50860369D01*
X114810910Y-51046956D01*
X114654648Y-51158313D01*
X114602208Y-51195684D01*
X114368501Y-51300839D01*
X114368497Y-51300840D01*
X114118771Y-51358380D01*
X113862616Y-51366094D01*
X113862612Y-51366094D01*
X113609871Y-51323687D01*
X113370259Y-51232787D01*
X113152985Y-51096887D01*
X113099953Y-51046956D01*
X112966398Y-50921212D01*
X112836416Y-50738815D01*
X112817670Y-50712510D01*
X112712515Y-50478803D01*
X112712514Y-50478799D01*
X112654974Y-50229072D01*
X112649192Y-50037108D01*
X112697334Y-49330928D01*
X112721035Y-49189675D01*
X112729115Y-49141517D01*
X112820015Y-48901905D01*
X112955915Y-48684631D01*
X113013200Y-48623788D01*
X113131590Y-48498044D01*
X113289536Y-48385487D01*
X113340292Y-48349316D01*
X113573999Y-48244161D01*
X113574003Y-48244160D01*
X113823729Y-48186620D01*
X114079884Y-48178906D01*
X114079888Y-48178906D01*
X114332629Y-48221313D01*
G37*
G36*
X134225129Y-48221313D02*
G01*
X134464741Y-48312213D01*
X134581890Y-48385487D01*
X134682015Y-48448113D01*
X134868602Y-48623788D01*
X134979959Y-48780050D01*
X135017330Y-48832490D01*
X135122485Y-49066197D01*
X135122486Y-49066201D01*
X135180026Y-49315928D01*
X135185808Y-49507894D01*
X135185807Y-49507902D01*
X135137666Y-50214071D01*
X135105885Y-50403483D01*
X135014985Y-50643095D01*
X134888063Y-50846015D01*
X134879085Y-50860369D01*
X134703410Y-51046956D01*
X134547148Y-51158313D01*
X134494708Y-51195684D01*
X134261001Y-51300839D01*
X134260997Y-51300840D01*
X134011271Y-51358380D01*
X133755116Y-51366094D01*
X133755112Y-51366094D01*
X133502371Y-51323687D01*
X133262759Y-51232787D01*
X133045485Y-51096887D01*
X132992453Y-51046956D01*
X132858898Y-50921212D01*
X132728916Y-50738815D01*
X132710170Y-50712510D01*
X132605015Y-50478803D01*
X132605014Y-50478799D01*
X132547474Y-50229072D01*
X132541692Y-50037108D01*
X132589834Y-49330928D01*
X132613535Y-49189675D01*
X132621615Y-49141517D01*
X132712515Y-48901905D01*
X132848415Y-48684631D01*
X132905700Y-48623788D01*
X133024090Y-48498044D01*
X133182036Y-48385487D01*
X133232792Y-48349316D01*
X133466499Y-48244161D01*
X133466503Y-48244160D01*
X133716229Y-48186620D01*
X133972384Y-48178906D01*
X133972388Y-48178906D01*
X134225129Y-48221313D01*
G37*
G36*
X125213272Y-46466840D02*
G01*
X125313931Y-46497375D01*
X125364262Y-46512642D01*
X125487880Y-46578718D01*
X125503414Y-46587021D01*
X125625383Y-46687117D01*
X125725479Y-46809085D01*
X125799858Y-46948237D01*
X125814179Y-46995447D01*
X125845660Y-47099227D01*
X125845660Y-47099229D01*
X125857250Y-47216904D01*
X125857250Y-49795596D01*
X125853387Y-49834821D01*
X125845660Y-49913273D01*
X125815125Y-50013932D01*
X125799858Y-50064263D01*
X125725479Y-50203415D01*
X125625383Y-50325383D01*
X125503415Y-50425479D01*
X125364263Y-50499858D01*
X125313932Y-50515125D01*
X125213273Y-50545660D01*
X125056250Y-50561125D01*
X124899228Y-50545660D01*
X124798569Y-50515125D01*
X124748238Y-50499858D01*
X124609086Y-50425479D01*
X124487118Y-50325383D01*
X124387022Y-50203415D01*
X124312643Y-50064263D01*
X124297376Y-50013932D01*
X124266841Y-49913273D01*
X124259114Y-49834821D01*
X124255251Y-49795596D01*
X124255250Y-47216905D01*
X124266840Y-47099230D01*
X124266840Y-47099228D01*
X124312642Y-46948239D01*
X124312642Y-46948238D01*
X124387021Y-46809086D01*
X124418135Y-46771173D01*
X124487117Y-46687117D01*
X124609085Y-46587021D01*
X124624619Y-46578718D01*
X124748237Y-46512642D01*
X124798568Y-46497375D01*
X124899227Y-46466840D01*
X125056250Y-46451375D01*
X125213272Y-46466840D01*
G37*
G36*
X117913272Y-46466840D02*
G01*
X118013931Y-46497375D01*
X118064262Y-46512642D01*
X118187880Y-46578718D01*
X118203414Y-46587021D01*
X118325383Y-46687117D01*
X118425479Y-46809085D01*
X118499858Y-46948237D01*
X118514179Y-46995447D01*
X118545660Y-47099227D01*
X118545660Y-47099229D01*
X118557250Y-47216904D01*
X118557250Y-49795596D01*
X118553387Y-49834821D01*
X118545660Y-49913273D01*
X118515125Y-50013932D01*
X118499858Y-50064263D01*
X118425479Y-50203415D01*
X118325383Y-50325383D01*
X118203415Y-50425479D01*
X118064263Y-50499858D01*
X118013932Y-50515125D01*
X117913273Y-50545660D01*
X117756250Y-50561125D01*
X117599228Y-50545660D01*
X117498569Y-50515125D01*
X117448238Y-50499858D01*
X117309086Y-50425479D01*
X117187118Y-50325383D01*
X117087022Y-50203415D01*
X117012643Y-50064263D01*
X116997376Y-50013932D01*
X116966841Y-49913273D01*
X116959114Y-49834821D01*
X116955251Y-49795596D01*
X116955250Y-47216905D01*
X116966840Y-47099230D01*
X116966840Y-47099228D01*
X117012642Y-46948239D01*
X117012642Y-46948238D01*
X117087021Y-46809086D01*
X117118135Y-46771173D01*
X117187117Y-46687117D01*
X117309085Y-46587021D01*
X117324619Y-46578718D01*
X117448237Y-46512642D01*
X117498568Y-46497375D01*
X117599227Y-46466840D01*
X117756250Y-46451375D01*
X117913272Y-46466840D01*
G37*
G36*
X171575487Y-46754996D02*
G01*
X171706071Y-46809086D01*
X171812255Y-46853069D01*
X171954687Y-46948239D01*
X172025339Y-46995447D01*
X172206553Y-47176661D01*
X172348932Y-47389747D01*
X172447004Y-47626513D01*
X172497000Y-47877861D01*
X172497000Y-48134139D01*
X172447004Y-48385487D01*
X172348932Y-48622253D01*
X172348931Y-48622255D01*
X172206553Y-48835339D01*
X172025339Y-49016553D01*
X171812255Y-49158931D01*
X171812254Y-49158932D01*
X171812253Y-49158932D01*
X171575487Y-49257004D01*
X171324139Y-49307000D01*
X171067861Y-49307000D01*
X170816513Y-49257004D01*
X170579747Y-49158932D01*
X170579746Y-49158932D01*
X170579745Y-49158931D01*
X170366661Y-49016553D01*
X170185447Y-48835339D01*
X170043069Y-48622255D01*
X170043068Y-48622253D01*
X169944996Y-48385487D01*
X169895000Y-48134139D01*
X169895000Y-47877861D01*
X169944996Y-47626513D01*
X170043068Y-47389747D01*
X170185447Y-47176661D01*
X170366661Y-46995447D01*
X170437313Y-46948239D01*
X170579745Y-46853069D01*
X170685929Y-46809086D01*
X170816513Y-46754996D01*
X171067861Y-46705000D01*
X171324139Y-46705000D01*
X171575487Y-46754996D01*
G37*
G36*
X155444924Y-46503465D02*
G01*
X155482617Y-46514899D01*
X155517353Y-46533466D01*
X155547798Y-46558452D01*
X155572784Y-46588897D01*
X155591351Y-46623633D01*
X155602785Y-46661326D01*
X155607250Y-46706661D01*
X155607250Y-47793339D01*
X155602785Y-47838674D01*
X155591351Y-47876367D01*
X155572784Y-47911103D01*
X155547798Y-47941548D01*
X155517353Y-47966534D01*
X155482617Y-47985101D01*
X155444924Y-47996535D01*
X155399589Y-48001000D01*
X154562911Y-48001000D01*
X154517576Y-47996535D01*
X154479883Y-47985101D01*
X154445147Y-47966534D01*
X154414702Y-47941548D01*
X154389716Y-47911103D01*
X154371149Y-47876367D01*
X154359715Y-47838674D01*
X154355250Y-47793339D01*
X154355250Y-46706661D01*
X154359715Y-46661326D01*
X154371149Y-46623633D01*
X154389716Y-46588897D01*
X154414702Y-46558452D01*
X154445147Y-46533466D01*
X154479883Y-46514899D01*
X154517576Y-46503465D01*
X154562911Y-46499000D01*
X155399589Y-46499000D01*
X155444924Y-46503465D01*
G37*
G36*
X157494924Y-46503465D02*
G01*
X157532617Y-46514899D01*
X157567353Y-46533466D01*
X157597798Y-46558452D01*
X157622784Y-46588897D01*
X157641351Y-46623633D01*
X157652785Y-46661326D01*
X157657250Y-46706661D01*
X157657250Y-47793339D01*
X157652785Y-47838674D01*
X157641351Y-47876367D01*
X157622784Y-47911103D01*
X157597798Y-47941548D01*
X157567353Y-47966534D01*
X157532617Y-47985101D01*
X157494924Y-47996535D01*
X157449589Y-48001000D01*
X156612911Y-48001000D01*
X156567576Y-47996535D01*
X156529883Y-47985101D01*
X156495147Y-47966534D01*
X156464702Y-47941548D01*
X156439716Y-47911103D01*
X156421149Y-47876367D01*
X156409715Y-47838674D01*
X156405250Y-47793339D01*
X156405250Y-46706661D01*
X156409715Y-46661326D01*
X156421149Y-46623633D01*
X156439716Y-46588897D01*
X156464702Y-46558452D01*
X156495147Y-46533466D01*
X156529883Y-46514899D01*
X156567576Y-46503465D01*
X156612911Y-46499000D01*
X157449589Y-46499000D01*
X157494924Y-46503465D01*
G37*
G36*
X149338674Y-46503465D02*
G01*
X149376367Y-46514899D01*
X149411103Y-46533466D01*
X149441548Y-46558452D01*
X149466534Y-46588897D01*
X149485101Y-46623633D01*
X149496535Y-46661326D01*
X149501000Y-46706661D01*
X149501000Y-47793339D01*
X149496535Y-47838674D01*
X149485101Y-47876367D01*
X149466534Y-47911103D01*
X149441548Y-47941548D01*
X149411103Y-47966534D01*
X149376367Y-47985101D01*
X149338674Y-47996535D01*
X149293339Y-48001000D01*
X148456661Y-48001000D01*
X148411326Y-47996535D01*
X148373633Y-47985101D01*
X148338897Y-47966534D01*
X148308452Y-47941548D01*
X148283466Y-47911103D01*
X148264899Y-47876367D01*
X148253465Y-47838674D01*
X148249000Y-47793339D01*
X148249000Y-46706661D01*
X148253465Y-46661326D01*
X148264899Y-46623633D01*
X148283466Y-46588897D01*
X148308452Y-46558452D01*
X148338897Y-46533466D01*
X148373633Y-46514899D01*
X148411326Y-46503465D01*
X148456661Y-46499000D01*
X149293339Y-46499000D01*
X149338674Y-46503465D01*
G37*
G36*
X147288674Y-46503465D02*
G01*
X147326367Y-46514899D01*
X147361103Y-46533466D01*
X147391548Y-46558452D01*
X147416534Y-46588897D01*
X147435101Y-46623633D01*
X147446535Y-46661326D01*
X147451000Y-46706661D01*
X147451000Y-47793339D01*
X147446535Y-47838674D01*
X147435101Y-47876367D01*
X147416534Y-47911103D01*
X147391548Y-47941548D01*
X147361103Y-47966534D01*
X147326367Y-47985101D01*
X147288674Y-47996535D01*
X147243339Y-48001000D01*
X146406661Y-48001000D01*
X146361326Y-47996535D01*
X146323633Y-47985101D01*
X146288897Y-47966534D01*
X146258452Y-47941548D01*
X146233466Y-47911103D01*
X146214899Y-47876367D01*
X146203465Y-47838674D01*
X146199000Y-47793339D01*
X146199000Y-46706661D01*
X146203465Y-46661326D01*
X146214899Y-46623633D01*
X146233466Y-46588897D01*
X146258452Y-46558452D01*
X146288897Y-46533466D01*
X146323633Y-46514899D01*
X146361326Y-46503465D01*
X146406661Y-46499000D01*
X147243339Y-46499000D01*
X147288674Y-46503465D01*
G37*
G36*
X125307250Y-46157250D02*
G01*
X122855250Y-46157250D01*
X122855250Y-45255250D01*
X125307250Y-45255250D01*
X125307250Y-46157250D01*
G37*
G36*
X119957250Y-46157250D02*
G01*
X117505250Y-46157250D01*
X117505250Y-45255250D01*
X119957250Y-45255250D01*
X119957250Y-46157250D01*
G37*
M02*
