G04 #@! TF.GenerationSoftware,KiCad,Pcbnew,(5.1.5)-3*
G04 #@! TF.CreationDate,2020-04-12T12:06:53+02:00*
G04 #@! TF.ProjectId,4Keys,344b6579-732e-46b6-9963-61645f706362,rev?*
G04 #@! TF.SameCoordinates,Original*
G04 #@! TF.FileFunction,Copper,L1,Top*
G04 #@! TF.FilePolarity,Positive*
%FSLAX46Y46*%
G04 Gerber Fmt 4.6, Leading zero omitted, Abs format (unit mm)*
G04 Created by KiCad (PCBNEW (5.1.5)-3) date 2020-04-12 12:06:53*
%MOMM*%
%LPD*%
G04 APERTURE LIST*
%ADD10R,1.600000X1.600000*%
%ADD11C,1.600000*%
%ADD12O,1.500000X4.000000*%
%ADD13C,2.500000*%
%ADD14C,0.800000*%
%ADD15C,0.250000*%
%ADD16C,0.254000*%
G04 APERTURE END LIST*
D10*
X107493750Y-59343750D03*
D11*
X115293750Y-59343750D03*
D10*
X107306250Y-79312500D03*
D11*
X115106250Y-79312500D03*
X135262500Y-59343750D03*
D10*
X127462500Y-59343750D03*
D11*
X135150000Y-79312500D03*
D10*
X127350000Y-79312500D03*
D12*
X117756250Y-48506250D03*
X125056250Y-48506250D03*
D13*
X113990974Y-49483172D02*
X113951526Y-50061828D01*
X108800712Y-50093685D02*
X107591788Y-51991315D01*
X108818212Y-70062435D02*
X107609288Y-71960065D01*
X114008474Y-69451922D02*
X113969026Y-70030578D01*
X128693212Y-50093685D02*
X127484288Y-51991315D01*
X133883474Y-49483172D02*
X133844026Y-50061828D01*
X133883474Y-69451922D02*
X133844026Y-70030578D01*
X128693212Y-70062435D02*
X127484288Y-71960065D01*
D14*
X166116000Y-60706000D03*
X164338000Y-59436000D03*
X146050000Y-52070000D03*
X146812000Y-66294000D03*
X147320000Y-70612000D03*
X154940000Y-72136000D03*
X118872000Y-61722000D03*
X124714000Y-61505000D03*
X155956000Y-73406000D03*
X140716000Y-50038000D03*
X156464000Y-49022000D03*
X156718000Y-74168000D03*
X157568750Y-73460892D03*
X134366000Y-83058000D03*
X160274000Y-72390000D03*
X153670000Y-60960000D03*
X148590000Y-66012400D03*
X146812000Y-50800000D03*
X149098000Y-49276000D03*
X144780000Y-48260000D03*
X149760599Y-66012400D03*
X154178000Y-50800000D03*
D15*
X166116000Y-60706000D02*
X164846000Y-59436000D01*
X164846000Y-59436000D02*
X164338000Y-59436000D01*
X146812000Y-66294000D02*
X147320000Y-66802000D01*
X147320000Y-66802000D02*
X147320000Y-70612000D01*
X113971250Y-58021250D02*
X115293750Y-59343750D01*
X113971250Y-49772500D02*
X113971250Y-58021250D01*
X154940000Y-72136000D02*
X153924000Y-73152000D01*
X127462500Y-60393750D02*
X127462500Y-59343750D01*
X140220750Y-73152000D02*
X127462500Y-60393750D01*
X153924000Y-73152000D02*
X140220750Y-73152000D01*
X118872000Y-61722000D02*
X124497000Y-61722000D01*
X124497000Y-61722000D02*
X124714000Y-61505000D01*
X113988750Y-78195000D02*
X115106250Y-79312500D01*
X113988750Y-69741250D02*
X113988750Y-78195000D01*
X155956000Y-73406000D02*
X147828000Y-81534000D01*
X127350000Y-80362500D02*
X127350000Y-79312500D01*
X128521500Y-81534000D02*
X127350000Y-80362500D01*
X147828000Y-81534000D02*
X128521500Y-81534000D01*
X133863750Y-57945000D02*
X135262500Y-59343750D01*
X133863750Y-49772500D02*
X133863750Y-57945000D01*
X133863750Y-78026250D02*
X135150000Y-79312500D01*
X133863750Y-69741250D02*
X133863750Y-78026250D01*
X140716000Y-50038000D02*
X155448000Y-50038000D01*
X155448000Y-50038000D02*
X156464000Y-49022000D01*
X108213750Y-68971049D02*
X105918000Y-66675299D01*
X108213750Y-71011250D02*
X108213750Y-68971049D01*
X108196250Y-54477834D02*
X108196250Y-53082701D01*
X108196250Y-53082701D02*
X108196250Y-51042500D01*
X105918000Y-56756084D02*
X108196250Y-54477834D01*
X105918000Y-66675299D02*
X105918000Y-56756084D01*
X156718000Y-74168000D02*
X148590000Y-82296000D01*
X108213750Y-73051451D02*
X108213750Y-71011250D01*
X108213750Y-74708224D02*
X108213750Y-73051451D01*
X115801526Y-82296000D02*
X108213750Y-74708224D01*
X148590000Y-82296000D02*
X115801526Y-82296000D01*
X128994093Y-51947843D02*
X128994093Y-54901907D01*
X128088750Y-51042500D02*
X128994093Y-51947843D01*
X127183407Y-70105907D02*
X128088750Y-71011250D01*
X126337499Y-57558501D02*
X126337499Y-69259999D01*
X126337499Y-69259999D02*
X127183407Y-70105907D01*
X128994093Y-54901907D02*
X126337499Y-57558501D01*
X157568750Y-73460892D02*
X157568750Y-74390252D01*
X148901002Y-83058000D02*
X134366000Y-83058000D01*
X157568750Y-74390252D02*
X148901002Y-83058000D01*
X160274000Y-72390000D02*
X160274000Y-67564000D01*
X160274000Y-67564000D02*
X153670000Y-60960000D01*
X148590000Y-66012400D02*
X148590000Y-52578000D01*
X148590000Y-52578000D02*
X146812000Y-50800000D01*
X148698001Y-48876001D02*
X145396001Y-48876001D01*
X149098000Y-49276000D02*
X148698001Y-48876001D01*
X145396001Y-48876001D02*
X144780000Y-48260000D01*
X149760599Y-65446715D02*
X149606000Y-65292116D01*
X149760599Y-66012400D02*
X149760599Y-65446715D01*
X149606000Y-65292116D02*
X149606000Y-57912000D01*
X149606000Y-57912000D02*
X154178000Y-53340000D01*
X154178000Y-53340000D02*
X154178000Y-50800000D01*
D16*
G36*
X173779250Y-86042627D02*
G01*
X173681742Y-86123292D01*
X101939500Y-86216585D01*
X101939500Y-78512500D01*
X105868178Y-78512500D01*
X105868178Y-80112500D01*
X105880438Y-80236982D01*
X105916748Y-80356680D01*
X105975713Y-80466994D01*
X106055065Y-80563685D01*
X106151756Y-80643037D01*
X106262070Y-80702002D01*
X106381768Y-80738312D01*
X106506250Y-80750572D01*
X108106250Y-80750572D01*
X108230732Y-80738312D01*
X108350430Y-80702002D01*
X108460744Y-80643037D01*
X108557435Y-80563685D01*
X108636787Y-80466994D01*
X108695752Y-80356680D01*
X108732062Y-80236982D01*
X108744322Y-80112500D01*
X108744322Y-78512500D01*
X108732062Y-78388018D01*
X108695752Y-78268320D01*
X108636787Y-78158006D01*
X108557435Y-78061315D01*
X108460744Y-77981963D01*
X108350430Y-77922998D01*
X108230732Y-77886688D01*
X108106250Y-77874428D01*
X106506250Y-77874428D01*
X106381768Y-77886688D01*
X106262070Y-77922998D01*
X106151756Y-77981963D01*
X106055065Y-78061315D01*
X105975713Y-78158006D01*
X105916748Y-78268320D01*
X105880438Y-78388018D01*
X105868178Y-78512500D01*
X101939500Y-78512500D01*
X101939500Y-54416152D01*
X104885350Y-54416152D01*
X104885350Y-54708848D01*
X104942452Y-54995921D01*
X105054462Y-55266338D01*
X105217076Y-55509706D01*
X105424044Y-55716674D01*
X105667412Y-55879288D01*
X105704594Y-55894689D01*
X105406998Y-56192285D01*
X105378000Y-56216083D01*
X105354202Y-56245081D01*
X105354201Y-56245082D01*
X105283026Y-56331808D01*
X105212454Y-56463838D01*
X105168998Y-56607099D01*
X105154324Y-56756084D01*
X105158001Y-56793416D01*
X105158000Y-66637977D01*
X105154324Y-66675299D01*
X105158000Y-66712621D01*
X105158000Y-66712631D01*
X105168997Y-66824284D01*
X105200770Y-66929026D01*
X105212454Y-66967545D01*
X105283026Y-67099575D01*
X105315975Y-67139723D01*
X105377999Y-67215300D01*
X105407003Y-67239103D01*
X107224180Y-69056281D01*
X105969743Y-71025351D01*
X105843954Y-71273564D01*
X105743944Y-71631154D01*
X105715619Y-72001385D01*
X105760067Y-72370027D01*
X105875578Y-72722914D01*
X106057716Y-73046487D01*
X106083804Y-73076897D01*
X105955329Y-73102452D01*
X105684912Y-73214462D01*
X105441544Y-73377076D01*
X105234576Y-73584044D01*
X105071962Y-73827412D01*
X104959952Y-74097829D01*
X104902850Y-74384902D01*
X104902850Y-74677598D01*
X104959952Y-74964671D01*
X105071962Y-75235088D01*
X105234576Y-75478456D01*
X105441544Y-75685424D01*
X105684912Y-75848038D01*
X105955329Y-75960048D01*
X106242402Y-76017150D01*
X106535098Y-76017150D01*
X106822171Y-75960048D01*
X107092588Y-75848038D01*
X107335956Y-75685424D01*
X107542924Y-75478456D01*
X107688611Y-75260422D01*
X107702753Y-75272028D01*
X115237727Y-82807003D01*
X115261525Y-82836001D01*
X115377250Y-82930974D01*
X115509279Y-83001546D01*
X115652540Y-83045003D01*
X115764193Y-83056000D01*
X115764201Y-83056000D01*
X115801526Y-83059676D01*
X115838851Y-83056000D01*
X133331000Y-83056000D01*
X133331000Y-83159939D01*
X133370774Y-83359898D01*
X133448795Y-83548256D01*
X133562063Y-83717774D01*
X133706226Y-83861937D01*
X133875744Y-83975205D01*
X134064102Y-84053226D01*
X134264061Y-84093000D01*
X134467939Y-84093000D01*
X134667898Y-84053226D01*
X134856256Y-83975205D01*
X135025774Y-83861937D01*
X135069711Y-83818000D01*
X148863680Y-83818000D01*
X148901002Y-83821676D01*
X148938324Y-83818000D01*
X148938335Y-83818000D01*
X149049988Y-83807003D01*
X149193249Y-83763546D01*
X149325278Y-83692974D01*
X149441003Y-83598001D01*
X149464806Y-83568997D01*
X149907459Y-83126344D01*
X169057000Y-83126344D01*
X169057000Y-83497656D01*
X169129439Y-83861834D01*
X169271534Y-84204882D01*
X169477825Y-84513618D01*
X169740382Y-84776175D01*
X170049118Y-84982466D01*
X170392166Y-85124561D01*
X170756344Y-85197000D01*
X171127656Y-85197000D01*
X171491834Y-85124561D01*
X171834882Y-84982466D01*
X172143618Y-84776175D01*
X172406175Y-84513618D01*
X172612466Y-84204882D01*
X172754561Y-83861834D01*
X172827000Y-83497656D01*
X172827000Y-83126344D01*
X172754561Y-82762166D01*
X172612466Y-82419118D01*
X172406175Y-82110382D01*
X172143618Y-81847825D01*
X171834882Y-81641534D01*
X171491834Y-81499439D01*
X171127656Y-81427000D01*
X170756344Y-81427000D01*
X170392166Y-81499439D01*
X170049118Y-81641534D01*
X169740382Y-81847825D01*
X169477825Y-82110382D01*
X169271534Y-82419118D01*
X169129439Y-82762166D01*
X169057000Y-83126344D01*
X149907459Y-83126344D01*
X158079753Y-74954051D01*
X158108751Y-74930253D01*
X158203724Y-74814528D01*
X158274296Y-74682499D01*
X158317753Y-74539238D01*
X158328750Y-74427585D01*
X158328750Y-74427577D01*
X158332426Y-74390252D01*
X158328750Y-74352927D01*
X158328750Y-74164603D01*
X158372687Y-74120666D01*
X158485955Y-73951148D01*
X158563976Y-73762790D01*
X158603750Y-73562831D01*
X158603750Y-73358953D01*
X158563976Y-73158994D01*
X158485955Y-72970636D01*
X158372687Y-72801118D01*
X158228524Y-72656955D01*
X158059006Y-72543687D01*
X157870648Y-72465666D01*
X157670689Y-72425892D01*
X157466811Y-72425892D01*
X157266852Y-72465666D01*
X157078494Y-72543687D01*
X156908976Y-72656955D01*
X156783877Y-72782054D01*
X156759937Y-72746226D01*
X156615774Y-72602063D01*
X156446256Y-72488795D01*
X156257898Y-72410774D01*
X156057939Y-72371000D01*
X155948533Y-72371000D01*
X155975000Y-72237939D01*
X155975000Y-72034061D01*
X155935226Y-71834102D01*
X155857205Y-71645744D01*
X155743937Y-71476226D01*
X155599774Y-71332063D01*
X155430256Y-71218795D01*
X155241898Y-71140774D01*
X155041939Y-71101000D01*
X154838061Y-71101000D01*
X154638102Y-71140774D01*
X154449744Y-71218795D01*
X154280226Y-71332063D01*
X154136063Y-71476226D01*
X154022795Y-71645744D01*
X153944774Y-71834102D01*
X153905000Y-72034061D01*
X153905000Y-72096198D01*
X153609199Y-72392000D01*
X140535552Y-72392000D01*
X128724864Y-60581313D01*
X128793037Y-60498244D01*
X128852002Y-60387930D01*
X128888312Y-60268232D01*
X128900572Y-60143750D01*
X128900572Y-58543750D01*
X128888312Y-58419268D01*
X128852002Y-58299570D01*
X128793037Y-58189256D01*
X128713685Y-58092565D01*
X128616994Y-58013213D01*
X128506680Y-57954248D01*
X128386982Y-57917938D01*
X128262500Y-57905678D01*
X127097499Y-57905678D01*
X127097499Y-57873302D01*
X129073731Y-55897071D01*
X129301750Y-56238326D01*
X129667924Y-56604500D01*
X130098499Y-56892201D01*
X130576928Y-57090373D01*
X131084826Y-57191400D01*
X131602674Y-57191400D01*
X132110572Y-57090373D01*
X132589001Y-56892201D01*
X133019576Y-56604500D01*
X133103751Y-56520325D01*
X133103751Y-57907668D01*
X133100074Y-57945000D01*
X133103751Y-57982333D01*
X133112590Y-58072070D01*
X133114748Y-58093985D01*
X133158204Y-58237246D01*
X133228776Y-58369276D01*
X133299951Y-58456002D01*
X133323750Y-58485001D01*
X133352748Y-58508799D01*
X133863812Y-59019864D01*
X133827500Y-59202415D01*
X133827500Y-59485085D01*
X133882647Y-59762324D01*
X133990820Y-60023477D01*
X134147863Y-60258509D01*
X134347741Y-60458387D01*
X134582773Y-60615430D01*
X134843926Y-60723603D01*
X135121165Y-60778750D01*
X135403835Y-60778750D01*
X135681074Y-60723603D01*
X135942227Y-60615430D01*
X136177259Y-60458387D01*
X136377137Y-60258509D01*
X136534180Y-60023477D01*
X136642353Y-59762324D01*
X136697500Y-59485085D01*
X136697500Y-59202415D01*
X136642353Y-58925176D01*
X136534180Y-58664023D01*
X136377137Y-58428991D01*
X136177259Y-58229113D01*
X135942227Y-58072070D01*
X135681074Y-57963897D01*
X135403835Y-57908750D01*
X135121165Y-57908750D01*
X134938614Y-57945062D01*
X134623750Y-57630199D01*
X134623750Y-54416152D01*
X134937850Y-54416152D01*
X134937850Y-54708848D01*
X134994952Y-54995921D01*
X135106962Y-55266338D01*
X135269576Y-55509706D01*
X135476544Y-55716674D01*
X135719912Y-55879288D01*
X135990329Y-55991298D01*
X136277402Y-56048400D01*
X136570098Y-56048400D01*
X136857171Y-55991298D01*
X137127588Y-55879288D01*
X137370956Y-55716674D01*
X137577924Y-55509706D01*
X137740538Y-55266338D01*
X137852548Y-54995921D01*
X137909650Y-54708848D01*
X137909650Y-54416152D01*
X137852548Y-54129079D01*
X137740538Y-53858662D01*
X137577924Y-53615294D01*
X137370956Y-53408326D01*
X137127588Y-53245712D01*
X136857171Y-53133702D01*
X136570098Y-53076600D01*
X136277402Y-53076600D01*
X135990329Y-53133702D01*
X135719912Y-53245712D01*
X135476544Y-53408326D01*
X135269576Y-53615294D01*
X135106962Y-53858662D01*
X134994952Y-54129079D01*
X134937850Y-54416152D01*
X134623750Y-54416152D01*
X134623750Y-51778015D01*
X134786790Y-51704656D01*
X135089175Y-51489165D01*
X135343709Y-51218823D01*
X135540613Y-50904017D01*
X135672316Y-50556847D01*
X135718363Y-50282416D01*
X135741974Y-49936061D01*
X139681000Y-49936061D01*
X139681000Y-50139939D01*
X139720774Y-50339898D01*
X139798795Y-50528256D01*
X139912063Y-50697774D01*
X140056226Y-50841937D01*
X140225744Y-50955205D01*
X140414102Y-51033226D01*
X140614061Y-51073000D01*
X140817939Y-51073000D01*
X141017898Y-51033226D01*
X141206256Y-50955205D01*
X141375774Y-50841937D01*
X141419711Y-50798000D01*
X145777000Y-50798000D01*
X145777000Y-50901939D01*
X145816774Y-51101898D01*
X145894795Y-51290256D01*
X146008063Y-51459774D01*
X146152226Y-51603937D01*
X146321744Y-51717205D01*
X146510102Y-51795226D01*
X146710061Y-51835000D01*
X146772199Y-51835000D01*
X147830001Y-52892803D01*
X147830000Y-65308689D01*
X147786063Y-65352626D01*
X147672795Y-65522144D01*
X147594774Y-65710502D01*
X147555000Y-65910461D01*
X147555000Y-66114339D01*
X147594774Y-66314298D01*
X147672795Y-66502656D01*
X147786063Y-66672174D01*
X147930226Y-66816337D01*
X148099744Y-66929605D01*
X148288102Y-67007626D01*
X148488061Y-67047400D01*
X148691939Y-67047400D01*
X148891898Y-67007626D01*
X149080256Y-66929605D01*
X149175300Y-66866099D01*
X149270343Y-66929605D01*
X149458701Y-67007626D01*
X149658660Y-67047400D01*
X149862538Y-67047400D01*
X150062497Y-67007626D01*
X150250855Y-66929605D01*
X150420373Y-66816337D01*
X150564536Y-66672174D01*
X150677804Y-66502656D01*
X150755825Y-66314298D01*
X150795599Y-66114339D01*
X150795599Y-65910461D01*
X150755825Y-65710502D01*
X150677804Y-65522144D01*
X150564536Y-65352626D01*
X150509586Y-65297676D01*
X150466145Y-65154468D01*
X150395573Y-65022439D01*
X150366000Y-64986404D01*
X150366000Y-60858061D01*
X152635000Y-60858061D01*
X152635000Y-61061939D01*
X152674774Y-61261898D01*
X152752795Y-61450256D01*
X152866063Y-61619774D01*
X153010226Y-61763937D01*
X153179744Y-61877205D01*
X153368102Y-61955226D01*
X153568061Y-61995000D01*
X153630199Y-61995000D01*
X159514001Y-67878803D01*
X159514000Y-71686289D01*
X159470063Y-71730226D01*
X159356795Y-71899744D01*
X159278774Y-72088102D01*
X159239000Y-72288061D01*
X159239000Y-72491939D01*
X159278774Y-72691898D01*
X159356795Y-72880256D01*
X159470063Y-73049774D01*
X159614226Y-73193937D01*
X159783744Y-73307205D01*
X159972102Y-73385226D01*
X160172061Y-73425000D01*
X160375939Y-73425000D01*
X160575898Y-73385226D01*
X160764256Y-73307205D01*
X160933774Y-73193937D01*
X161077937Y-73049774D01*
X161191205Y-72880256D01*
X161269226Y-72691898D01*
X161309000Y-72491939D01*
X161309000Y-72288061D01*
X161269226Y-72088102D01*
X161191205Y-71899744D01*
X161077937Y-71730226D01*
X161034000Y-71686289D01*
X161034000Y-67601322D01*
X161037676Y-67563999D01*
X161034000Y-67526676D01*
X161034000Y-67526667D01*
X161023003Y-67415014D01*
X160979546Y-67271753D01*
X160908974Y-67139724D01*
X160814001Y-67023999D01*
X160785003Y-67000201D01*
X154705000Y-60920199D01*
X154705000Y-60858061D01*
X154665226Y-60658102D01*
X154587205Y-60469744D01*
X154473937Y-60300226D01*
X154329774Y-60156063D01*
X154160256Y-60042795D01*
X153971898Y-59964774D01*
X153771939Y-59925000D01*
X153568061Y-59925000D01*
X153368102Y-59964774D01*
X153179744Y-60042795D01*
X153010226Y-60156063D01*
X152866063Y-60300226D01*
X152752795Y-60469744D01*
X152674774Y-60658102D01*
X152635000Y-60858061D01*
X150366000Y-60858061D01*
X150366000Y-58226801D01*
X154689009Y-53903794D01*
X154718001Y-53880001D01*
X154741795Y-53851008D01*
X154741799Y-53851004D01*
X154812973Y-53764277D01*
X154812974Y-53764276D01*
X154883546Y-53632247D01*
X154927003Y-53488986D01*
X154938000Y-53377333D01*
X154938000Y-53377324D01*
X154941676Y-53340001D01*
X154938000Y-53302678D01*
X154938000Y-51503711D01*
X154981937Y-51459774D01*
X155095205Y-51290256D01*
X155173226Y-51101898D01*
X155213000Y-50901939D01*
X155213000Y-50798000D01*
X155410678Y-50798000D01*
X155448000Y-50801676D01*
X155485322Y-50798000D01*
X155485333Y-50798000D01*
X155596986Y-50787003D01*
X155740247Y-50743546D01*
X155872276Y-50672974D01*
X155988001Y-50578001D01*
X156011804Y-50548998D01*
X156503802Y-50057000D01*
X156565939Y-50057000D01*
X156765898Y-50017226D01*
X156954256Y-49939205D01*
X157123774Y-49825937D01*
X157267937Y-49681774D01*
X157381205Y-49512256D01*
X157459226Y-49323898D01*
X157499000Y-49123939D01*
X157499000Y-48920061D01*
X157459226Y-48720102D01*
X157381205Y-48531744D01*
X157267937Y-48362226D01*
X157123774Y-48218063D01*
X156954256Y-48104795D01*
X156765898Y-48026774D01*
X156565939Y-47987000D01*
X156362061Y-47987000D01*
X156162102Y-48026774D01*
X155973744Y-48104795D01*
X155804226Y-48218063D01*
X155660063Y-48362226D01*
X155546795Y-48531744D01*
X155468774Y-48720102D01*
X155429000Y-48920061D01*
X155429000Y-48982198D01*
X155133199Y-49278000D01*
X150133000Y-49278000D01*
X150133000Y-49174061D01*
X150093226Y-48974102D01*
X150015205Y-48785744D01*
X149901937Y-48616226D01*
X149757774Y-48472063D01*
X149588256Y-48358795D01*
X149399898Y-48280774D01*
X149199939Y-48241000D01*
X149122226Y-48241000D01*
X148990248Y-48170455D01*
X148846987Y-48126998D01*
X148735334Y-48116001D01*
X148735323Y-48116001D01*
X148698001Y-48112325D01*
X148660679Y-48116001D01*
X145806634Y-48116001D01*
X145775226Y-47958102D01*
X145718165Y-47820344D01*
X169311000Y-47820344D01*
X169311000Y-48191656D01*
X169383439Y-48555834D01*
X169525534Y-48898882D01*
X169731825Y-49207618D01*
X169994382Y-49470175D01*
X170303118Y-49676466D01*
X170646166Y-49818561D01*
X171010344Y-49891000D01*
X171381656Y-49891000D01*
X171745834Y-49818561D01*
X172088882Y-49676466D01*
X172397618Y-49470175D01*
X172660175Y-49207618D01*
X172866466Y-48898882D01*
X173008561Y-48555834D01*
X173081000Y-48191656D01*
X173081000Y-47820344D01*
X173008561Y-47456166D01*
X172866466Y-47113118D01*
X172660175Y-46804382D01*
X172397618Y-46541825D01*
X172088882Y-46335534D01*
X171745834Y-46193439D01*
X171381656Y-46121000D01*
X171010344Y-46121000D01*
X170646166Y-46193439D01*
X170303118Y-46335534D01*
X169994382Y-46541825D01*
X169731825Y-46804382D01*
X169525534Y-47113118D01*
X169383439Y-47456166D01*
X169311000Y-47820344D01*
X145718165Y-47820344D01*
X145697205Y-47769744D01*
X145583937Y-47600226D01*
X145439774Y-47456063D01*
X145270256Y-47342795D01*
X145081898Y-47264774D01*
X144881939Y-47225000D01*
X144678061Y-47225000D01*
X144478102Y-47264774D01*
X144289744Y-47342795D01*
X144120226Y-47456063D01*
X143976063Y-47600226D01*
X143862795Y-47769744D01*
X143784774Y-47958102D01*
X143745000Y-48158061D01*
X143745000Y-48361939D01*
X143784774Y-48561898D01*
X143862795Y-48750256D01*
X143976063Y-48919774D01*
X144120226Y-49063937D01*
X144289744Y-49177205D01*
X144478102Y-49255226D01*
X144592596Y-49278000D01*
X141419711Y-49278000D01*
X141375774Y-49234063D01*
X141206256Y-49120795D01*
X141017898Y-49042774D01*
X140817939Y-49003000D01*
X140614061Y-49003000D01*
X140414102Y-49042774D01*
X140225744Y-49120795D01*
X140056226Y-49234063D01*
X139912063Y-49378226D01*
X139798795Y-49547744D01*
X139720774Y-49736102D01*
X139681000Y-49936061D01*
X135741974Y-49936061D01*
X135770406Y-49518996D01*
X135762029Y-49240855D01*
X135678660Y-48879023D01*
X135526302Y-48540408D01*
X135310811Y-48238023D01*
X135040469Y-47983489D01*
X134725663Y-47786586D01*
X134378493Y-47654882D01*
X134012300Y-47593439D01*
X133641157Y-47604617D01*
X133279325Y-47687986D01*
X132940710Y-47840344D01*
X132638325Y-48055835D01*
X132383791Y-48326177D01*
X132186887Y-48640983D01*
X132055184Y-48988153D01*
X132009137Y-49262584D01*
X131957094Y-50026005D01*
X131965471Y-50304145D01*
X132048840Y-50665977D01*
X132201198Y-51004592D01*
X132416689Y-51306977D01*
X132687031Y-51561511D01*
X133001837Y-51758415D01*
X133103750Y-51797077D01*
X133103750Y-52604674D01*
X133019576Y-52520500D01*
X132589001Y-52232799D01*
X132110572Y-52034627D01*
X131602674Y-51933600D01*
X131084826Y-51933600D01*
X130576928Y-52034627D01*
X130098499Y-52232799D01*
X129754093Y-52462924D01*
X129754093Y-51985165D01*
X129757769Y-51947842D01*
X129756328Y-51933211D01*
X130332756Y-51028400D01*
X130458546Y-50780188D01*
X130558555Y-50422597D01*
X130586881Y-50052366D01*
X130542433Y-49683723D01*
X130426921Y-49330836D01*
X130244784Y-49007263D01*
X130003020Y-48725442D01*
X129710921Y-48496201D01*
X129379713Y-48328351D01*
X129022123Y-48228342D01*
X128651891Y-48200017D01*
X128283249Y-48244464D01*
X127930361Y-48359976D01*
X127606789Y-48542113D01*
X127324968Y-48783877D01*
X127153172Y-49002780D01*
X126333842Y-50288870D01*
X126389861Y-50151010D01*
X126441250Y-49883250D01*
X126441250Y-48633250D01*
X125183250Y-48633250D01*
X125183250Y-50975906D01*
X125397435Y-51098568D01*
X125468934Y-51084423D01*
X125720118Y-50978392D01*
X125945790Y-50825395D01*
X126076325Y-50693090D01*
X125844743Y-51056601D01*
X125718954Y-51304814D01*
X125618944Y-51662404D01*
X125590619Y-52032635D01*
X125635067Y-52401277D01*
X125750578Y-52754164D01*
X125932716Y-53077737D01*
X125958804Y-53108147D01*
X125830329Y-53133702D01*
X125559912Y-53245712D01*
X125316544Y-53408326D01*
X125109576Y-53615294D01*
X124946962Y-53858662D01*
X124834952Y-54129079D01*
X124777850Y-54416152D01*
X124777850Y-54708848D01*
X124834952Y-54995921D01*
X124946962Y-55266338D01*
X125109576Y-55509706D01*
X125316544Y-55716674D01*
X125559912Y-55879288D01*
X125830329Y-55991298D01*
X126117402Y-56048400D01*
X126410098Y-56048400D01*
X126697171Y-55991298D01*
X126923754Y-55897445D01*
X125826502Y-56994697D01*
X125797498Y-57018500D01*
X125742370Y-57085675D01*
X125702525Y-57134225D01*
X125663918Y-57206454D01*
X125631953Y-57266255D01*
X125588496Y-57409516D01*
X125577499Y-57521169D01*
X125577499Y-57521179D01*
X125573823Y-57558501D01*
X125577499Y-57595823D01*
X125577499Y-60934368D01*
X125517937Y-60845226D01*
X125373774Y-60701063D01*
X125204256Y-60587795D01*
X125015898Y-60509774D01*
X124815939Y-60470000D01*
X124612061Y-60470000D01*
X124412102Y-60509774D01*
X124223744Y-60587795D01*
X124054226Y-60701063D01*
X123910063Y-60845226D01*
X123832037Y-60962000D01*
X119575711Y-60962000D01*
X119531774Y-60918063D01*
X119362256Y-60804795D01*
X119173898Y-60726774D01*
X118973939Y-60687000D01*
X118770061Y-60687000D01*
X118570102Y-60726774D01*
X118381744Y-60804795D01*
X118212226Y-60918063D01*
X118068063Y-61062226D01*
X117954795Y-61231744D01*
X117876774Y-61420102D01*
X117837000Y-61620061D01*
X117837000Y-61823939D01*
X117876774Y-62023898D01*
X117954795Y-62212256D01*
X118068063Y-62381774D01*
X118212226Y-62525937D01*
X118381744Y-62639205D01*
X118570102Y-62717226D01*
X118770061Y-62757000D01*
X118973939Y-62757000D01*
X119173898Y-62717226D01*
X119362256Y-62639205D01*
X119531774Y-62525937D01*
X119575711Y-62482000D01*
X124368101Y-62482000D01*
X124412102Y-62500226D01*
X124612061Y-62540000D01*
X124815939Y-62540000D01*
X125015898Y-62500226D01*
X125204256Y-62422205D01*
X125373774Y-62308937D01*
X125517937Y-62164774D01*
X125577499Y-62075632D01*
X125577500Y-69222667D01*
X125573823Y-69259999D01*
X125588497Y-69408984D01*
X125631953Y-69552245D01*
X125702525Y-69684275D01*
X125731887Y-69720052D01*
X125797499Y-69800000D01*
X125826497Y-69823798D01*
X126305230Y-70302532D01*
X125844743Y-71025351D01*
X125718954Y-71273564D01*
X125618944Y-71631154D01*
X125590619Y-72001385D01*
X125635067Y-72370027D01*
X125750578Y-72722914D01*
X125932716Y-73046487D01*
X125958804Y-73076897D01*
X125830329Y-73102452D01*
X125559912Y-73214462D01*
X125316544Y-73377076D01*
X125109576Y-73584044D01*
X124946962Y-73827412D01*
X124834952Y-74097829D01*
X124777850Y-74384902D01*
X124777850Y-74677598D01*
X124834952Y-74964671D01*
X124946962Y-75235088D01*
X125109576Y-75478456D01*
X125316544Y-75685424D01*
X125559912Y-75848038D01*
X125830329Y-75960048D01*
X126117402Y-76017150D01*
X126410098Y-76017150D01*
X126697171Y-75960048D01*
X126967588Y-75848038D01*
X127210956Y-75685424D01*
X127417924Y-75478456D01*
X127580538Y-75235088D01*
X127692548Y-74964671D01*
X127749650Y-74677598D01*
X127749650Y-74384902D01*
X127692548Y-74097829D01*
X127588309Y-73846174D01*
X127894250Y-73809286D01*
X128247137Y-73693775D01*
X128570710Y-73511637D01*
X128852532Y-73269873D01*
X129024328Y-73050970D01*
X130332756Y-70997150D01*
X130458546Y-70748938D01*
X130558555Y-70391347D01*
X130586881Y-70021116D01*
X130542433Y-69652473D01*
X130426921Y-69299586D01*
X130244784Y-68976013D01*
X130003020Y-68694192D01*
X129710921Y-68464951D01*
X129379713Y-68297101D01*
X129022123Y-68197092D01*
X128651891Y-68168767D01*
X128283249Y-68213214D01*
X127930361Y-68328726D01*
X127606789Y-68510863D01*
X127324968Y-68752627D01*
X127153172Y-68971530D01*
X127141754Y-68989453D01*
X127097499Y-68945198D01*
X127097499Y-61103550D01*
X133581143Y-67587195D01*
X133279325Y-67656736D01*
X132940710Y-67809094D01*
X132638325Y-68024585D01*
X132383791Y-68294927D01*
X132186887Y-68609733D01*
X132055184Y-68956903D01*
X132009137Y-69231334D01*
X131957094Y-69994755D01*
X131965471Y-70272895D01*
X132048840Y-70634727D01*
X132201198Y-70973342D01*
X132416689Y-71275727D01*
X132687031Y-71530261D01*
X133001837Y-71727165D01*
X133103750Y-71765827D01*
X133103750Y-72573424D01*
X133019576Y-72489250D01*
X132589001Y-72201549D01*
X132110572Y-72003377D01*
X131602674Y-71902350D01*
X131084826Y-71902350D01*
X130576928Y-72003377D01*
X130098499Y-72201549D01*
X129667924Y-72489250D01*
X129301750Y-72855424D01*
X129014049Y-73285999D01*
X128815877Y-73764428D01*
X128714850Y-74272326D01*
X128714850Y-74790174D01*
X128815877Y-75298072D01*
X129014049Y-75776501D01*
X129301750Y-76207076D01*
X129667924Y-76573250D01*
X130098499Y-76860951D01*
X130576928Y-77059123D01*
X131084826Y-77160150D01*
X131602674Y-77160150D01*
X132110572Y-77059123D01*
X132589001Y-76860951D01*
X133019576Y-76573250D01*
X133103751Y-76489075D01*
X133103751Y-77988918D01*
X133100074Y-78026250D01*
X133114748Y-78175235D01*
X133158204Y-78318496D01*
X133228776Y-78450526D01*
X133299951Y-78537252D01*
X133323750Y-78566251D01*
X133352748Y-78590049D01*
X133751312Y-78988614D01*
X133715000Y-79171165D01*
X133715000Y-79453835D01*
X133770147Y-79731074D01*
X133878320Y-79992227D01*
X134035363Y-80227259D01*
X134235241Y-80427137D01*
X134470273Y-80584180D01*
X134731426Y-80692353D01*
X135008665Y-80747500D01*
X135291335Y-80747500D01*
X135568574Y-80692353D01*
X135829727Y-80584180D01*
X136064759Y-80427137D01*
X136264637Y-80227259D01*
X136421680Y-79992227D01*
X136529853Y-79731074D01*
X136585000Y-79453835D01*
X136585000Y-79171165D01*
X136529853Y-78893926D01*
X136421680Y-78632773D01*
X136264637Y-78397741D01*
X136064759Y-78197863D01*
X135829727Y-78040820D01*
X135568574Y-77932647D01*
X135291335Y-77877500D01*
X135008665Y-77877500D01*
X134826114Y-77913812D01*
X134623750Y-77711449D01*
X134623750Y-74384902D01*
X134937850Y-74384902D01*
X134937850Y-74677598D01*
X134994952Y-74964671D01*
X135106962Y-75235088D01*
X135269576Y-75478456D01*
X135476544Y-75685424D01*
X135719912Y-75848038D01*
X135990329Y-75960048D01*
X136277402Y-76017150D01*
X136570098Y-76017150D01*
X136857171Y-75960048D01*
X137127588Y-75848038D01*
X137370956Y-75685424D01*
X137577924Y-75478456D01*
X137740538Y-75235088D01*
X137852548Y-74964671D01*
X137909650Y-74677598D01*
X137909650Y-74384902D01*
X137852548Y-74097829D01*
X137740538Y-73827412D01*
X137577924Y-73584044D01*
X137370956Y-73377076D01*
X137127588Y-73214462D01*
X136857171Y-73102452D01*
X136570098Y-73045350D01*
X136277402Y-73045350D01*
X135990329Y-73102452D01*
X135719912Y-73214462D01*
X135476544Y-73377076D01*
X135269576Y-73584044D01*
X135106962Y-73827412D01*
X134994952Y-74097829D01*
X134937850Y-74384902D01*
X134623750Y-74384902D01*
X134623750Y-71746765D01*
X134786790Y-71673406D01*
X135089175Y-71457915D01*
X135343709Y-71187573D01*
X135540613Y-70872767D01*
X135672316Y-70525597D01*
X135718363Y-70251166D01*
X135751980Y-69758032D01*
X139656951Y-73663003D01*
X139680749Y-73692001D01*
X139796474Y-73786974D01*
X139928503Y-73857546D01*
X140071764Y-73901003D01*
X140183417Y-73912000D01*
X140183426Y-73912000D01*
X140220749Y-73915676D01*
X140258072Y-73912000D01*
X153886678Y-73912000D01*
X153924000Y-73915676D01*
X153961322Y-73912000D01*
X153961333Y-73912000D01*
X154072986Y-73901003D01*
X154216247Y-73857546D01*
X154348276Y-73786974D01*
X154464001Y-73692001D01*
X154487804Y-73662998D01*
X154939439Y-73211363D01*
X154921000Y-73304061D01*
X154921000Y-73366198D01*
X147513199Y-80774000D01*
X128836302Y-80774000D01*
X128612364Y-80550063D01*
X128680537Y-80466994D01*
X128739502Y-80356680D01*
X128775812Y-80236982D01*
X128788072Y-80112500D01*
X128788072Y-78512500D01*
X128775812Y-78388018D01*
X128739502Y-78268320D01*
X128680537Y-78158006D01*
X128601185Y-78061315D01*
X128504494Y-77981963D01*
X128394180Y-77922998D01*
X128274482Y-77886688D01*
X128150000Y-77874428D01*
X126550000Y-77874428D01*
X126425518Y-77886688D01*
X126305820Y-77922998D01*
X126195506Y-77981963D01*
X126098815Y-78061315D01*
X126019463Y-78158006D01*
X125960498Y-78268320D01*
X125924188Y-78388018D01*
X125911928Y-78512500D01*
X125911928Y-80112500D01*
X125924188Y-80236982D01*
X125960498Y-80356680D01*
X126019463Y-80466994D01*
X126098815Y-80563685D01*
X126195506Y-80643037D01*
X126305820Y-80702002D01*
X126425518Y-80738312D01*
X126550000Y-80750572D01*
X126695674Y-80750572D01*
X126715026Y-80786776D01*
X126749231Y-80828454D01*
X126809999Y-80902501D01*
X126839003Y-80926304D01*
X127448698Y-81536000D01*
X116116328Y-81536000D01*
X115314515Y-80734187D01*
X115524824Y-80692353D01*
X115785977Y-80584180D01*
X116021009Y-80427137D01*
X116220887Y-80227259D01*
X116377930Y-79992227D01*
X116486103Y-79731074D01*
X116541250Y-79453835D01*
X116541250Y-79171165D01*
X116486103Y-78893926D01*
X116377930Y-78632773D01*
X116220887Y-78397741D01*
X116021009Y-78197863D01*
X115785977Y-78040820D01*
X115524824Y-77932647D01*
X115247585Y-77877500D01*
X114964915Y-77877500D01*
X114782363Y-77913812D01*
X114748750Y-77880199D01*
X114748750Y-74384902D01*
X115062850Y-74384902D01*
X115062850Y-74677598D01*
X115119952Y-74964671D01*
X115231962Y-75235088D01*
X115394576Y-75478456D01*
X115601544Y-75685424D01*
X115844912Y-75848038D01*
X116115329Y-75960048D01*
X116402402Y-76017150D01*
X116695098Y-76017150D01*
X116982171Y-75960048D01*
X117252588Y-75848038D01*
X117495956Y-75685424D01*
X117702924Y-75478456D01*
X117865538Y-75235088D01*
X117977548Y-74964671D01*
X118034650Y-74677598D01*
X118034650Y-74384902D01*
X117977548Y-74097829D01*
X117865538Y-73827412D01*
X117702924Y-73584044D01*
X117495956Y-73377076D01*
X117252588Y-73214462D01*
X116982171Y-73102452D01*
X116695098Y-73045350D01*
X116402402Y-73045350D01*
X116115329Y-73102452D01*
X115844912Y-73214462D01*
X115601544Y-73377076D01*
X115394576Y-73584044D01*
X115231962Y-73827412D01*
X115119952Y-74097829D01*
X115062850Y-74384902D01*
X114748750Y-74384902D01*
X114748750Y-71746765D01*
X114911790Y-71673406D01*
X115214175Y-71457915D01*
X115468709Y-71187573D01*
X115665613Y-70872767D01*
X115797316Y-70525597D01*
X115843363Y-70251166D01*
X115895406Y-69487746D01*
X115887029Y-69209605D01*
X115803660Y-68847773D01*
X115651302Y-68509158D01*
X115435811Y-68206773D01*
X115165469Y-67952239D01*
X114850663Y-67755336D01*
X114503493Y-67623632D01*
X114137300Y-67562189D01*
X113766157Y-67573367D01*
X113404325Y-67656736D01*
X113065710Y-67809094D01*
X112763325Y-68024585D01*
X112508791Y-68294927D01*
X112311887Y-68609733D01*
X112180184Y-68956903D01*
X112134137Y-69231334D01*
X112082094Y-69994755D01*
X112090471Y-70272895D01*
X112173840Y-70634727D01*
X112326198Y-70973342D01*
X112541689Y-71275727D01*
X112812031Y-71530261D01*
X113126837Y-71727165D01*
X113228750Y-71765827D01*
X113228750Y-72573424D01*
X113144576Y-72489250D01*
X112714001Y-72201549D01*
X112235572Y-72003377D01*
X111727674Y-71902350D01*
X111209826Y-71902350D01*
X110701928Y-72003377D01*
X110223499Y-72201549D01*
X109792924Y-72489250D01*
X109426750Y-72855424D01*
X109139049Y-73285999D01*
X108973750Y-73685066D01*
X108973750Y-73273117D01*
X108977532Y-73269873D01*
X109149328Y-73050970D01*
X110457756Y-70997150D01*
X110583546Y-70748938D01*
X110683555Y-70391347D01*
X110711881Y-70021116D01*
X110667433Y-69652473D01*
X110551921Y-69299586D01*
X110369784Y-68976013D01*
X110128020Y-68694192D01*
X109835921Y-68464951D01*
X109504713Y-68297101D01*
X109147123Y-68197092D01*
X108776891Y-68168767D01*
X108517540Y-68200037D01*
X106678000Y-66360498D01*
X106678000Y-60780271D01*
X106693750Y-60781822D01*
X108293750Y-60781822D01*
X108418232Y-60769562D01*
X108537930Y-60733252D01*
X108648244Y-60674287D01*
X108744935Y-60594935D01*
X108824287Y-60498244D01*
X108883252Y-60387930D01*
X108919562Y-60268232D01*
X108931822Y-60143750D01*
X108931822Y-58543750D01*
X108919562Y-58419268D01*
X108883252Y-58299570D01*
X108824287Y-58189256D01*
X108744935Y-58092565D01*
X108648244Y-58013213D01*
X108537930Y-57954248D01*
X108418232Y-57917938D01*
X108293750Y-57905678D01*
X106693750Y-57905678D01*
X106678000Y-57907229D01*
X106678000Y-57070885D01*
X108707254Y-55041632D01*
X108736251Y-55017835D01*
X108762582Y-54985751D01*
X108831224Y-54902111D01*
X108836454Y-54892327D01*
X108923377Y-55329322D01*
X109121549Y-55807751D01*
X109409250Y-56238326D01*
X109775424Y-56604500D01*
X110205999Y-56892201D01*
X110684428Y-57090373D01*
X111192326Y-57191400D01*
X111710174Y-57191400D01*
X112218072Y-57090373D01*
X112696501Y-56892201D01*
X113127076Y-56604500D01*
X113211251Y-56520325D01*
X113211251Y-57983918D01*
X113207574Y-58021250D01*
X113222248Y-58170235D01*
X113265704Y-58313496D01*
X113336276Y-58445526D01*
X113344874Y-58456002D01*
X113431250Y-58561251D01*
X113460248Y-58585049D01*
X113895062Y-59019864D01*
X113858750Y-59202415D01*
X113858750Y-59485085D01*
X113913897Y-59762324D01*
X114022070Y-60023477D01*
X114179113Y-60258509D01*
X114378991Y-60458387D01*
X114614023Y-60615430D01*
X114875176Y-60723603D01*
X115152415Y-60778750D01*
X115435085Y-60778750D01*
X115712324Y-60723603D01*
X115973477Y-60615430D01*
X116208509Y-60458387D01*
X116408387Y-60258509D01*
X116565430Y-60023477D01*
X116673603Y-59762324D01*
X116728750Y-59485085D01*
X116728750Y-59202415D01*
X116673603Y-58925176D01*
X116565430Y-58664023D01*
X116408387Y-58428991D01*
X116208509Y-58229113D01*
X115973477Y-58072070D01*
X115712324Y-57963897D01*
X115435085Y-57908750D01*
X115152415Y-57908750D01*
X114969864Y-57945062D01*
X114731250Y-57706449D01*
X114731250Y-54416152D01*
X115045350Y-54416152D01*
X115045350Y-54708848D01*
X115102452Y-54995921D01*
X115214462Y-55266338D01*
X115377076Y-55509706D01*
X115584044Y-55716674D01*
X115827412Y-55879288D01*
X116097829Y-55991298D01*
X116384902Y-56048400D01*
X116677598Y-56048400D01*
X116964671Y-55991298D01*
X117235088Y-55879288D01*
X117478456Y-55716674D01*
X117685424Y-55509706D01*
X117848038Y-55266338D01*
X117960048Y-54995921D01*
X118017150Y-54708848D01*
X118017150Y-54416152D01*
X117960048Y-54129079D01*
X117848038Y-53858662D01*
X117685424Y-53615294D01*
X117478456Y-53408326D01*
X117235088Y-53245712D01*
X116964671Y-53133702D01*
X116677598Y-53076600D01*
X116384902Y-53076600D01*
X116097829Y-53133702D01*
X115827412Y-53245712D01*
X115584044Y-53408326D01*
X115377076Y-53615294D01*
X115214462Y-53858662D01*
X115102452Y-54129079D01*
X115045350Y-54416152D01*
X114731250Y-54416152D01*
X114731250Y-51778015D01*
X114894290Y-51704656D01*
X115196675Y-51489165D01*
X115451209Y-51218823D01*
X115648113Y-50904017D01*
X115779816Y-50556847D01*
X115825863Y-50282416D01*
X115877906Y-49518996D01*
X115869529Y-49240855D01*
X115786160Y-48879023D01*
X115675576Y-48633250D01*
X116371250Y-48633250D01*
X116371250Y-49883250D01*
X116422639Y-50151010D01*
X116525278Y-50403599D01*
X116675222Y-50631311D01*
X116866710Y-50825395D01*
X117092382Y-50978392D01*
X117343566Y-51084423D01*
X117415065Y-51098568D01*
X117629250Y-50975906D01*
X117629250Y-48633250D01*
X117883250Y-48633250D01*
X117883250Y-50975906D01*
X118097435Y-51098568D01*
X118168934Y-51084423D01*
X118420118Y-50978392D01*
X118645790Y-50825395D01*
X118837278Y-50631311D01*
X118987222Y-50403599D01*
X119089861Y-50151010D01*
X119141250Y-49883250D01*
X119141250Y-48633250D01*
X123671250Y-48633250D01*
X123671250Y-49883250D01*
X123722639Y-50151010D01*
X123825278Y-50403599D01*
X123975222Y-50631311D01*
X124166710Y-50825395D01*
X124392382Y-50978392D01*
X124643566Y-51084423D01*
X124715065Y-51098568D01*
X124929250Y-50975906D01*
X124929250Y-48633250D01*
X123671250Y-48633250D01*
X119141250Y-48633250D01*
X117883250Y-48633250D01*
X117629250Y-48633250D01*
X116371250Y-48633250D01*
X115675576Y-48633250D01*
X115633802Y-48540408D01*
X115418311Y-48238023D01*
X115147969Y-47983489D01*
X114833163Y-47786586D01*
X114485993Y-47654882D01*
X114119800Y-47593439D01*
X113748657Y-47604617D01*
X113386825Y-47687986D01*
X113048210Y-47840344D01*
X112745825Y-48055835D01*
X112491291Y-48326177D01*
X112294387Y-48640983D01*
X112162684Y-48988153D01*
X112116637Y-49262584D01*
X112064594Y-50026005D01*
X112072971Y-50304145D01*
X112156340Y-50665977D01*
X112308698Y-51004592D01*
X112524189Y-51306977D01*
X112794531Y-51561511D01*
X113109337Y-51758415D01*
X113211250Y-51797077D01*
X113211250Y-52604674D01*
X113127076Y-52520500D01*
X112696501Y-52232799D01*
X112218072Y-52034627D01*
X111710174Y-51933600D01*
X111192326Y-51933600D01*
X110684428Y-52034627D01*
X110205999Y-52232799D01*
X109775424Y-52520500D01*
X109409250Y-52886674D01*
X109121549Y-53317249D01*
X108956250Y-53716316D01*
X108956250Y-53304367D01*
X108960032Y-53301123D01*
X109131828Y-53082220D01*
X110440256Y-51028400D01*
X110566046Y-50780188D01*
X110666055Y-50422597D01*
X110694381Y-50052366D01*
X110649933Y-49683723D01*
X110534421Y-49330836D01*
X110352284Y-49007263D01*
X110110520Y-48725442D01*
X109818421Y-48496201D01*
X109487213Y-48328351D01*
X109129623Y-48228342D01*
X108759391Y-48200017D01*
X108390749Y-48244464D01*
X108037861Y-48359976D01*
X107714289Y-48542113D01*
X107432468Y-48783877D01*
X107260672Y-49002780D01*
X105952243Y-51056601D01*
X105826454Y-51304814D01*
X105726444Y-51662404D01*
X105698119Y-52032635D01*
X105742567Y-52401277D01*
X105858078Y-52754164D01*
X106040216Y-53077737D01*
X106066304Y-53108147D01*
X105937829Y-53133702D01*
X105667412Y-53245712D01*
X105424044Y-53408326D01*
X105217076Y-53615294D01*
X105054462Y-53858662D01*
X104942452Y-54129079D01*
X104885350Y-54416152D01*
X101939500Y-54416152D01*
X101939500Y-47129250D01*
X116371250Y-47129250D01*
X116371250Y-48379250D01*
X117629250Y-48379250D01*
X117629250Y-46036594D01*
X117883250Y-46036594D01*
X117883250Y-48379250D01*
X119141250Y-48379250D01*
X119141250Y-47129250D01*
X123671250Y-47129250D01*
X123671250Y-48379250D01*
X124929250Y-48379250D01*
X124929250Y-46036594D01*
X125183250Y-46036594D01*
X125183250Y-48379250D01*
X126441250Y-48379250D01*
X126441250Y-47129250D01*
X126389861Y-46861490D01*
X126287222Y-46608901D01*
X126137278Y-46381189D01*
X125945790Y-46187105D01*
X125720118Y-46034108D01*
X125468934Y-45928077D01*
X125397435Y-45913932D01*
X125183250Y-46036594D01*
X124929250Y-46036594D01*
X124715065Y-45913932D01*
X124643566Y-45928077D01*
X124392382Y-46034108D01*
X124166710Y-46187105D01*
X123975222Y-46381189D01*
X123825278Y-46608901D01*
X123722639Y-46861490D01*
X123671250Y-47129250D01*
X119141250Y-47129250D01*
X119089861Y-46861490D01*
X118987222Y-46608901D01*
X118837278Y-46381189D01*
X118645790Y-46187105D01*
X118420118Y-46034108D01*
X118168934Y-45928077D01*
X118097435Y-45913932D01*
X117883250Y-46036594D01*
X117629250Y-46036594D01*
X117415065Y-45913932D01*
X117343566Y-45928077D01*
X117092382Y-46034108D01*
X116866710Y-46187105D01*
X116675222Y-46381189D01*
X116525278Y-46608901D01*
X116422639Y-46861490D01*
X116371250Y-47129250D01*
X101939500Y-47129250D01*
X101939500Y-45378750D01*
X173779250Y-45378750D01*
X173779250Y-86042627D01*
G37*
X173779250Y-86042627D02*
X173681742Y-86123292D01*
X101939500Y-86216585D01*
X101939500Y-78512500D01*
X105868178Y-78512500D01*
X105868178Y-80112500D01*
X105880438Y-80236982D01*
X105916748Y-80356680D01*
X105975713Y-80466994D01*
X106055065Y-80563685D01*
X106151756Y-80643037D01*
X106262070Y-80702002D01*
X106381768Y-80738312D01*
X106506250Y-80750572D01*
X108106250Y-80750572D01*
X108230732Y-80738312D01*
X108350430Y-80702002D01*
X108460744Y-80643037D01*
X108557435Y-80563685D01*
X108636787Y-80466994D01*
X108695752Y-80356680D01*
X108732062Y-80236982D01*
X108744322Y-80112500D01*
X108744322Y-78512500D01*
X108732062Y-78388018D01*
X108695752Y-78268320D01*
X108636787Y-78158006D01*
X108557435Y-78061315D01*
X108460744Y-77981963D01*
X108350430Y-77922998D01*
X108230732Y-77886688D01*
X108106250Y-77874428D01*
X106506250Y-77874428D01*
X106381768Y-77886688D01*
X106262070Y-77922998D01*
X106151756Y-77981963D01*
X106055065Y-78061315D01*
X105975713Y-78158006D01*
X105916748Y-78268320D01*
X105880438Y-78388018D01*
X105868178Y-78512500D01*
X101939500Y-78512500D01*
X101939500Y-54416152D01*
X104885350Y-54416152D01*
X104885350Y-54708848D01*
X104942452Y-54995921D01*
X105054462Y-55266338D01*
X105217076Y-55509706D01*
X105424044Y-55716674D01*
X105667412Y-55879288D01*
X105704594Y-55894689D01*
X105406998Y-56192285D01*
X105378000Y-56216083D01*
X105354202Y-56245081D01*
X105354201Y-56245082D01*
X105283026Y-56331808D01*
X105212454Y-56463838D01*
X105168998Y-56607099D01*
X105154324Y-56756084D01*
X105158001Y-56793416D01*
X105158000Y-66637977D01*
X105154324Y-66675299D01*
X105158000Y-66712621D01*
X105158000Y-66712631D01*
X105168997Y-66824284D01*
X105200770Y-66929026D01*
X105212454Y-66967545D01*
X105283026Y-67099575D01*
X105315975Y-67139723D01*
X105377999Y-67215300D01*
X105407003Y-67239103D01*
X107224180Y-69056281D01*
X105969743Y-71025351D01*
X105843954Y-71273564D01*
X105743944Y-71631154D01*
X105715619Y-72001385D01*
X105760067Y-72370027D01*
X105875578Y-72722914D01*
X106057716Y-73046487D01*
X106083804Y-73076897D01*
X105955329Y-73102452D01*
X105684912Y-73214462D01*
X105441544Y-73377076D01*
X105234576Y-73584044D01*
X105071962Y-73827412D01*
X104959952Y-74097829D01*
X104902850Y-74384902D01*
X104902850Y-74677598D01*
X104959952Y-74964671D01*
X105071962Y-75235088D01*
X105234576Y-75478456D01*
X105441544Y-75685424D01*
X105684912Y-75848038D01*
X105955329Y-75960048D01*
X106242402Y-76017150D01*
X106535098Y-76017150D01*
X106822171Y-75960048D01*
X107092588Y-75848038D01*
X107335956Y-75685424D01*
X107542924Y-75478456D01*
X107688611Y-75260422D01*
X107702753Y-75272028D01*
X115237727Y-82807003D01*
X115261525Y-82836001D01*
X115377250Y-82930974D01*
X115509279Y-83001546D01*
X115652540Y-83045003D01*
X115764193Y-83056000D01*
X115764201Y-83056000D01*
X115801526Y-83059676D01*
X115838851Y-83056000D01*
X133331000Y-83056000D01*
X133331000Y-83159939D01*
X133370774Y-83359898D01*
X133448795Y-83548256D01*
X133562063Y-83717774D01*
X133706226Y-83861937D01*
X133875744Y-83975205D01*
X134064102Y-84053226D01*
X134264061Y-84093000D01*
X134467939Y-84093000D01*
X134667898Y-84053226D01*
X134856256Y-83975205D01*
X135025774Y-83861937D01*
X135069711Y-83818000D01*
X148863680Y-83818000D01*
X148901002Y-83821676D01*
X148938324Y-83818000D01*
X148938335Y-83818000D01*
X149049988Y-83807003D01*
X149193249Y-83763546D01*
X149325278Y-83692974D01*
X149441003Y-83598001D01*
X149464806Y-83568997D01*
X149907459Y-83126344D01*
X169057000Y-83126344D01*
X169057000Y-83497656D01*
X169129439Y-83861834D01*
X169271534Y-84204882D01*
X169477825Y-84513618D01*
X169740382Y-84776175D01*
X170049118Y-84982466D01*
X170392166Y-85124561D01*
X170756344Y-85197000D01*
X171127656Y-85197000D01*
X171491834Y-85124561D01*
X171834882Y-84982466D01*
X172143618Y-84776175D01*
X172406175Y-84513618D01*
X172612466Y-84204882D01*
X172754561Y-83861834D01*
X172827000Y-83497656D01*
X172827000Y-83126344D01*
X172754561Y-82762166D01*
X172612466Y-82419118D01*
X172406175Y-82110382D01*
X172143618Y-81847825D01*
X171834882Y-81641534D01*
X171491834Y-81499439D01*
X171127656Y-81427000D01*
X170756344Y-81427000D01*
X170392166Y-81499439D01*
X170049118Y-81641534D01*
X169740382Y-81847825D01*
X169477825Y-82110382D01*
X169271534Y-82419118D01*
X169129439Y-82762166D01*
X169057000Y-83126344D01*
X149907459Y-83126344D01*
X158079753Y-74954051D01*
X158108751Y-74930253D01*
X158203724Y-74814528D01*
X158274296Y-74682499D01*
X158317753Y-74539238D01*
X158328750Y-74427585D01*
X158328750Y-74427577D01*
X158332426Y-74390252D01*
X158328750Y-74352927D01*
X158328750Y-74164603D01*
X158372687Y-74120666D01*
X158485955Y-73951148D01*
X158563976Y-73762790D01*
X158603750Y-73562831D01*
X158603750Y-73358953D01*
X158563976Y-73158994D01*
X158485955Y-72970636D01*
X158372687Y-72801118D01*
X158228524Y-72656955D01*
X158059006Y-72543687D01*
X157870648Y-72465666D01*
X157670689Y-72425892D01*
X157466811Y-72425892D01*
X157266852Y-72465666D01*
X157078494Y-72543687D01*
X156908976Y-72656955D01*
X156783877Y-72782054D01*
X156759937Y-72746226D01*
X156615774Y-72602063D01*
X156446256Y-72488795D01*
X156257898Y-72410774D01*
X156057939Y-72371000D01*
X155948533Y-72371000D01*
X155975000Y-72237939D01*
X155975000Y-72034061D01*
X155935226Y-71834102D01*
X155857205Y-71645744D01*
X155743937Y-71476226D01*
X155599774Y-71332063D01*
X155430256Y-71218795D01*
X155241898Y-71140774D01*
X155041939Y-71101000D01*
X154838061Y-71101000D01*
X154638102Y-71140774D01*
X154449744Y-71218795D01*
X154280226Y-71332063D01*
X154136063Y-71476226D01*
X154022795Y-71645744D01*
X153944774Y-71834102D01*
X153905000Y-72034061D01*
X153905000Y-72096198D01*
X153609199Y-72392000D01*
X140535552Y-72392000D01*
X128724864Y-60581313D01*
X128793037Y-60498244D01*
X128852002Y-60387930D01*
X128888312Y-60268232D01*
X128900572Y-60143750D01*
X128900572Y-58543750D01*
X128888312Y-58419268D01*
X128852002Y-58299570D01*
X128793037Y-58189256D01*
X128713685Y-58092565D01*
X128616994Y-58013213D01*
X128506680Y-57954248D01*
X128386982Y-57917938D01*
X128262500Y-57905678D01*
X127097499Y-57905678D01*
X127097499Y-57873302D01*
X129073731Y-55897071D01*
X129301750Y-56238326D01*
X129667924Y-56604500D01*
X130098499Y-56892201D01*
X130576928Y-57090373D01*
X131084826Y-57191400D01*
X131602674Y-57191400D01*
X132110572Y-57090373D01*
X132589001Y-56892201D01*
X133019576Y-56604500D01*
X133103751Y-56520325D01*
X133103751Y-57907668D01*
X133100074Y-57945000D01*
X133103751Y-57982333D01*
X133112590Y-58072070D01*
X133114748Y-58093985D01*
X133158204Y-58237246D01*
X133228776Y-58369276D01*
X133299951Y-58456002D01*
X133323750Y-58485001D01*
X133352748Y-58508799D01*
X133863812Y-59019864D01*
X133827500Y-59202415D01*
X133827500Y-59485085D01*
X133882647Y-59762324D01*
X133990820Y-60023477D01*
X134147863Y-60258509D01*
X134347741Y-60458387D01*
X134582773Y-60615430D01*
X134843926Y-60723603D01*
X135121165Y-60778750D01*
X135403835Y-60778750D01*
X135681074Y-60723603D01*
X135942227Y-60615430D01*
X136177259Y-60458387D01*
X136377137Y-60258509D01*
X136534180Y-60023477D01*
X136642353Y-59762324D01*
X136697500Y-59485085D01*
X136697500Y-59202415D01*
X136642353Y-58925176D01*
X136534180Y-58664023D01*
X136377137Y-58428991D01*
X136177259Y-58229113D01*
X135942227Y-58072070D01*
X135681074Y-57963897D01*
X135403835Y-57908750D01*
X135121165Y-57908750D01*
X134938614Y-57945062D01*
X134623750Y-57630199D01*
X134623750Y-54416152D01*
X134937850Y-54416152D01*
X134937850Y-54708848D01*
X134994952Y-54995921D01*
X135106962Y-55266338D01*
X135269576Y-55509706D01*
X135476544Y-55716674D01*
X135719912Y-55879288D01*
X135990329Y-55991298D01*
X136277402Y-56048400D01*
X136570098Y-56048400D01*
X136857171Y-55991298D01*
X137127588Y-55879288D01*
X137370956Y-55716674D01*
X137577924Y-55509706D01*
X137740538Y-55266338D01*
X137852548Y-54995921D01*
X137909650Y-54708848D01*
X137909650Y-54416152D01*
X137852548Y-54129079D01*
X137740538Y-53858662D01*
X137577924Y-53615294D01*
X137370956Y-53408326D01*
X137127588Y-53245712D01*
X136857171Y-53133702D01*
X136570098Y-53076600D01*
X136277402Y-53076600D01*
X135990329Y-53133702D01*
X135719912Y-53245712D01*
X135476544Y-53408326D01*
X135269576Y-53615294D01*
X135106962Y-53858662D01*
X134994952Y-54129079D01*
X134937850Y-54416152D01*
X134623750Y-54416152D01*
X134623750Y-51778015D01*
X134786790Y-51704656D01*
X135089175Y-51489165D01*
X135343709Y-51218823D01*
X135540613Y-50904017D01*
X135672316Y-50556847D01*
X135718363Y-50282416D01*
X135741974Y-49936061D01*
X139681000Y-49936061D01*
X139681000Y-50139939D01*
X139720774Y-50339898D01*
X139798795Y-50528256D01*
X139912063Y-50697774D01*
X140056226Y-50841937D01*
X140225744Y-50955205D01*
X140414102Y-51033226D01*
X140614061Y-51073000D01*
X140817939Y-51073000D01*
X141017898Y-51033226D01*
X141206256Y-50955205D01*
X141375774Y-50841937D01*
X141419711Y-50798000D01*
X145777000Y-50798000D01*
X145777000Y-50901939D01*
X145816774Y-51101898D01*
X145894795Y-51290256D01*
X146008063Y-51459774D01*
X146152226Y-51603937D01*
X146321744Y-51717205D01*
X146510102Y-51795226D01*
X146710061Y-51835000D01*
X146772199Y-51835000D01*
X147830001Y-52892803D01*
X147830000Y-65308689D01*
X147786063Y-65352626D01*
X147672795Y-65522144D01*
X147594774Y-65710502D01*
X147555000Y-65910461D01*
X147555000Y-66114339D01*
X147594774Y-66314298D01*
X147672795Y-66502656D01*
X147786063Y-66672174D01*
X147930226Y-66816337D01*
X148099744Y-66929605D01*
X148288102Y-67007626D01*
X148488061Y-67047400D01*
X148691939Y-67047400D01*
X148891898Y-67007626D01*
X149080256Y-66929605D01*
X149175300Y-66866099D01*
X149270343Y-66929605D01*
X149458701Y-67007626D01*
X149658660Y-67047400D01*
X149862538Y-67047400D01*
X150062497Y-67007626D01*
X150250855Y-66929605D01*
X150420373Y-66816337D01*
X150564536Y-66672174D01*
X150677804Y-66502656D01*
X150755825Y-66314298D01*
X150795599Y-66114339D01*
X150795599Y-65910461D01*
X150755825Y-65710502D01*
X150677804Y-65522144D01*
X150564536Y-65352626D01*
X150509586Y-65297676D01*
X150466145Y-65154468D01*
X150395573Y-65022439D01*
X150366000Y-64986404D01*
X150366000Y-60858061D01*
X152635000Y-60858061D01*
X152635000Y-61061939D01*
X152674774Y-61261898D01*
X152752795Y-61450256D01*
X152866063Y-61619774D01*
X153010226Y-61763937D01*
X153179744Y-61877205D01*
X153368102Y-61955226D01*
X153568061Y-61995000D01*
X153630199Y-61995000D01*
X159514001Y-67878803D01*
X159514000Y-71686289D01*
X159470063Y-71730226D01*
X159356795Y-71899744D01*
X159278774Y-72088102D01*
X159239000Y-72288061D01*
X159239000Y-72491939D01*
X159278774Y-72691898D01*
X159356795Y-72880256D01*
X159470063Y-73049774D01*
X159614226Y-73193937D01*
X159783744Y-73307205D01*
X159972102Y-73385226D01*
X160172061Y-73425000D01*
X160375939Y-73425000D01*
X160575898Y-73385226D01*
X160764256Y-73307205D01*
X160933774Y-73193937D01*
X161077937Y-73049774D01*
X161191205Y-72880256D01*
X161269226Y-72691898D01*
X161309000Y-72491939D01*
X161309000Y-72288061D01*
X161269226Y-72088102D01*
X161191205Y-71899744D01*
X161077937Y-71730226D01*
X161034000Y-71686289D01*
X161034000Y-67601322D01*
X161037676Y-67563999D01*
X161034000Y-67526676D01*
X161034000Y-67526667D01*
X161023003Y-67415014D01*
X160979546Y-67271753D01*
X160908974Y-67139724D01*
X160814001Y-67023999D01*
X160785003Y-67000201D01*
X154705000Y-60920199D01*
X154705000Y-60858061D01*
X154665226Y-60658102D01*
X154587205Y-60469744D01*
X154473937Y-60300226D01*
X154329774Y-60156063D01*
X154160256Y-60042795D01*
X153971898Y-59964774D01*
X153771939Y-59925000D01*
X153568061Y-59925000D01*
X153368102Y-59964774D01*
X153179744Y-60042795D01*
X153010226Y-60156063D01*
X152866063Y-60300226D01*
X152752795Y-60469744D01*
X152674774Y-60658102D01*
X152635000Y-60858061D01*
X150366000Y-60858061D01*
X150366000Y-58226801D01*
X154689009Y-53903794D01*
X154718001Y-53880001D01*
X154741795Y-53851008D01*
X154741799Y-53851004D01*
X154812973Y-53764277D01*
X154812974Y-53764276D01*
X154883546Y-53632247D01*
X154927003Y-53488986D01*
X154938000Y-53377333D01*
X154938000Y-53377324D01*
X154941676Y-53340001D01*
X154938000Y-53302678D01*
X154938000Y-51503711D01*
X154981937Y-51459774D01*
X155095205Y-51290256D01*
X155173226Y-51101898D01*
X155213000Y-50901939D01*
X155213000Y-50798000D01*
X155410678Y-50798000D01*
X155448000Y-50801676D01*
X155485322Y-50798000D01*
X155485333Y-50798000D01*
X155596986Y-50787003D01*
X155740247Y-50743546D01*
X155872276Y-50672974D01*
X155988001Y-50578001D01*
X156011804Y-50548998D01*
X156503802Y-50057000D01*
X156565939Y-50057000D01*
X156765898Y-50017226D01*
X156954256Y-49939205D01*
X157123774Y-49825937D01*
X157267937Y-49681774D01*
X157381205Y-49512256D01*
X157459226Y-49323898D01*
X157499000Y-49123939D01*
X157499000Y-48920061D01*
X157459226Y-48720102D01*
X157381205Y-48531744D01*
X157267937Y-48362226D01*
X157123774Y-48218063D01*
X156954256Y-48104795D01*
X156765898Y-48026774D01*
X156565939Y-47987000D01*
X156362061Y-47987000D01*
X156162102Y-48026774D01*
X155973744Y-48104795D01*
X155804226Y-48218063D01*
X155660063Y-48362226D01*
X155546795Y-48531744D01*
X155468774Y-48720102D01*
X155429000Y-48920061D01*
X155429000Y-48982198D01*
X155133199Y-49278000D01*
X150133000Y-49278000D01*
X150133000Y-49174061D01*
X150093226Y-48974102D01*
X150015205Y-48785744D01*
X149901937Y-48616226D01*
X149757774Y-48472063D01*
X149588256Y-48358795D01*
X149399898Y-48280774D01*
X149199939Y-48241000D01*
X149122226Y-48241000D01*
X148990248Y-48170455D01*
X148846987Y-48126998D01*
X148735334Y-48116001D01*
X148735323Y-48116001D01*
X148698001Y-48112325D01*
X148660679Y-48116001D01*
X145806634Y-48116001D01*
X145775226Y-47958102D01*
X145718165Y-47820344D01*
X169311000Y-47820344D01*
X169311000Y-48191656D01*
X169383439Y-48555834D01*
X169525534Y-48898882D01*
X169731825Y-49207618D01*
X169994382Y-49470175D01*
X170303118Y-49676466D01*
X170646166Y-49818561D01*
X171010344Y-49891000D01*
X171381656Y-49891000D01*
X171745834Y-49818561D01*
X172088882Y-49676466D01*
X172397618Y-49470175D01*
X172660175Y-49207618D01*
X172866466Y-48898882D01*
X173008561Y-48555834D01*
X173081000Y-48191656D01*
X173081000Y-47820344D01*
X173008561Y-47456166D01*
X172866466Y-47113118D01*
X172660175Y-46804382D01*
X172397618Y-46541825D01*
X172088882Y-46335534D01*
X171745834Y-46193439D01*
X171381656Y-46121000D01*
X171010344Y-46121000D01*
X170646166Y-46193439D01*
X170303118Y-46335534D01*
X169994382Y-46541825D01*
X169731825Y-46804382D01*
X169525534Y-47113118D01*
X169383439Y-47456166D01*
X169311000Y-47820344D01*
X145718165Y-47820344D01*
X145697205Y-47769744D01*
X145583937Y-47600226D01*
X145439774Y-47456063D01*
X145270256Y-47342795D01*
X145081898Y-47264774D01*
X144881939Y-47225000D01*
X144678061Y-47225000D01*
X144478102Y-47264774D01*
X144289744Y-47342795D01*
X144120226Y-47456063D01*
X143976063Y-47600226D01*
X143862795Y-47769744D01*
X143784774Y-47958102D01*
X143745000Y-48158061D01*
X143745000Y-48361939D01*
X143784774Y-48561898D01*
X143862795Y-48750256D01*
X143976063Y-48919774D01*
X144120226Y-49063937D01*
X144289744Y-49177205D01*
X144478102Y-49255226D01*
X144592596Y-49278000D01*
X141419711Y-49278000D01*
X141375774Y-49234063D01*
X141206256Y-49120795D01*
X141017898Y-49042774D01*
X140817939Y-49003000D01*
X140614061Y-49003000D01*
X140414102Y-49042774D01*
X140225744Y-49120795D01*
X140056226Y-49234063D01*
X139912063Y-49378226D01*
X139798795Y-49547744D01*
X139720774Y-49736102D01*
X139681000Y-49936061D01*
X135741974Y-49936061D01*
X135770406Y-49518996D01*
X135762029Y-49240855D01*
X135678660Y-48879023D01*
X135526302Y-48540408D01*
X135310811Y-48238023D01*
X135040469Y-47983489D01*
X134725663Y-47786586D01*
X134378493Y-47654882D01*
X134012300Y-47593439D01*
X133641157Y-47604617D01*
X133279325Y-47687986D01*
X132940710Y-47840344D01*
X132638325Y-48055835D01*
X132383791Y-48326177D01*
X132186887Y-48640983D01*
X132055184Y-48988153D01*
X132009137Y-49262584D01*
X131957094Y-50026005D01*
X131965471Y-50304145D01*
X132048840Y-50665977D01*
X132201198Y-51004592D01*
X132416689Y-51306977D01*
X132687031Y-51561511D01*
X133001837Y-51758415D01*
X133103750Y-51797077D01*
X133103750Y-52604674D01*
X133019576Y-52520500D01*
X132589001Y-52232799D01*
X132110572Y-52034627D01*
X131602674Y-51933600D01*
X131084826Y-51933600D01*
X130576928Y-52034627D01*
X130098499Y-52232799D01*
X129754093Y-52462924D01*
X129754093Y-51985165D01*
X129757769Y-51947842D01*
X129756328Y-51933211D01*
X130332756Y-51028400D01*
X130458546Y-50780188D01*
X130558555Y-50422597D01*
X130586881Y-50052366D01*
X130542433Y-49683723D01*
X130426921Y-49330836D01*
X130244784Y-49007263D01*
X130003020Y-48725442D01*
X129710921Y-48496201D01*
X129379713Y-48328351D01*
X129022123Y-48228342D01*
X128651891Y-48200017D01*
X128283249Y-48244464D01*
X127930361Y-48359976D01*
X127606789Y-48542113D01*
X127324968Y-48783877D01*
X127153172Y-49002780D01*
X126333842Y-50288870D01*
X126389861Y-50151010D01*
X126441250Y-49883250D01*
X126441250Y-48633250D01*
X125183250Y-48633250D01*
X125183250Y-50975906D01*
X125397435Y-51098568D01*
X125468934Y-51084423D01*
X125720118Y-50978392D01*
X125945790Y-50825395D01*
X126076325Y-50693090D01*
X125844743Y-51056601D01*
X125718954Y-51304814D01*
X125618944Y-51662404D01*
X125590619Y-52032635D01*
X125635067Y-52401277D01*
X125750578Y-52754164D01*
X125932716Y-53077737D01*
X125958804Y-53108147D01*
X125830329Y-53133702D01*
X125559912Y-53245712D01*
X125316544Y-53408326D01*
X125109576Y-53615294D01*
X124946962Y-53858662D01*
X124834952Y-54129079D01*
X124777850Y-54416152D01*
X124777850Y-54708848D01*
X124834952Y-54995921D01*
X124946962Y-55266338D01*
X125109576Y-55509706D01*
X125316544Y-55716674D01*
X125559912Y-55879288D01*
X125830329Y-55991298D01*
X126117402Y-56048400D01*
X126410098Y-56048400D01*
X126697171Y-55991298D01*
X126923754Y-55897445D01*
X125826502Y-56994697D01*
X125797498Y-57018500D01*
X125742370Y-57085675D01*
X125702525Y-57134225D01*
X125663918Y-57206454D01*
X125631953Y-57266255D01*
X125588496Y-57409516D01*
X125577499Y-57521169D01*
X125577499Y-57521179D01*
X125573823Y-57558501D01*
X125577499Y-57595823D01*
X125577499Y-60934368D01*
X125517937Y-60845226D01*
X125373774Y-60701063D01*
X125204256Y-60587795D01*
X125015898Y-60509774D01*
X124815939Y-60470000D01*
X124612061Y-60470000D01*
X124412102Y-60509774D01*
X124223744Y-60587795D01*
X124054226Y-60701063D01*
X123910063Y-60845226D01*
X123832037Y-60962000D01*
X119575711Y-60962000D01*
X119531774Y-60918063D01*
X119362256Y-60804795D01*
X119173898Y-60726774D01*
X118973939Y-60687000D01*
X118770061Y-60687000D01*
X118570102Y-60726774D01*
X118381744Y-60804795D01*
X118212226Y-60918063D01*
X118068063Y-61062226D01*
X117954795Y-61231744D01*
X117876774Y-61420102D01*
X117837000Y-61620061D01*
X117837000Y-61823939D01*
X117876774Y-62023898D01*
X117954795Y-62212256D01*
X118068063Y-62381774D01*
X118212226Y-62525937D01*
X118381744Y-62639205D01*
X118570102Y-62717226D01*
X118770061Y-62757000D01*
X118973939Y-62757000D01*
X119173898Y-62717226D01*
X119362256Y-62639205D01*
X119531774Y-62525937D01*
X119575711Y-62482000D01*
X124368101Y-62482000D01*
X124412102Y-62500226D01*
X124612061Y-62540000D01*
X124815939Y-62540000D01*
X125015898Y-62500226D01*
X125204256Y-62422205D01*
X125373774Y-62308937D01*
X125517937Y-62164774D01*
X125577499Y-62075632D01*
X125577500Y-69222667D01*
X125573823Y-69259999D01*
X125588497Y-69408984D01*
X125631953Y-69552245D01*
X125702525Y-69684275D01*
X125731887Y-69720052D01*
X125797499Y-69800000D01*
X125826497Y-69823798D01*
X126305230Y-70302532D01*
X125844743Y-71025351D01*
X125718954Y-71273564D01*
X125618944Y-71631154D01*
X125590619Y-72001385D01*
X125635067Y-72370027D01*
X125750578Y-72722914D01*
X125932716Y-73046487D01*
X125958804Y-73076897D01*
X125830329Y-73102452D01*
X125559912Y-73214462D01*
X125316544Y-73377076D01*
X125109576Y-73584044D01*
X124946962Y-73827412D01*
X124834952Y-74097829D01*
X124777850Y-74384902D01*
X124777850Y-74677598D01*
X124834952Y-74964671D01*
X124946962Y-75235088D01*
X125109576Y-75478456D01*
X125316544Y-75685424D01*
X125559912Y-75848038D01*
X125830329Y-75960048D01*
X126117402Y-76017150D01*
X126410098Y-76017150D01*
X126697171Y-75960048D01*
X126967588Y-75848038D01*
X127210956Y-75685424D01*
X127417924Y-75478456D01*
X127580538Y-75235088D01*
X127692548Y-74964671D01*
X127749650Y-74677598D01*
X127749650Y-74384902D01*
X127692548Y-74097829D01*
X127588309Y-73846174D01*
X127894250Y-73809286D01*
X128247137Y-73693775D01*
X128570710Y-73511637D01*
X128852532Y-73269873D01*
X129024328Y-73050970D01*
X130332756Y-70997150D01*
X130458546Y-70748938D01*
X130558555Y-70391347D01*
X130586881Y-70021116D01*
X130542433Y-69652473D01*
X130426921Y-69299586D01*
X130244784Y-68976013D01*
X130003020Y-68694192D01*
X129710921Y-68464951D01*
X129379713Y-68297101D01*
X129022123Y-68197092D01*
X128651891Y-68168767D01*
X128283249Y-68213214D01*
X127930361Y-68328726D01*
X127606789Y-68510863D01*
X127324968Y-68752627D01*
X127153172Y-68971530D01*
X127141754Y-68989453D01*
X127097499Y-68945198D01*
X127097499Y-61103550D01*
X133581143Y-67587195D01*
X133279325Y-67656736D01*
X132940710Y-67809094D01*
X132638325Y-68024585D01*
X132383791Y-68294927D01*
X132186887Y-68609733D01*
X132055184Y-68956903D01*
X132009137Y-69231334D01*
X131957094Y-69994755D01*
X131965471Y-70272895D01*
X132048840Y-70634727D01*
X132201198Y-70973342D01*
X132416689Y-71275727D01*
X132687031Y-71530261D01*
X133001837Y-71727165D01*
X133103750Y-71765827D01*
X133103750Y-72573424D01*
X133019576Y-72489250D01*
X132589001Y-72201549D01*
X132110572Y-72003377D01*
X131602674Y-71902350D01*
X131084826Y-71902350D01*
X130576928Y-72003377D01*
X130098499Y-72201549D01*
X129667924Y-72489250D01*
X129301750Y-72855424D01*
X129014049Y-73285999D01*
X128815877Y-73764428D01*
X128714850Y-74272326D01*
X128714850Y-74790174D01*
X128815877Y-75298072D01*
X129014049Y-75776501D01*
X129301750Y-76207076D01*
X129667924Y-76573250D01*
X130098499Y-76860951D01*
X130576928Y-77059123D01*
X131084826Y-77160150D01*
X131602674Y-77160150D01*
X132110572Y-77059123D01*
X132589001Y-76860951D01*
X133019576Y-76573250D01*
X133103751Y-76489075D01*
X133103751Y-77988918D01*
X133100074Y-78026250D01*
X133114748Y-78175235D01*
X133158204Y-78318496D01*
X133228776Y-78450526D01*
X133299951Y-78537252D01*
X133323750Y-78566251D01*
X133352748Y-78590049D01*
X133751312Y-78988614D01*
X133715000Y-79171165D01*
X133715000Y-79453835D01*
X133770147Y-79731074D01*
X133878320Y-79992227D01*
X134035363Y-80227259D01*
X134235241Y-80427137D01*
X134470273Y-80584180D01*
X134731426Y-80692353D01*
X135008665Y-80747500D01*
X135291335Y-80747500D01*
X135568574Y-80692353D01*
X135829727Y-80584180D01*
X136064759Y-80427137D01*
X136264637Y-80227259D01*
X136421680Y-79992227D01*
X136529853Y-79731074D01*
X136585000Y-79453835D01*
X136585000Y-79171165D01*
X136529853Y-78893926D01*
X136421680Y-78632773D01*
X136264637Y-78397741D01*
X136064759Y-78197863D01*
X135829727Y-78040820D01*
X135568574Y-77932647D01*
X135291335Y-77877500D01*
X135008665Y-77877500D01*
X134826114Y-77913812D01*
X134623750Y-77711449D01*
X134623750Y-74384902D01*
X134937850Y-74384902D01*
X134937850Y-74677598D01*
X134994952Y-74964671D01*
X135106962Y-75235088D01*
X135269576Y-75478456D01*
X135476544Y-75685424D01*
X135719912Y-75848038D01*
X135990329Y-75960048D01*
X136277402Y-76017150D01*
X136570098Y-76017150D01*
X136857171Y-75960048D01*
X137127588Y-75848038D01*
X137370956Y-75685424D01*
X137577924Y-75478456D01*
X137740538Y-75235088D01*
X137852548Y-74964671D01*
X137909650Y-74677598D01*
X137909650Y-74384902D01*
X137852548Y-74097829D01*
X137740538Y-73827412D01*
X137577924Y-73584044D01*
X137370956Y-73377076D01*
X137127588Y-73214462D01*
X136857171Y-73102452D01*
X136570098Y-73045350D01*
X136277402Y-73045350D01*
X135990329Y-73102452D01*
X135719912Y-73214462D01*
X135476544Y-73377076D01*
X135269576Y-73584044D01*
X135106962Y-73827412D01*
X134994952Y-74097829D01*
X134937850Y-74384902D01*
X134623750Y-74384902D01*
X134623750Y-71746765D01*
X134786790Y-71673406D01*
X135089175Y-71457915D01*
X135343709Y-71187573D01*
X135540613Y-70872767D01*
X135672316Y-70525597D01*
X135718363Y-70251166D01*
X135751980Y-69758032D01*
X139656951Y-73663003D01*
X139680749Y-73692001D01*
X139796474Y-73786974D01*
X139928503Y-73857546D01*
X140071764Y-73901003D01*
X140183417Y-73912000D01*
X140183426Y-73912000D01*
X140220749Y-73915676D01*
X140258072Y-73912000D01*
X153886678Y-73912000D01*
X153924000Y-73915676D01*
X153961322Y-73912000D01*
X153961333Y-73912000D01*
X154072986Y-73901003D01*
X154216247Y-73857546D01*
X154348276Y-73786974D01*
X154464001Y-73692001D01*
X154487804Y-73662998D01*
X154939439Y-73211363D01*
X154921000Y-73304061D01*
X154921000Y-73366198D01*
X147513199Y-80774000D01*
X128836302Y-80774000D01*
X128612364Y-80550063D01*
X128680537Y-80466994D01*
X128739502Y-80356680D01*
X128775812Y-80236982D01*
X128788072Y-80112500D01*
X128788072Y-78512500D01*
X128775812Y-78388018D01*
X128739502Y-78268320D01*
X128680537Y-78158006D01*
X128601185Y-78061315D01*
X128504494Y-77981963D01*
X128394180Y-77922998D01*
X128274482Y-77886688D01*
X128150000Y-77874428D01*
X126550000Y-77874428D01*
X126425518Y-77886688D01*
X126305820Y-77922998D01*
X126195506Y-77981963D01*
X126098815Y-78061315D01*
X126019463Y-78158006D01*
X125960498Y-78268320D01*
X125924188Y-78388018D01*
X125911928Y-78512500D01*
X125911928Y-80112500D01*
X125924188Y-80236982D01*
X125960498Y-80356680D01*
X126019463Y-80466994D01*
X126098815Y-80563685D01*
X126195506Y-80643037D01*
X126305820Y-80702002D01*
X126425518Y-80738312D01*
X126550000Y-80750572D01*
X126695674Y-80750572D01*
X126715026Y-80786776D01*
X126749231Y-80828454D01*
X126809999Y-80902501D01*
X126839003Y-80926304D01*
X127448698Y-81536000D01*
X116116328Y-81536000D01*
X115314515Y-80734187D01*
X115524824Y-80692353D01*
X115785977Y-80584180D01*
X116021009Y-80427137D01*
X116220887Y-80227259D01*
X116377930Y-79992227D01*
X116486103Y-79731074D01*
X116541250Y-79453835D01*
X116541250Y-79171165D01*
X116486103Y-78893926D01*
X116377930Y-78632773D01*
X116220887Y-78397741D01*
X116021009Y-78197863D01*
X115785977Y-78040820D01*
X115524824Y-77932647D01*
X115247585Y-77877500D01*
X114964915Y-77877500D01*
X114782363Y-77913812D01*
X114748750Y-77880199D01*
X114748750Y-74384902D01*
X115062850Y-74384902D01*
X115062850Y-74677598D01*
X115119952Y-74964671D01*
X115231962Y-75235088D01*
X115394576Y-75478456D01*
X115601544Y-75685424D01*
X115844912Y-75848038D01*
X116115329Y-75960048D01*
X116402402Y-76017150D01*
X116695098Y-76017150D01*
X116982171Y-75960048D01*
X117252588Y-75848038D01*
X117495956Y-75685424D01*
X117702924Y-75478456D01*
X117865538Y-75235088D01*
X117977548Y-74964671D01*
X118034650Y-74677598D01*
X118034650Y-74384902D01*
X117977548Y-74097829D01*
X117865538Y-73827412D01*
X117702924Y-73584044D01*
X117495956Y-73377076D01*
X117252588Y-73214462D01*
X116982171Y-73102452D01*
X116695098Y-73045350D01*
X116402402Y-73045350D01*
X116115329Y-73102452D01*
X115844912Y-73214462D01*
X115601544Y-73377076D01*
X115394576Y-73584044D01*
X115231962Y-73827412D01*
X115119952Y-74097829D01*
X115062850Y-74384902D01*
X114748750Y-74384902D01*
X114748750Y-71746765D01*
X114911790Y-71673406D01*
X115214175Y-71457915D01*
X115468709Y-71187573D01*
X115665613Y-70872767D01*
X115797316Y-70525597D01*
X115843363Y-70251166D01*
X115895406Y-69487746D01*
X115887029Y-69209605D01*
X115803660Y-68847773D01*
X115651302Y-68509158D01*
X115435811Y-68206773D01*
X115165469Y-67952239D01*
X114850663Y-67755336D01*
X114503493Y-67623632D01*
X114137300Y-67562189D01*
X113766157Y-67573367D01*
X113404325Y-67656736D01*
X113065710Y-67809094D01*
X112763325Y-68024585D01*
X112508791Y-68294927D01*
X112311887Y-68609733D01*
X112180184Y-68956903D01*
X112134137Y-69231334D01*
X112082094Y-69994755D01*
X112090471Y-70272895D01*
X112173840Y-70634727D01*
X112326198Y-70973342D01*
X112541689Y-71275727D01*
X112812031Y-71530261D01*
X113126837Y-71727165D01*
X113228750Y-71765827D01*
X113228750Y-72573424D01*
X113144576Y-72489250D01*
X112714001Y-72201549D01*
X112235572Y-72003377D01*
X111727674Y-71902350D01*
X111209826Y-71902350D01*
X110701928Y-72003377D01*
X110223499Y-72201549D01*
X109792924Y-72489250D01*
X109426750Y-72855424D01*
X109139049Y-73285999D01*
X108973750Y-73685066D01*
X108973750Y-73273117D01*
X108977532Y-73269873D01*
X109149328Y-73050970D01*
X110457756Y-70997150D01*
X110583546Y-70748938D01*
X110683555Y-70391347D01*
X110711881Y-70021116D01*
X110667433Y-69652473D01*
X110551921Y-69299586D01*
X110369784Y-68976013D01*
X110128020Y-68694192D01*
X109835921Y-68464951D01*
X109504713Y-68297101D01*
X109147123Y-68197092D01*
X108776891Y-68168767D01*
X108517540Y-68200037D01*
X106678000Y-66360498D01*
X106678000Y-60780271D01*
X106693750Y-60781822D01*
X108293750Y-60781822D01*
X108418232Y-60769562D01*
X108537930Y-60733252D01*
X108648244Y-60674287D01*
X108744935Y-60594935D01*
X108824287Y-60498244D01*
X108883252Y-60387930D01*
X108919562Y-60268232D01*
X108931822Y-60143750D01*
X108931822Y-58543750D01*
X108919562Y-58419268D01*
X108883252Y-58299570D01*
X108824287Y-58189256D01*
X108744935Y-58092565D01*
X108648244Y-58013213D01*
X108537930Y-57954248D01*
X108418232Y-57917938D01*
X108293750Y-57905678D01*
X106693750Y-57905678D01*
X106678000Y-57907229D01*
X106678000Y-57070885D01*
X108707254Y-55041632D01*
X108736251Y-55017835D01*
X108762582Y-54985751D01*
X108831224Y-54902111D01*
X108836454Y-54892327D01*
X108923377Y-55329322D01*
X109121549Y-55807751D01*
X109409250Y-56238326D01*
X109775424Y-56604500D01*
X110205999Y-56892201D01*
X110684428Y-57090373D01*
X111192326Y-57191400D01*
X111710174Y-57191400D01*
X112218072Y-57090373D01*
X112696501Y-56892201D01*
X113127076Y-56604500D01*
X113211251Y-56520325D01*
X113211251Y-57983918D01*
X113207574Y-58021250D01*
X113222248Y-58170235D01*
X113265704Y-58313496D01*
X113336276Y-58445526D01*
X113344874Y-58456002D01*
X113431250Y-58561251D01*
X113460248Y-58585049D01*
X113895062Y-59019864D01*
X113858750Y-59202415D01*
X113858750Y-59485085D01*
X113913897Y-59762324D01*
X114022070Y-60023477D01*
X114179113Y-60258509D01*
X114378991Y-60458387D01*
X114614023Y-60615430D01*
X114875176Y-60723603D01*
X115152415Y-60778750D01*
X115435085Y-60778750D01*
X115712324Y-60723603D01*
X115973477Y-60615430D01*
X116208509Y-60458387D01*
X116408387Y-60258509D01*
X116565430Y-60023477D01*
X116673603Y-59762324D01*
X116728750Y-59485085D01*
X116728750Y-59202415D01*
X116673603Y-58925176D01*
X116565430Y-58664023D01*
X116408387Y-58428991D01*
X116208509Y-58229113D01*
X115973477Y-58072070D01*
X115712324Y-57963897D01*
X115435085Y-57908750D01*
X115152415Y-57908750D01*
X114969864Y-57945062D01*
X114731250Y-57706449D01*
X114731250Y-54416152D01*
X115045350Y-54416152D01*
X115045350Y-54708848D01*
X115102452Y-54995921D01*
X115214462Y-55266338D01*
X115377076Y-55509706D01*
X115584044Y-55716674D01*
X115827412Y-55879288D01*
X116097829Y-55991298D01*
X116384902Y-56048400D01*
X116677598Y-56048400D01*
X116964671Y-55991298D01*
X117235088Y-55879288D01*
X117478456Y-55716674D01*
X117685424Y-55509706D01*
X117848038Y-55266338D01*
X117960048Y-54995921D01*
X118017150Y-54708848D01*
X118017150Y-54416152D01*
X117960048Y-54129079D01*
X117848038Y-53858662D01*
X117685424Y-53615294D01*
X117478456Y-53408326D01*
X117235088Y-53245712D01*
X116964671Y-53133702D01*
X116677598Y-53076600D01*
X116384902Y-53076600D01*
X116097829Y-53133702D01*
X115827412Y-53245712D01*
X115584044Y-53408326D01*
X115377076Y-53615294D01*
X115214462Y-53858662D01*
X115102452Y-54129079D01*
X115045350Y-54416152D01*
X114731250Y-54416152D01*
X114731250Y-51778015D01*
X114894290Y-51704656D01*
X115196675Y-51489165D01*
X115451209Y-51218823D01*
X115648113Y-50904017D01*
X115779816Y-50556847D01*
X115825863Y-50282416D01*
X115877906Y-49518996D01*
X115869529Y-49240855D01*
X115786160Y-48879023D01*
X115675576Y-48633250D01*
X116371250Y-48633250D01*
X116371250Y-49883250D01*
X116422639Y-50151010D01*
X116525278Y-50403599D01*
X116675222Y-50631311D01*
X116866710Y-50825395D01*
X117092382Y-50978392D01*
X117343566Y-51084423D01*
X117415065Y-51098568D01*
X117629250Y-50975906D01*
X117629250Y-48633250D01*
X117883250Y-48633250D01*
X117883250Y-50975906D01*
X118097435Y-51098568D01*
X118168934Y-51084423D01*
X118420118Y-50978392D01*
X118645790Y-50825395D01*
X118837278Y-50631311D01*
X118987222Y-50403599D01*
X119089861Y-50151010D01*
X119141250Y-49883250D01*
X119141250Y-48633250D01*
X123671250Y-48633250D01*
X123671250Y-49883250D01*
X123722639Y-50151010D01*
X123825278Y-50403599D01*
X123975222Y-50631311D01*
X124166710Y-50825395D01*
X124392382Y-50978392D01*
X124643566Y-51084423D01*
X124715065Y-51098568D01*
X124929250Y-50975906D01*
X124929250Y-48633250D01*
X123671250Y-48633250D01*
X119141250Y-48633250D01*
X117883250Y-48633250D01*
X117629250Y-48633250D01*
X116371250Y-48633250D01*
X115675576Y-48633250D01*
X115633802Y-48540408D01*
X115418311Y-48238023D01*
X115147969Y-47983489D01*
X114833163Y-47786586D01*
X114485993Y-47654882D01*
X114119800Y-47593439D01*
X113748657Y-47604617D01*
X113386825Y-47687986D01*
X113048210Y-47840344D01*
X112745825Y-48055835D01*
X112491291Y-48326177D01*
X112294387Y-48640983D01*
X112162684Y-48988153D01*
X112116637Y-49262584D01*
X112064594Y-50026005D01*
X112072971Y-50304145D01*
X112156340Y-50665977D01*
X112308698Y-51004592D01*
X112524189Y-51306977D01*
X112794531Y-51561511D01*
X113109337Y-51758415D01*
X113211250Y-51797077D01*
X113211250Y-52604674D01*
X113127076Y-52520500D01*
X112696501Y-52232799D01*
X112218072Y-52034627D01*
X111710174Y-51933600D01*
X111192326Y-51933600D01*
X110684428Y-52034627D01*
X110205999Y-52232799D01*
X109775424Y-52520500D01*
X109409250Y-52886674D01*
X109121549Y-53317249D01*
X108956250Y-53716316D01*
X108956250Y-53304367D01*
X108960032Y-53301123D01*
X109131828Y-53082220D01*
X110440256Y-51028400D01*
X110566046Y-50780188D01*
X110666055Y-50422597D01*
X110694381Y-50052366D01*
X110649933Y-49683723D01*
X110534421Y-49330836D01*
X110352284Y-49007263D01*
X110110520Y-48725442D01*
X109818421Y-48496201D01*
X109487213Y-48328351D01*
X109129623Y-48228342D01*
X108759391Y-48200017D01*
X108390749Y-48244464D01*
X108037861Y-48359976D01*
X107714289Y-48542113D01*
X107432468Y-48783877D01*
X107260672Y-49002780D01*
X105952243Y-51056601D01*
X105826454Y-51304814D01*
X105726444Y-51662404D01*
X105698119Y-52032635D01*
X105742567Y-52401277D01*
X105858078Y-52754164D01*
X106040216Y-53077737D01*
X106066304Y-53108147D01*
X105937829Y-53133702D01*
X105667412Y-53245712D01*
X105424044Y-53408326D01*
X105217076Y-53615294D01*
X105054462Y-53858662D01*
X104942452Y-54129079D01*
X104885350Y-54416152D01*
X101939500Y-54416152D01*
X101939500Y-47129250D01*
X116371250Y-47129250D01*
X116371250Y-48379250D01*
X117629250Y-48379250D01*
X117629250Y-46036594D01*
X117883250Y-46036594D01*
X117883250Y-48379250D01*
X119141250Y-48379250D01*
X119141250Y-47129250D01*
X123671250Y-47129250D01*
X123671250Y-48379250D01*
X124929250Y-48379250D01*
X124929250Y-46036594D01*
X125183250Y-46036594D01*
X125183250Y-48379250D01*
X126441250Y-48379250D01*
X126441250Y-47129250D01*
X126389861Y-46861490D01*
X126287222Y-46608901D01*
X126137278Y-46381189D01*
X125945790Y-46187105D01*
X125720118Y-46034108D01*
X125468934Y-45928077D01*
X125397435Y-45913932D01*
X125183250Y-46036594D01*
X124929250Y-46036594D01*
X124715065Y-45913932D01*
X124643566Y-45928077D01*
X124392382Y-46034108D01*
X124166710Y-46187105D01*
X123975222Y-46381189D01*
X123825278Y-46608901D01*
X123722639Y-46861490D01*
X123671250Y-47129250D01*
X119141250Y-47129250D01*
X119089861Y-46861490D01*
X118987222Y-46608901D01*
X118837278Y-46381189D01*
X118645790Y-46187105D01*
X118420118Y-46034108D01*
X118168934Y-45928077D01*
X118097435Y-45913932D01*
X117883250Y-46036594D01*
X117629250Y-46036594D01*
X117415065Y-45913932D01*
X117343566Y-45928077D01*
X117092382Y-46034108D01*
X116866710Y-46187105D01*
X116675222Y-46381189D01*
X116525278Y-46608901D01*
X116422639Y-46861490D01*
X116371250Y-47129250D01*
X101939500Y-47129250D01*
X101939500Y-45378750D01*
X173779250Y-45378750D01*
X173779250Y-86042627D01*
M02*
