M48
; DRILL file {KiCad (5.1.5)-3} date 12/04/2020 12:08:32
; FORMAT={-:-/ absolute / inch / decimal}
; #@! TF.CreationDate,2020-04-12T12:08:32+02:00
; #@! TF.GenerationSoftware,Kicad,Pcbnew,(5.1.5)-3
FMAT,2
INCH
T1C0.0157
T2C0.0276
T3C0.0591
T4C0.0670
T5C0.0984
T6C0.1570
%
G90
G05
T1
X4.68Y-2.43
X4.91Y-2.4215
X5.29Y-3.27
X5.54Y-1.97
X5.7Y-1.9
X5.75Y-2.05
X5.78Y-2.0
X5.78Y-2.61
X5.8Y-2.78
X5.85Y-2.5989
X5.87Y-1.94
X5.8961Y-2.5989
X6.05Y-2.4
X6.07Y-2.0
X6.1Y-2.84
X6.14Y-2.89
X6.16Y-1.93
X6.17Y-2.92
X6.2035Y-2.8922
X6.31Y-2.85
X6.47Y-2.34
X6.54Y-2.39
T2
X5.0182Y-2.3364
X5.3253Y-2.3364
X4.2247Y-3.1225
X4.5317Y-3.1225
X4.232Y-2.3364
X4.5391Y-2.3364
X5.0138Y-3.1225
X5.3209Y-3.1225
T4
X4.971Y-2.9343
X5.371Y-2.9343
X4.1885Y-2.9343
X4.5885Y-2.9343
X4.971Y-2.1481
X5.371Y-2.1481
X4.1878Y-2.1481
X4.5878Y-2.1481
T5
X6.73Y-3.28
X6.74Y-1.89
T6
X5.171Y-2.9343
X4.3885Y-2.9343
X5.171Y-2.1481
X4.3878Y-2.1481
T2
G00X4.6361Y-1.8605
M15
G01X4.6361Y-1.9589
M16
G05
G00X4.9235Y-1.8605
M15
G01X4.9235Y-1.9589
M16
G05
T3
G00X5.0667Y-2.7584
M15
G01X5.0191Y-2.8331
M16
G05
G00X5.271Y-2.7343
M15
G01X5.2694Y-2.7571
M16
G05
G00X4.2842Y-2.7584
M15
G01X4.2366Y-2.8331
M16
G05
G00X4.4885Y-2.7343
M15
G01X4.487Y-2.7571
M16
G05
G00X5.0667Y-1.9722
M15
G01X5.0191Y-2.0469
M16
G05
G00X5.271Y-1.9482
M15
G01X5.2694Y-1.9709
M16
G05
G00X4.2835Y-1.9722
M15
G01X4.2359Y-2.0469
M16
G05
G00X4.4878Y-1.9482
M15
G01X4.4863Y-1.9709
M16
G05
T0
M30
