G04 #@! TF.GenerationSoftware,KiCad,Pcbnew,(5.1.5)-3*
G04 #@! TF.CreationDate,2020-04-12T12:06:53+02:00*
G04 #@! TF.ProjectId,4Keys,344b6579-732e-46b6-9963-61645f706362,rev?*
G04 #@! TF.SameCoordinates,Original*
G04 #@! TF.FileFunction,Legend,Bot*
G04 #@! TF.FilePolarity,Positive*
%FSLAX46Y46*%
G04 Gerber Fmt 4.6, Leading zero omitted, Abs format (unit mm)*
G04 Created by KiCad (PCBNEW (5.1.5)-3) date 2020-04-12 12:06:53*
%MOMM*%
%LPD*%
G04 APERTURE LIST*
%ADD10C,0.120000*%
%ADD11C,0.200000*%
%ADD12C,0.152400*%
%ADD13C,0.150000*%
%ADD14C,0.050000*%
G04 APERTURE END LIST*
D10*
X151460000Y-53423752D02*
X151460000Y-52901248D01*
X150040000Y-53423752D02*
X150040000Y-52901248D01*
X162321250Y-53236252D02*
X162321250Y-52713748D01*
X163741250Y-53236252D02*
X163741250Y-52713748D01*
X169633750Y-69107498D02*
X169633750Y-69630002D01*
X171053750Y-69107498D02*
X171053750Y-69630002D01*
X171053750Y-59363748D02*
X171053750Y-59886252D01*
X169633750Y-59363748D02*
X169633750Y-59886252D01*
X145085000Y-59223752D02*
X145085000Y-58701248D01*
X143665000Y-59223752D02*
X143665000Y-58701248D01*
X143571250Y-53511252D02*
X143571250Y-52988748D01*
X144991250Y-53511252D02*
X144991250Y-52988748D01*
X144982000Y-68070252D02*
X144982000Y-67547748D01*
X143562000Y-68070252D02*
X143562000Y-67547748D01*
X143562000Y-63752252D02*
X143562000Y-63229748D01*
X144982000Y-63752252D02*
X144982000Y-63229748D01*
D11*
X109118750Y-60543750D02*
X109118750Y-58143750D01*
X108943750Y-60543750D02*
X108943750Y-58143750D01*
X108768750Y-60543750D02*
X108768750Y-58143750D01*
X108368750Y-58143750D02*
X108368750Y-60543750D01*
X108593750Y-60543750D02*
X108593750Y-58143750D01*
X108468750Y-60543750D02*
X108468750Y-58143750D01*
X108393750Y-60543750D02*
X114193750Y-60543750D01*
X114193750Y-60543750D02*
X114193750Y-58143750D01*
X114193750Y-58143750D02*
X108393750Y-58143750D01*
X108931250Y-80512500D02*
X108931250Y-78112500D01*
X108756250Y-80512500D02*
X108756250Y-78112500D01*
X108581250Y-80512500D02*
X108581250Y-78112500D01*
X108181250Y-78112500D02*
X108181250Y-80512500D01*
X108406250Y-80512500D02*
X108406250Y-78112500D01*
X108281250Y-80512500D02*
X108281250Y-78112500D01*
X108206250Y-80512500D02*
X114006250Y-80512500D01*
X114006250Y-80512500D02*
X114006250Y-78112500D01*
X114006250Y-78112500D02*
X108206250Y-78112500D01*
X134162500Y-58143750D02*
X128362500Y-58143750D01*
X134162500Y-60543750D02*
X134162500Y-58143750D01*
X128362500Y-60543750D02*
X134162500Y-60543750D01*
X128437500Y-60543750D02*
X128437500Y-58143750D01*
X128562500Y-60543750D02*
X128562500Y-58143750D01*
X128337500Y-58143750D02*
X128337500Y-60543750D01*
X128737500Y-60543750D02*
X128737500Y-58143750D01*
X128912500Y-60543750D02*
X128912500Y-58143750D01*
X129087500Y-60543750D02*
X129087500Y-58143750D01*
X134050000Y-78112500D02*
X128250000Y-78112500D01*
X134050000Y-80512500D02*
X134050000Y-78112500D01*
X128250000Y-80512500D02*
X134050000Y-80512500D01*
X128325000Y-80512500D02*
X128325000Y-78112500D01*
X128450000Y-80512500D02*
X128450000Y-78112500D01*
X128225000Y-78112500D02*
X128225000Y-80512500D01*
X128625000Y-80512500D02*
X128625000Y-78112500D01*
X128800000Y-80512500D02*
X128800000Y-78112500D01*
X128975000Y-80512500D02*
X128975000Y-78112500D01*
X125256250Y-51306250D02*
X125256250Y-44806250D01*
X117556250Y-51306250D02*
X117556250Y-44806250D01*
X117556250Y-51306250D02*
X125256250Y-51306250D01*
D10*
X143665000Y-78823752D02*
X143665000Y-78301248D01*
X145085000Y-78823752D02*
X145085000Y-78301248D01*
X169633750Y-64144998D02*
X169633750Y-64667502D01*
X171053750Y-64144998D02*
X171053750Y-64667502D01*
X147588748Y-47960000D02*
X148111252Y-47960000D01*
X147588748Y-46540000D02*
X148111252Y-46540000D01*
X155744998Y-46540000D02*
X156267502Y-46540000D01*
X155744998Y-47960000D02*
X156267502Y-47960000D01*
X155612500Y-75512500D02*
X156062500Y-75062500D01*
X159012500Y-75512500D02*
X158562500Y-75062500D01*
X159012500Y-80112500D02*
X158562500Y-80562500D01*
X155612500Y-80112500D02*
X156062500Y-80562500D01*
X160062500Y-78812500D02*
X160062500Y-76812500D01*
X156062500Y-75062500D02*
X158562500Y-75062500D01*
X154562500Y-78812500D02*
X154562500Y-76812500D01*
X156062500Y-80562500D02*
X158562500Y-80562500D01*
D12*
X151789150Y-59928000D02*
X151789150Y-59445400D01*
X151789150Y-69554600D02*
X151789150Y-69072000D01*
X161898350Y-69554600D02*
X161415750Y-69554600D01*
X161898350Y-59445400D02*
X161898350Y-59928000D01*
X151789150Y-59445400D02*
X152271750Y-59445400D01*
X161415750Y-59445400D02*
X161898350Y-59445400D01*
X161898350Y-69072000D02*
X161898350Y-69554600D01*
X152271750Y-69554600D02*
X151789150Y-69554600D01*
D13*
X156081008Y-52403065D02*
X156788115Y-53110171D01*
X155939587Y-52403065D02*
X156222430Y-52120222D01*
X157778064Y-54241542D02*
X158060907Y-53958699D01*
X152757142Y-52995833D02*
X152804761Y-52948214D01*
X152852380Y-52805357D01*
X152852380Y-52710119D01*
X152804761Y-52567261D01*
X152709523Y-52472023D01*
X152614285Y-52424404D01*
X152423809Y-52376785D01*
X152280952Y-52376785D01*
X152090476Y-52424404D01*
X151995238Y-52472023D01*
X151900000Y-52567261D01*
X151852380Y-52710119D01*
X151852380Y-52805357D01*
X151900000Y-52948214D01*
X151947619Y-52995833D01*
X152852380Y-53948214D02*
X152852380Y-53376785D01*
X152852380Y-53662500D02*
X151852380Y-53662500D01*
X151995238Y-53567261D01*
X152090476Y-53472023D01*
X152138095Y-53376785D01*
X165038392Y-52808333D02*
X165086011Y-52760714D01*
X165133630Y-52617857D01*
X165133630Y-52522619D01*
X165086011Y-52379761D01*
X164990773Y-52284523D01*
X164895535Y-52236904D01*
X164705059Y-52189285D01*
X164562202Y-52189285D01*
X164371726Y-52236904D01*
X164276488Y-52284523D01*
X164181250Y-52379761D01*
X164133630Y-52522619D01*
X164133630Y-52617857D01*
X164181250Y-52760714D01*
X164228869Y-52808333D01*
X164228869Y-53189285D02*
X164181250Y-53236904D01*
X164133630Y-53332142D01*
X164133630Y-53570238D01*
X164181250Y-53665476D01*
X164228869Y-53713095D01*
X164324107Y-53760714D01*
X164419345Y-53760714D01*
X164562202Y-53713095D01*
X165133630Y-53141666D01*
X165133630Y-53760714D01*
X169050892Y-69202083D02*
X169098511Y-69154464D01*
X169146130Y-69011607D01*
X169146130Y-68916369D01*
X169098511Y-68773511D01*
X169003273Y-68678273D01*
X168908035Y-68630654D01*
X168717559Y-68583035D01*
X168574702Y-68583035D01*
X168384226Y-68630654D01*
X168288988Y-68678273D01*
X168193750Y-68773511D01*
X168146130Y-68916369D01*
X168146130Y-69011607D01*
X168193750Y-69154464D01*
X168241369Y-69202083D01*
X168146130Y-69535416D02*
X168146130Y-70154464D01*
X168527083Y-69821130D01*
X168527083Y-69963988D01*
X168574702Y-70059226D01*
X168622321Y-70106845D01*
X168717559Y-70154464D01*
X168955654Y-70154464D01*
X169050892Y-70106845D01*
X169098511Y-70059226D01*
X169146130Y-69963988D01*
X169146130Y-69678273D01*
X169098511Y-69583035D01*
X169050892Y-69535416D01*
X169050892Y-59458333D02*
X169098511Y-59410714D01*
X169146130Y-59267857D01*
X169146130Y-59172619D01*
X169098511Y-59029761D01*
X169003273Y-58934523D01*
X168908035Y-58886904D01*
X168717559Y-58839285D01*
X168574702Y-58839285D01*
X168384226Y-58886904D01*
X168288988Y-58934523D01*
X168193750Y-59029761D01*
X168146130Y-59172619D01*
X168146130Y-59267857D01*
X168193750Y-59410714D01*
X168241369Y-59458333D01*
X168479464Y-60315476D02*
X169146130Y-60315476D01*
X168098511Y-60077380D02*
X168812797Y-59839285D01*
X168812797Y-60458333D01*
X146382142Y-58795833D02*
X146429761Y-58748214D01*
X146477380Y-58605357D01*
X146477380Y-58510119D01*
X146429761Y-58367261D01*
X146334523Y-58272023D01*
X146239285Y-58224404D01*
X146048809Y-58176785D01*
X145905952Y-58176785D01*
X145715476Y-58224404D01*
X145620238Y-58272023D01*
X145525000Y-58367261D01*
X145477380Y-58510119D01*
X145477380Y-58605357D01*
X145525000Y-58748214D01*
X145572619Y-58795833D01*
X145477380Y-59700595D02*
X145477380Y-59224404D01*
X145953571Y-59176785D01*
X145905952Y-59224404D01*
X145858333Y-59319642D01*
X145858333Y-59557738D01*
X145905952Y-59652976D01*
X145953571Y-59700595D01*
X146048809Y-59748214D01*
X146286904Y-59748214D01*
X146382142Y-59700595D01*
X146429761Y-59652976D01*
X146477380Y-59557738D01*
X146477380Y-59319642D01*
X146429761Y-59224404D01*
X146382142Y-59176785D01*
X146288392Y-53083333D02*
X146336011Y-53035714D01*
X146383630Y-52892857D01*
X146383630Y-52797619D01*
X146336011Y-52654761D01*
X146240773Y-52559523D01*
X146145535Y-52511904D01*
X145955059Y-52464285D01*
X145812202Y-52464285D01*
X145621726Y-52511904D01*
X145526488Y-52559523D01*
X145431250Y-52654761D01*
X145383630Y-52797619D01*
X145383630Y-52892857D01*
X145431250Y-53035714D01*
X145478869Y-53083333D01*
X145383630Y-53940476D02*
X145383630Y-53750000D01*
X145431250Y-53654761D01*
X145478869Y-53607142D01*
X145621726Y-53511904D01*
X145812202Y-53464285D01*
X146193154Y-53464285D01*
X146288392Y-53511904D01*
X146336011Y-53559523D01*
X146383630Y-53654761D01*
X146383630Y-53845238D01*
X146336011Y-53940476D01*
X146288392Y-53988095D01*
X146193154Y-54035714D01*
X145955059Y-54035714D01*
X145859821Y-53988095D01*
X145812202Y-53940476D01*
X145764583Y-53845238D01*
X145764583Y-53654761D01*
X145812202Y-53559523D01*
X145859821Y-53511904D01*
X145955059Y-53464285D01*
X146279142Y-67642333D02*
X146326761Y-67594714D01*
X146374380Y-67451857D01*
X146374380Y-67356619D01*
X146326761Y-67213761D01*
X146231523Y-67118523D01*
X146136285Y-67070904D01*
X145945809Y-67023285D01*
X145802952Y-67023285D01*
X145612476Y-67070904D01*
X145517238Y-67118523D01*
X145422000Y-67213761D01*
X145374380Y-67356619D01*
X145374380Y-67451857D01*
X145422000Y-67594714D01*
X145469619Y-67642333D01*
X145374380Y-67975666D02*
X145374380Y-68642333D01*
X146374380Y-68213761D01*
X146441641Y-63248084D02*
X146489260Y-63200465D01*
X146536879Y-63057608D01*
X146536879Y-62962370D01*
X146489260Y-62819512D01*
X146394022Y-62724274D01*
X146298784Y-62676655D01*
X146108308Y-62629036D01*
X145965451Y-62629036D01*
X145774975Y-62676655D01*
X145679737Y-62724274D01*
X145584499Y-62819512D01*
X145536879Y-62962370D01*
X145536879Y-63057608D01*
X145584499Y-63200465D01*
X145632118Y-63248084D01*
X145965451Y-63819512D02*
X145917832Y-63724274D01*
X145870213Y-63676655D01*
X145774975Y-63629036D01*
X145727356Y-63629036D01*
X145632118Y-63676655D01*
X145584499Y-63724274D01*
X145536879Y-63819512D01*
X145536879Y-64009989D01*
X145584499Y-64105227D01*
X145632118Y-64152846D01*
X145727356Y-64200465D01*
X145774975Y-64200465D01*
X145870213Y-64152846D01*
X145917832Y-64105227D01*
X145965451Y-64009989D01*
X145965451Y-63819512D01*
X146013070Y-63724274D01*
X146060689Y-63676655D01*
X146155927Y-63629036D01*
X146346403Y-63629036D01*
X146441641Y-63676655D01*
X146489260Y-63724274D01*
X146536879Y-63819512D01*
X146536879Y-64009989D01*
X146489260Y-64105227D01*
X146441641Y-64152846D01*
X146346403Y-64200465D01*
X146155927Y-64200465D01*
X146060689Y-64152846D01*
X146013070Y-64105227D01*
X145965451Y-64009989D01*
X111984226Y-57780654D02*
X111984226Y-56980654D01*
X111793750Y-56980654D01*
X111679464Y-57018750D01*
X111603273Y-57094940D01*
X111565178Y-57171130D01*
X111527083Y-57323511D01*
X111527083Y-57437797D01*
X111565178Y-57590178D01*
X111603273Y-57666369D01*
X111679464Y-57742559D01*
X111793750Y-57780654D01*
X111984226Y-57780654D01*
X110765178Y-57780654D02*
X111222321Y-57780654D01*
X110993750Y-57780654D02*
X110993750Y-56980654D01*
X111069940Y-57094940D01*
X111146130Y-57171130D01*
X111222321Y-57209226D01*
X111796726Y-77749404D02*
X111796726Y-76949404D01*
X111606250Y-76949404D01*
X111491964Y-76987500D01*
X111415773Y-77063690D01*
X111377678Y-77139880D01*
X111339583Y-77292261D01*
X111339583Y-77406547D01*
X111377678Y-77558928D01*
X111415773Y-77635119D01*
X111491964Y-77711309D01*
X111606250Y-77749404D01*
X111796726Y-77749404D01*
X111034821Y-77025595D02*
X110996726Y-76987500D01*
X110920535Y-76949404D01*
X110730059Y-76949404D01*
X110653869Y-76987500D01*
X110615773Y-77025595D01*
X110577678Y-77101785D01*
X110577678Y-77177976D01*
X110615773Y-77292261D01*
X111072916Y-77749404D01*
X110577678Y-77749404D01*
X131952976Y-57780654D02*
X131952976Y-56980654D01*
X131762500Y-56980654D01*
X131648214Y-57018750D01*
X131572023Y-57094940D01*
X131533928Y-57171130D01*
X131495833Y-57323511D01*
X131495833Y-57437797D01*
X131533928Y-57590178D01*
X131572023Y-57666369D01*
X131648214Y-57742559D01*
X131762500Y-57780654D01*
X131952976Y-57780654D01*
X131229166Y-56980654D02*
X130733928Y-56980654D01*
X131000595Y-57285416D01*
X130886309Y-57285416D01*
X130810119Y-57323511D01*
X130772023Y-57361607D01*
X130733928Y-57437797D01*
X130733928Y-57628273D01*
X130772023Y-57704464D01*
X130810119Y-57742559D01*
X130886309Y-57780654D01*
X131114880Y-57780654D01*
X131191071Y-57742559D01*
X131229166Y-57704464D01*
X131840476Y-77749404D02*
X131840476Y-76949404D01*
X131650000Y-76949404D01*
X131535714Y-76987500D01*
X131459523Y-77063690D01*
X131421428Y-77139880D01*
X131383333Y-77292261D01*
X131383333Y-77406547D01*
X131421428Y-77558928D01*
X131459523Y-77635119D01*
X131535714Y-77711309D01*
X131650000Y-77749404D01*
X131840476Y-77749404D01*
X130697619Y-77216071D02*
X130697619Y-77749404D01*
X130888095Y-76911309D02*
X131078571Y-77482738D01*
X130583333Y-77482738D01*
D11*
X112189345Y-59332880D02*
X112189345Y-58332880D01*
X111617916Y-59332880D02*
X112046488Y-58761452D01*
X111617916Y-58332880D02*
X112189345Y-58904309D01*
X110665535Y-59332880D02*
X111236964Y-59332880D01*
X110951250Y-59332880D02*
X110951250Y-58332880D01*
X111046488Y-58475738D01*
X111141726Y-58570976D01*
X111236964Y-58618595D01*
X112206845Y-79301630D02*
X112206845Y-78301630D01*
X111635416Y-79301630D02*
X112063988Y-78730202D01*
X111635416Y-78301630D02*
X112206845Y-78873059D01*
X111254464Y-78396869D02*
X111206845Y-78349250D01*
X111111607Y-78301630D01*
X110873511Y-78301630D01*
X110778273Y-78349250D01*
X110730654Y-78396869D01*
X110683035Y-78492107D01*
X110683035Y-78587345D01*
X110730654Y-78730202D01*
X111302083Y-79301630D01*
X110683035Y-79301630D01*
X132081845Y-59332880D02*
X132081845Y-58332880D01*
X131510416Y-59332880D02*
X131938988Y-58761452D01*
X131510416Y-58332880D02*
X132081845Y-58904309D01*
X131177083Y-58332880D02*
X130558035Y-58332880D01*
X130891369Y-58713833D01*
X130748511Y-58713833D01*
X130653273Y-58761452D01*
X130605654Y-58809071D01*
X130558035Y-58904309D01*
X130558035Y-59142404D01*
X130605654Y-59237642D01*
X130653273Y-59285261D01*
X130748511Y-59332880D01*
X131034226Y-59332880D01*
X131129464Y-59285261D01*
X131177083Y-59237642D01*
X132081845Y-79301630D02*
X132081845Y-78301630D01*
X131510416Y-79301630D02*
X131938988Y-78730202D01*
X131510416Y-78301630D02*
X132081845Y-78873059D01*
X130653273Y-78634964D02*
X130653273Y-79301630D01*
X130891369Y-78254011D02*
X131129464Y-78968297D01*
X130510416Y-78968297D01*
D13*
X146477380Y-78395833D02*
X146001190Y-78062500D01*
X146477380Y-77824404D02*
X145477380Y-77824404D01*
X145477380Y-78205357D01*
X145525000Y-78300595D01*
X145572619Y-78348214D01*
X145667857Y-78395833D01*
X145810714Y-78395833D01*
X145905952Y-78348214D01*
X145953571Y-78300595D01*
X146001190Y-78205357D01*
X146001190Y-77824404D01*
X146477380Y-79348214D02*
X146477380Y-78776785D01*
X146477380Y-79062500D02*
X145477380Y-79062500D01*
X145620238Y-78967261D01*
X145715476Y-78872023D01*
X145763095Y-78776785D01*
X169146130Y-64239583D02*
X168669940Y-63906250D01*
X169146130Y-63668154D02*
X168146130Y-63668154D01*
X168146130Y-64049107D01*
X168193750Y-64144345D01*
X168241369Y-64191964D01*
X168336607Y-64239583D01*
X168479464Y-64239583D01*
X168574702Y-64191964D01*
X168622321Y-64144345D01*
X168669940Y-64049107D01*
X168669940Y-63668154D01*
X168241369Y-64620535D02*
X168193750Y-64668154D01*
X168146130Y-64763392D01*
X168146130Y-65001488D01*
X168193750Y-65096726D01*
X168241369Y-65144345D01*
X168336607Y-65191964D01*
X168431845Y-65191964D01*
X168574702Y-65144345D01*
X169146130Y-64572916D01*
X169146130Y-65191964D01*
X148016666Y-49352380D02*
X148350000Y-48876190D01*
X148588095Y-49352380D02*
X148588095Y-48352380D01*
X148207142Y-48352380D01*
X148111904Y-48400000D01*
X148064285Y-48447619D01*
X148016666Y-48542857D01*
X148016666Y-48685714D01*
X148064285Y-48780952D01*
X148111904Y-48828571D01*
X148207142Y-48876190D01*
X148588095Y-48876190D01*
X147683333Y-48352380D02*
X147064285Y-48352380D01*
X147397619Y-48733333D01*
X147254761Y-48733333D01*
X147159523Y-48780952D01*
X147111904Y-48828571D01*
X147064285Y-48923809D01*
X147064285Y-49161904D01*
X147111904Y-49257142D01*
X147159523Y-49304761D01*
X147254761Y-49352380D01*
X147540476Y-49352380D01*
X147635714Y-49304761D01*
X147683333Y-49257142D01*
X156172916Y-49352380D02*
X156506250Y-48876190D01*
X156744345Y-49352380D02*
X156744345Y-48352380D01*
X156363392Y-48352380D01*
X156268154Y-48400000D01*
X156220535Y-48447619D01*
X156172916Y-48542857D01*
X156172916Y-48685714D01*
X156220535Y-48780952D01*
X156268154Y-48828571D01*
X156363392Y-48876190D01*
X156744345Y-48876190D01*
X155315773Y-48685714D02*
X155315773Y-49352380D01*
X155553869Y-48304761D02*
X155791964Y-49019047D01*
X155172916Y-49019047D01*
X158645833Y-81967261D02*
X158502976Y-82014880D01*
X158264880Y-82014880D01*
X158169642Y-81967261D01*
X158122023Y-81919642D01*
X158074404Y-81824404D01*
X158074404Y-81729166D01*
X158122023Y-81633928D01*
X158169642Y-81586309D01*
X158264880Y-81538690D01*
X158455357Y-81491071D01*
X158550595Y-81443452D01*
X158598214Y-81395833D01*
X158645833Y-81300595D01*
X158645833Y-81205357D01*
X158598214Y-81110119D01*
X158550595Y-81062500D01*
X158455357Y-81014880D01*
X158217261Y-81014880D01*
X158074404Y-81062500D01*
X157741071Y-81014880D02*
X157502976Y-82014880D01*
X157312500Y-81300595D01*
X157122023Y-82014880D01*
X156883928Y-81014880D01*
X155979166Y-82014880D02*
X156550595Y-82014880D01*
X156264880Y-82014880D02*
X156264880Y-81014880D01*
X156360119Y-81157738D01*
X156455357Y-81252976D01*
X156550595Y-81300595D01*
D14*
X156189676Y-55489795D02*
X156189676Y-56817576D01*
X156111571Y-56973785D01*
X156033466Y-57051890D01*
X155877257Y-57129995D01*
X155564838Y-57129995D01*
X155408628Y-57051890D01*
X155330523Y-56973785D01*
X155252419Y-56817576D01*
X155252419Y-55489795D01*
X153612219Y-57129995D02*
X154549476Y-57129995D01*
X154080847Y-57129995D02*
X154080847Y-55489795D01*
X154237057Y-55724109D01*
X154393266Y-55880319D01*
X154549476Y-55958423D01*
X158051497Y-84347718D02*
X157269445Y-84347718D01*
X158207908Y-84816949D02*
X157660471Y-83174639D01*
X157113034Y-84816949D01*
X156800213Y-83174639D02*
X155861750Y-83174639D01*
X156330982Y-84816949D02*
X156330982Y-83174639D01*
X155314314Y-84816949D02*
X155314314Y-83174639D01*
X154766877Y-84347718D01*
X154219440Y-83174639D01*
X154219440Y-84816949D01*
X153437388Y-83956692D02*
X152889951Y-83956692D01*
X152655336Y-84816949D02*
X153437388Y-84816949D01*
X153437388Y-83174639D01*
X152655336Y-83174639D01*
X151091231Y-83252845D02*
X151247641Y-83174639D01*
X151482257Y-83174639D01*
X151716873Y-83252845D01*
X151873283Y-83409255D01*
X151951489Y-83565665D01*
X152029694Y-83878486D01*
X152029694Y-84113102D01*
X151951489Y-84425923D01*
X151873283Y-84582334D01*
X151716873Y-84738744D01*
X151482257Y-84816949D01*
X151325847Y-84816949D01*
X151091231Y-84738744D01*
X151013026Y-84660539D01*
X151013026Y-84113102D01*
X151325847Y-84113102D01*
X150387384Y-84347718D02*
X149605331Y-84347718D01*
X150543794Y-84816949D02*
X149996358Y-83174639D01*
X149448921Y-84816949D01*
X149057895Y-83174639D02*
X148041227Y-83174639D01*
X148588663Y-83800281D01*
X148354048Y-83800281D01*
X148197637Y-83878486D01*
X148119432Y-83956692D01*
X148041227Y-84113102D01*
X148041227Y-84504128D01*
X148119432Y-84660539D01*
X148197637Y-84738744D01*
X148354048Y-84816949D01*
X148823279Y-84816949D01*
X148979690Y-84738744D01*
X149057895Y-84660539D01*
X147415585Y-83331050D02*
X147337380Y-83252845D01*
X147180969Y-83174639D01*
X146789943Y-83174639D01*
X146633532Y-83252845D01*
X146555327Y-83331050D01*
X146477122Y-83487460D01*
X146477122Y-83643871D01*
X146555327Y-83878486D01*
X147493790Y-84816949D01*
X146477122Y-84816949D01*
X145773275Y-83174639D02*
X145773275Y-84504128D01*
X145695070Y-84660539D01*
X145616864Y-84738744D01*
X145460454Y-84816949D01*
X145147633Y-84816949D01*
X144991222Y-84738744D01*
X144913017Y-84660539D01*
X144834812Y-84504128D01*
X144834812Y-83174639D01*
X143348912Y-83722076D02*
X143348912Y-84816949D01*
X143739939Y-83096434D02*
X144130965Y-84269513D01*
X143114297Y-84269513D01*
D13*
X158741076Y-53918293D02*
X158976778Y-55096804D01*
X158269672Y-54389697D02*
X159448183Y-54625399D01*
X158337015Y-55736567D02*
X158741076Y-55332506D01*
X158539046Y-55534537D02*
X157831939Y-54827430D01*
X158000298Y-54861102D01*
X158134985Y-54861102D01*
X158236000Y-54827430D01*
M02*
